<svg viewBox="0 0 100 68" xmlns="http://www.w3.org/2000/svg" fill-rule="evenodd" clip-rule="evenodd" stroke-linejoin="round" stroke-miterlimit="2"><path d="M15.718 7.772C20.12 3.07 26.02.002 33.546.002c9.574 0 16.392 3.925 20.317 10.795C58.493 4.582 65.36.003 74.873.003c8.55 0 14.804 2.626 18.957 7.334 4.093 4.641 6.17 11.394 6.17 19.96v32.142c0 3.037-.862 4.972-2.149 6.196-1.315 1.255-3.176 1.837-5.504 1.837h-1.275c-2.308 0-4.198-.575-5.544-1.812-1.334-1.23-2.237-3.172-2.237-6.22V28.826c0-4.628-.883-8.124-2.87-10.439-1.898-2.204-4.788-3.208-8.61-3.208-5.611 0-10.649 3.484-13.52 8.676v35.583c0 3.037-.862 4.972-2.15 6.196-1.314 1.255-3.175 1.837-5.503 1.837h-1.275c-2.308 0-4.198-.575-5.544-1.812-1.334-1.23-2.237-3.172-2.237-6.22V29.334c0-4.824-.89-8.46-2.89-10.855-1.893-2.271-4.777-3.3-8.59-3.3-5.601 0-10.634 3.472-13.392 8.657V59.44c0 3.05-.936 4.99-2.27 6.22-1.358 1.25-3.227 1.813-5.383 1.813H7.653c-2.328 0-4.189-.582-5.504-1.837C.862 64.411 0 62.476 0 59.44V4.337c0-.447.16-1.255 1.042-1.922C1.821 1.827 4.004.89 6.632.89c2.297 0 4.616.625 6.482 2.45 1.039 1.016 1.96 2.442 2.604 4.432z" fill="#E11D3C"/></svg>
