<svg viewBox="0 0 100 100" xmlns="http://www.w3.org/2000/svg" fill-rule="evenodd" clip-rule="evenodd" stroke-linejoin="round" stroke-miterlimit="2"><path d="M70.833 41.829c-16.079 0-29.167 13.083-29.167 29.167C41.666 86.987 54.754 100 70.833 100 86.913 100 100 86.916 100 70.833c0-15.992-13.088-29.004-29.167-29.004zm0 49.837C59.346 91.666 50 82.391 50 70.996c0-11.488 9.346-20.834 20.833-20.834 11.488 0 20.833 9.275 20.833 20.671 0 11.488-9.345 20.833-20.833 20.833zm7.113-19.612a4.162 4.162 0 0 1 0 5.892A4.155 4.155 0 0 1 75 79.166a4.155 4.155 0 0 1-2.946-1.22l-4.167-4.167a4.162 4.162 0 0 1-1.22-2.946V62.5a4.165 4.165 0 1 1 8.333 0v6.608l2.946 2.946zM100 29.167V37.5c0 2.3-1.863 4.166-4.167 4.166a4.165 4.165 0 0 1-4.167-4.166v-8.333c0-6.892-5.608-12.5-12.5-12.5H20.833c-6.891 0-12.5 5.608-12.5 12.5v4.166h37.5c2.3 0 4.167 1.867 4.167 4.167s-1.867 4.166-4.167 4.166h-37.5v37.5c0 6.892 5.609 12.5 12.5 12.5H37.5c2.3 0 4.166 1.867 4.166 4.167S39.8 100 37.5 100H20.833C9.346 100 0 90.654 0 79.166v-50C0 17.68 9.346 8.334 20.833 8.334H25V4.167C25 1.867 26.867 0 29.167 0s4.166 1.867 4.166 4.167v4.166h33.333V4.167c0-2.3 1.863-4.167 4.167-4.167A4.165 4.165 0 0 1 75 4.167v4.166h4.166C90.654 8.333 100 17.68 100 29.167z" fill="#E11D3C" fill-rule="nonzero"/></svg>
