<svg viewBox="0 0 100 100" xmlns="http://www.w3.org/2000/svg" fill-rule="evenodd" clip-rule="evenodd" stroke-linejoin="round" stroke-miterlimit="2"><path d="M29.167 58.333c9.208 0 16.666-7.458 16.666-16.667C45.833 32.458 38.375 25 29.167 25 19.958 25 12.5 32.458 12.5 41.666c0 9.209 7.458 16.667 16.667 16.667zm0-25c4.583 0 8.333 3.75 8.333 8.333C37.5 46.25 33.75 50 29.167 50c-4.584 0-8.334-3.75-8.334-8.334 0-4.583 3.75-8.333 8.334-8.333zm29.166 62.5A4.179 4.179 0 0 1 54.166 100 4.179 4.179 0 0 1 50 95.833C50 84.333 40.666 75 29.167 75c-11.5 0-20.834 9.333-20.834 20.833A4.179 4.179 0 0 1 4.167 100 4.179 4.179 0 0 1 0 95.833C0 79.75 13.083 66.666 29.167 66.666c16.083 0 29.166 13.084 29.166 29.167zm41.667-75v33.333C100 65.666 90.666 75 79.166 75H62.5a4.179 4.179 0 0 1-4.167-4.167 4.179 4.179 0 0 1 4.167-4.167h16.666c6.875 0 12.5-5.625 12.5-12.5V20.833c0-6.875-5.625-12.5-12.5-12.5h-39.75c-4.458 0-8.583 2.417-10.833 6.25a4.21 4.21 0 0 1-5.708 1.542 4.16 4.16 0 0 1-1.5-5.708C25.125 4 32.042 0 39.417 0h39.75C90.666 0 100 9.333 100 20.833zM56.958 45.5l12.167-12.167H62.5a4.179 4.179 0 0 1-4.167-4.166A4.179 4.179 0 0 1 62.5 25H75c4.583 0 8.333 3.75 8.333 8.333v12.5A4.179 4.179 0 0 1 79.166 50 4.179 4.179 0 0 1 75 45.833v-6.625L62.833 51.375a10.1 10.1 0 0 1-9.875 2.583 4.155 4.155 0 0 1-2.875-5.125c.625-2.208 2.917-3.5 5.167-2.875.5.125 1.166.083 1.708-.458z" fill="#E11D3C" fill-rule="nonzero"/></svg>
