<svg viewBox="0 0 100 100" xmlns="http://www.w3.org/2000/svg" fill-rule="evenodd" clip-rule="evenodd" stroke-linejoin="round" stroke-miterlimit="2"><path d="M67.908 34.533l5.85 5.938L49.621 64.25a8.256 8.256 0 0 1-5.863 2.416c-2.129 0-4.27-.812-5.9-2.437L26.267 52.996l5.804-5.988 11.637 11.28 24.204-23.755h-.004zM100 50c0 27.57-22.43 50-50 50-27.571 0-50-22.43-50-50C0 22.429 22.429 0 50 0c27.57 0 50 22.429 50 50zm-8.334 0C91.666 27.025 72.975 8.333 50 8.333 27.025 8.333 8.333 27.025 8.333 50S27.025 91.666 50 91.666 91.666 72.975 91.666 50z" fill="#E11D3C" fill-rule="nonzero"/></svg>
