<svg viewBox="0 0 100 100" xmlns="http://www.w3.org/2000/svg" fill-rule="evenodd" clip-rule="evenodd" stroke-linejoin="round" stroke-miterlimit="2"><path d="M100 49.93c0-9.189-7.418-16.776-16.5-16.875-3.655-7.366-9.57-13.34-16.857-17.024C66.2 7.102 58.82-.002 49.986-.002c-8.836 0-16.216 7.104-16.658 16.033-7.305 3.68-13.236 9.662-16.9 17.04C7.379 33.198 0 40.767 0 49.926c0 9.134 7.337 16.69 16.362 16.852 3.648 7.442 9.6 13.48 16.945 17.189.442 8.929 7.822 16.032 16.658 16.032 8.835 0 16.215-7.103 16.657-16.032 7.346-3.71 13.297-9.747 16.945-17.189 9.045-.135 16.418-7.693 16.432-16.846zM49.964 7.809c4.574 0 8.339 3.81 8.339 8.438 0 4.63-3.765 8.438-8.34 8.438-4.574 0-8.338-3.809-8.338-8.438 0-4.629 3.764-8.438 8.339-8.438zM8.269 49.931c0-4.63 3.765-8.438 8.34-8.438 4.574 0 8.338 3.809 8.338 8.438 0 4.629-3.764 8.438-8.339 8.438-4.574 0-8.339-3.81-8.339-8.438zm41.696 42.258c-4.575 0-8.34-3.81-8.34-8.438 0-4.63 3.765-8.438 8.34-8.438 4.574 0 8.339 3.809 8.339 8.438 0 4.629-3.765 8.438-8.34 8.438zm14.501-16.62c-2.896-5.354-8.468-8.695-14.501-8.695-6.033 0-11.605 3.341-14.502 8.696a29.625 29.625 0 0 1-10.8-10.97c5.31-2.926 8.625-8.575 8.625-14.693 0-6.092-3.287-11.72-8.562-14.658a29.581 29.581 0 0 1 10.737-10.843c2.897 5.354 8.469 8.696 14.502 8.696 6.033 0 11.605-3.342 14.501-8.696a29.581 29.581 0 0 1 10.737 10.843c-5.274 2.937-8.562 8.566-8.562 14.658 0 6.118 3.316 11.767 8.625 14.693a29.625 29.625 0 0 1-10.8 10.97zm18.855-17.204c-4.575 0-8.339-3.81-8.339-8.438 0-4.63 3.764-8.438 8.34-8.438 4.574 0 8.338 3.809 8.338 8.438 0 4.629-3.764 8.438-8.339 8.438z" fill="#E11D3C" fill-rule="nonzero"/></svg>
