<svg viewBox="0 0 100 92" xmlns="http://www.w3.org/2000/svg" fill-rule="evenodd" clip-rule="evenodd" stroke-linejoin="round" stroke-miterlimit="2"><path d="M99.568 43.556C96.347 18.762 74.995.005 49.993.005 22.568.005 0 22.572 0 49.996v.072a49.504 49.504 0 0 0 15.66 36.294 20.17 20.17 0 0 0 13.973 5.365h40.689a20.812 20.812 0 0 0 14.618-5.953 49.793 49.793 0 0 0 14.627-42.218zM79.117 79.8a12.501 12.501 0 0 1-8.794 3.595h-40.69a11.926 11.926 0 0 1-8.252-3.087 41.26 41.26 0 0 1-13.048-30.24 41.737 41.737 0 0 1 13.906-31.066A41.175 41.175 0 0 1 49.934 8.408c1.634 0 3.267.092 4.891.275 20.893 2.426 36.832 20.323 36.832 41.357a41.65 41.65 0 0 1-12.54 29.781v-.02zm3.866-34.494c.225 1.577.338 3.168.338 4.762A33.054 33.054 0 0 1 73.289 73.88a4.173 4.173 0 0 1-2.916 1.19c-2.289 0-4.172-1.884-4.172-4.172 0-1.123.453-2.199 1.255-2.983a24.93 24.93 0 0 0 7.266-21.418 4.167 4.167 0 0 1-.043-.595c0-2.287 1.882-4.17 4.17-4.17a4.184 4.184 0 0 1 4.126 3.574h.008zm-24.967 2.629a8.47 8.47 0 0 1 .31 2.269c0 4.646-3.823 8.47-8.47 8.47-4.646 0-8.469-3.824-8.469-8.47 0-4.646 3.823-8.47 8.47-8.47.766 0 1.53.104 2.269.31l15.751-15.752a4.168 4.168 0 0 1 2.997-1.271c2.285 0 4.166 1.88 4.166 4.166 0 1.13-.46 2.211-1.272 2.996L58.016 47.935z" fill="#E11D3C" fill-rule="nonzero"/></svg>
