<svg viewBox="0 0 100 92" xmlns="http://www.w3.org/2000/svg" fill-rule="evenodd" clip-rule="evenodd" stroke-linejoin="round" stroke-miterlimit="2"><path d="M75.504 28.662c4.875 4.875 4.875 12.8 0 17.675L64.74 57.104a4.155 4.155 0 0 1-2.945 1.22 4.155 4.155 0 0 1-2.946-1.22 4.162 4.162 0 0 1 0-5.892l10.762-10.767a4.17 4.17 0 0 0 0-5.891L58.85 23.787a4.162 4.162 0 0 1 0-5.892 4.162 4.162 0 0 1 5.891 0l10.763 10.767zM41.15 23.787a4.162 4.162 0 0 0 0-5.892 4.162 4.162 0 0 0-5.892 0L24.496 28.662c-4.875 4.875-4.875 12.8 0 17.675l10.762 10.767a4.155 4.155 0 0 0 2.946 1.22 4.155 4.155 0 0 0 2.946-1.22 4.162 4.162 0 0 0 0-5.892L30.387 40.445a4.17 4.17 0 0 1 0-5.891L41.15 23.787zM100 20.833v33.333C100 65.654 90.654 75 79.166 75h-25v8.334h16.667c2.3 0 4.167 1.862 4.167 4.166a4.165 4.165 0 0 1-4.167 4.167H29.167A4.165 4.165 0 0 1 25 87.5a4.165 4.165 0 0 1 4.167-4.166h16.666v-8.334h-25C9.346 75 0 65.654 0 54.166V20.833C0 9.345 9.346 0 20.833 0h58.333C90.654 0 100 9.345 100 20.833zm-8.334 0c0-6.892-5.608-12.5-12.5-12.5H20.833c-6.891 0-12.5 5.608-12.5 12.5v33.333c0 6.892 5.609 12.5 12.5 12.5h58.333c6.892 0 12.5-5.608 12.5-12.5V20.833z" fill="#E11D3C" fill-rule="nonzero"/></svg>
