<svg viewBox="0 0 92 100" xmlns="http://www.w3.org/2000/svg" fill-rule="evenodd" clip-rule="evenodd" stroke-linejoin="round" stroke-miterlimit="2"><path d="M58.333 25c2.286 0 4.167 1.88 4.167 4.167 0 2.285-1.88 4.166-4.167 4.166H25c-2.285 0-4.166-1.88-4.166-4.166C20.834 26.88 22.714 25 25 25h33.333zm32.113 73.779c-1.616 1.616-4.276 1.616-5.892 0l-10.029-10.03a18.572 18.572 0 0 1-9.942 2.917c-10.285 0-18.75-8.464-18.75-18.75 0-10.285 8.465-18.75 18.75-18.75 10.286 0 18.75 8.465 18.75 18.75a18.572 18.572 0 0 1-2.916 9.942l10.029 10.03c1.616 1.615 1.616 4.275 0 5.89zM64.583 83.333C70.298 83.333 75 78.631 75 72.916 75 67.202 70.298 62.5 64.583 62.5c-5.714 0-10.416 4.702-10.416 10.416 0 5.715 4.702 10.417 10.416 10.417zm-18.75 8.333h-25c-6.857 0-12.5-5.642-12.5-12.5V20.833c0-6.857 5.643-12.5 12.5-12.5h50C73.12 8.333 75 10.214 75 12.5v33.333C75 48.12 76.881 50 79.167 50c2.286 0 4.166-1.881 4.166-4.167V12.5c0-6.857-5.642-12.5-12.5-12.5h-50C9.41.014.015 9.41 0 20.833v58.333C.014 90.59 9.41 99.986 20.834 100h25C48.118 100 50 98.119 50 95.833c0-2.286-1.88-4.167-4.167-4.167z" fill="#E11D3C" fill-rule="nonzero"/></svg>
