<?xml version="1.0" encoding="UTF-8" standalone="no"?>
<!DOCTYPE svg PUBLIC "-//W3C//DTD SVG 1.1//EN" "http://www.w3.org/Graphics/SVG/1.1/DTD/svg11.dtd">
<svg width="100%" height="100%" viewBox="0 0 100 100" version="1.1" xmlns="http://www.w3.org/2000/svg" xmlns:xlink="http://www.w3.org/1999/xlink" xml:space="preserve" xmlns:serif="http://www.serif.com/" style="fill-rule:evenodd;clip-rule:evenodd;stroke-linejoin:round;stroke-miterlimit:2;">
    <g transform="matrix(1,0,0,1,558.422,-3311.39)">
        <g transform="matrix(0.195312,0,0,0.195312,-558.422,3311.39)">
            <path d="M277.333,234.667L448,234.667C483.285,234.667 512,205.952 512,170.667L512,106.667C512,71.381 483.285,42.667 448,42.667L392.832,42.667L362.667,12.501C354.603,4.437 343.893,0 332.501,0L277.333,0C242.048,0 213.333,28.715 213.333,64L213.333,106.667L42.667,106.667L42.667,21.333C42.667,9.536 33.109,0 21.333,0C9.557,0 0,9.536 0,21.333L0,320C0,378.816 47.851,426.667 106.667,426.667L213.333,426.667L213.333,448C213.333,483.285 242.048,512 277.333,512L448,512C483.285,512 512,483.285 512,448L512,384C512,348.715 483.285,320 448,320L392.832,320L362.667,289.835C354.603,281.771 343.893,277.333 332.501,277.333L277.333,277.333C242.048,277.333 213.333,306.048 213.333,341.333L213.333,384L106.667,384C71.381,384 42.667,355.285 42.667,320L42.667,149.333L213.333,149.333L213.333,170.667C213.333,205.952 242.048,234.667 277.333,234.667ZM256,341.333C256,329.557 265.579,320 277.333,320L332.501,320L362.667,350.165C370.731,358.229 381.44,362.667 392.832,362.667L448,362.667C459.755,362.667 469.333,372.224 469.333,384L469.333,448C469.333,459.776 459.755,469.333 448,469.333L277.333,469.333C265.579,469.333 256,459.776 256,448L256,341.333ZM256,64C256,52.224 265.579,42.667 277.333,42.667L332.501,42.667L362.667,72.832C370.731,80.896 381.44,85.333 392.832,85.333L448,85.333C459.755,85.333 469.333,94.891 469.333,106.667L469.333,170.667C469.333,182.443 459.755,192 448,192L277.333,192C265.579,192 256,182.443 256,170.667L256,64Z" style="fill:rgb(225,29,60);fill-rule:nonzero;"/>
        </g>
    </g>
</svg>
