<svg viewBox="0 0 100 100" xmlns="http://www.w3.org/2000/svg" fill-rule="evenodd" clip-rule="evenodd" stroke-linejoin="round" stroke-miterlimit="2"><path d="M50 .001c27.418.03 49.97 22.59 50 50 0 27.43-22.571 50-50 50s-50-22.57-50-50 22.571-50 50-50zm0 91.67c22.848-.02 41.642-18.82 41.667-41.67 0-22.85-18.809-41.66-41.667-41.66S8.333 27.151 8.333 50.001c0 22.86 18.809 41.67 41.667 41.67zm0-70.83c3.449 0 6.25 2.8 6.25 6.25s-2.801 6.25-6.25 6.25-6.25-2.8-6.25-6.25 2.801-6.25 6.25-6.25zm0 20.83c4.572 0 8.333 3.76 8.333 8.33v25c0 2.29-1.881 4.17-4.166 4.17-2.286 0-4.167-1.88-4.167-4.17v-25h-4.167c-2.285 0-4.166-1.88-4.166-4.16 0-2.29 1.881-4.17 4.166-4.17H50z" fill="#E11D3C"/></svg>
