<svg viewBox="0 0 100 100" xmlns="http://www.w3.org/2000/svg" fill-rule="evenodd" clip-rule="evenodd" stroke-linejoin="round" stroke-miterlimit="2"><path d="M75.002 49.996a4.168 4.168 0 0 1-8.333 0c0-2.3 1.867-4.166 4.166-4.166 2.3 0 4.167 1.866 4.167 4.166zm-45.83-29.164c2.3 0 4.167-1.863 4.167-4.167 0-4.595 3.737-8.332 8.332-8.332 4.596 0 8.333 3.737 8.333 8.332a4.165 4.165 0 0 0 4.166 4.167c2.3 0 4.166-1.863 4.166-4.167C58.336 7.475 50.862 0 41.671 0c-9.19 0-16.665 7.474-16.665 16.665a4.165 4.165 0 0 0 4.166 4.167zM100 54.162v8.333c0 4.608-3.117 7.412-6.533 8.14-2.754 6.892-7.8 12.712-14.3 16.474v.384c0 6.89-5.607 12.499-12.498 12.499-5.433 0-10.066-3.484-11.787-8.333h-9.761c-1.72 4.85-6.354 8.333-11.787 8.333-6.89 0-12.499-5.608-12.499-12.5v-.328C9.857 80.834 3.412 68.928 4.241 56.12a32.054 32.054 0 0 1 2.937-11.482C2.941 42.634 0 38.322 0 33.33c0-6.892 5.608-12.5 12.499-12.5 2.3 0 4.166 1.863 4.166 4.167a4.165 4.165 0 0 1-4.166 4.166 4.168 4.168 0 0 0-4.167 4.167 4.174 4.174 0 0 0 3.43 4.1c6.336-7.596 16.052-12.433 26.843-12.433h22.344c3.054-6.158 8.757-10.466 16.36-12.274a8.21 8.21 0 0 1 7.004 1.558 8.331 8.331 0 0 1 3.184 6.566v15.478a33.567 33.567 0 0 1 5.966 9.695c3.42.73 6.532 3.533 6.532 8.141H100zm-8.333 0h-1.225a4.166 4.166 0 0 1-3.991-2.979c-1.142-3.833-3.25-7.4-6.096-10.32a4.16 4.16 0 0 1-1.187-2.908V20.848c-4.062.967-9.437 3.458-11.516 9.729-.587 1.762-2.304 2.974-4.124 2.85-.284-.013-24.915-.092-24.915-.092-13.761 0-25.206 10.245-26.052 23.327-.667 10.286 4.92 19.798 14.236 24.227a4.165 4.165 0 0 1 2.375 3.762v2.846a4.17 4.17 0 0 0 4.167 4.166 4.17 4.17 0 0 0 4.166-4.166c0-2.3 1.866-4.167 4.166-4.167h16.665c2.3 0 4.167 1.863 4.167 4.167a4.168 4.168 0 0 0 4.166 4.166 4.17 4.17 0 0 0 4.166-4.166v-2.892c0-1.604.921-3.066 2.37-3.758 6.425-3.066 11.25-8.67 13.246-15.365a4.166 4.166 0 0 1 3.991-2.979h1.225v-8.341z" fill="#E11D3C" fill-rule="nonzero"/></svg>
