<svg viewBox="0 0 100 100" xmlns="http://www.w3.org/2000/svg" fill-rule="evenodd" clip-rule="evenodd" stroke-linejoin="round" stroke-miterlimit="2"><path d="M7.827 74.48A46.903 46.903 0 0 0 .181 91.142 7.235 7.235 0 0 0 0 92.754C0 96.73 3.27 100 7.246 100c.543 0 1.085-.061 1.615-.182a46.933 46.933 0 0 0 16.641-7.64 12.508 12.508 0 0 0 3.67-8.85c0-6.86-5.646-12.504-12.507-12.504a12.512 12.512 0 0 0-8.838 3.656zm11.784 11.785a41.959 41.959 0 0 1-10.834 4.932 42.077 42.077 0 0 1 4.934-10.831 4.169 4.169 0 0 1 2.894-1.17c2.286 0 4.167 1.88 4.167 4.166 0 1.08-.42 2.118-1.17 2.895l.009.008zM74.998 35.41c0 5.713-4.702 10.415-10.416 10.415-5.715 0-10.417-4.702-10.417-10.415 0-5.714 4.702-10.415 10.417-10.415 5.714 0 10.416 4.701 10.416 10.415zM87.382 0a64.576 64.576 0 0 0-51.409 25.02 46.113 46.113 0 0 0-19.037 4.846A33.753 33.753 0 0 0 1.01 45.138a12.32 12.32 0 0 0 1.041 11.665 12.549 12.549 0 0 0 10.504 5.687h10.359c7.985.038 14.545 6.596 14.583 14.58v10.357a12.546 12.546 0 0 0 5.68 10.503 12.326 12.326 0 0 0 11.666 1.041 33.753 33.753 0 0 0 15.275-15.922 46.09 46.09 0 0 0 4.846-19.035 64.64 64.64 0 0 0 25.033-51.516C99.978 5.635 94.325 0 87.461 0h-.08zM18.106 54.158h-5.55a4.17 4.17 0 0 1-3.541-1.92 3.96 3.96 0 0 1-.354-3.792 25.736 25.736 0 0 1 12.012-11.131 37.469 37.469 0 0 1 8.304-3 143.148 143.148 0 0 0-10.87 19.843zM62.69 79.312a25.75 25.75 0 0 1-11.13 12.01 3.967 3.967 0 0 1-3.795-.354 4.17 4.17 0 0 1-1.921-3.54v-5.55A143.187 143.187 0 0 0 65.69 71.009a37.46 37.46 0 0 1-3.013 8.303h.013zm.562-16.747a124.675 124.675 0 0 1-17.795 10.294c-1.731-9.291-9.041-16.6-18.334-18.33a124.635 124.635 0 0 1 10.3-17.777C51.457 17.181 65.998 8.944 87.498 8.332a4.185 4.185 0 0 1 4.167 4.05c-.613 21.612-8.85 36.152-28.425 50.183h.012z" fill="#E11D3C" fill-rule="nonzero"/></svg>
