<svg viewBox="0 0 84 100" xmlns="http://www.w3.org/2000/svg" fill-rule="evenodd" clip-rule="evenodd" stroke-linejoin="round" stroke-miterlimit="2"><path d="M69.086 8.92c8.491 2.82 14.254 10.81 14.246 19.76V50c0 31.51-38.333 48.91-39.974 49.64a4.156 4.156 0 0 1-3.384 0C38.333 98.91 0 81.51 0 50V28.68c-.008-8.95 5.755-16.94 14.245-19.76L40.349.21a4.235 4.235 0 0 1 2.634 0l26.103 8.71zM74.999 50V28.68a12.53 12.53 0 0 0-8.55-11.86L41.666 8.56l-24.783 8.26a12.53 12.53 0 0 0-8.55 11.86V50c0 22.79 26.321 37.65 33.333 41.2C48.67 87.64 74.999 72.73 74.999 50zM55.416 34.58a4.191 4.191 0 0 1 2.954-1.22c2.294 0 4.182 1.89 4.182 4.18 0 1.11-.442 2.18-1.228 2.96l-17.8 17.8a7.841 7.841 0 0 1-5.562 2.31h-.138a7.846 7.846 0 0 1-5.604-2.5l-9.608-10a4.186 4.186 0 0 1-1.237-2.97c0-2.28 1.881-4.16 4.167-4.16 1.169 0 2.285.49 3.074 1.35l9.35 9.75 17.45-17.5z" fill="#E11D3C"/></svg>
