<svg viewBox="0 0 100 100" xmlns="http://www.w3.org/2000/svg" fill-rule="evenodd" clip-rule="evenodd" stroke-linejoin="round" stroke-miterlimit="2"><path d="M24.756 50c-2.293 0-4.18-1.88-4.18-4.166 0-7.884 5.15-16.667 12.54-16.667 7.391 0 12.541 8.783 12.541 16.667 0 2.285-1.887 4.166-4.18 4.166-2.293 0-4.18-1.88-4.18-4.166 0-4.392-2.839-8.334-4.18-8.334-1.342 0-4.18 3.942-4.18 8.334 0 2.285-1.888 4.166-4.18 4.166zm41.802-20.833c-7.39 0-12.54 8.783-12.54 16.667 0 2.285 1.886 4.166 4.18 4.166 2.293 0 4.18-1.88 4.18-4.166 0-4.392 2.838-8.334 4.18-8.334 1.342 0 4.18 3.942 4.18 8.334 0 2.285 1.887 4.166 4.18 4.166 2.293 0 4.18-1.88 4.18-4.166 0-7.884-5.15-16.667-12.54-16.667zM99.999 50c-.03 27.418-22.655 49.97-50.162 50-66.465-2.5-66.436-97.5 0-100C77.344.03 99.97 22.582 100 50zm-8.36 0c-.025-22.848-18.88-41.642-41.802-41.667-55.379 2.084-55.366 81.25 0 83.334C72.76 91.642 91.614 72.848 91.64 50zm-21.783 8.434A64.56 64.56 0 0 1 49.837 62.5a64.558 64.558 0 0 1-20.065-4.066 4.196 4.196 0 0 0-.88-.094c-2.293 0-4.18 1.88-4.18 4.167 0 .798.23 1.58.663 2.252 5.005 8.778 14.333 14.273 24.462 14.408 10.117-.142 19.429-5.637 24.42-14.408a4.156 4.156 0 0 0 .664-2.253c0-2.286-1.887-4.167-4.18-4.167a4.19 4.19 0 0 0-.885.095z" fill="#E11D3C" fill-rule="nonzero"/></svg>
