<svg viewBox="0 0 100 100" xmlns="http://www.w3.org/2000/svg" fill-rule="evenodd" clip-rule="evenodd" stroke-linejoin="round" stroke-miterlimit="2"><path d="M0 83.333C0 92.525 7.475 100 16.667 100c9.192 0 16.667-7.475 16.667-16.667 0-7.75-5.321-14.284-12.5-16.139v-.529c0-6.892 5.608-12.5 12.5-12.5h33.333c4.687 0 9.016-1.559 12.5-4.176v17.205c-7.18 1.855-12.5 8.388-12.5 16.139 0 9.192 7.475 16.667 16.666 16.667C92.525 100 100 92.525 100 83.333c0-7.75-5.32-14.284-12.5-16.139V32.805c7.18-1.854 12.5-8.387 12.5-16.138C100 7.475 92.525 0 83.333 0c-9.191 0-16.666 7.475-16.666 16.667 0 7.75 5.32 14.284 12.5 16.138v.53c0 6.892-5.609 12.5-12.5 12.5H33.334c-11.488 0-20.834 9.346-20.834 20.834v.53C5.321 69.053 0 75.586 0 83.337v-.004zm91.667 0c0 4.596-3.738 8.333-8.334 8.333-4.595 0-8.333-3.737-8.333-8.333s3.738-8.334 8.333-8.334c4.596 0 8.334 3.738 8.334 8.334zM75 16.663c0-4.596 3.738-8.334 8.333-8.334 4.596 0 8.334 3.738 8.334 8.334s-3.738 8.334-8.334 8.334c-4.595 0-8.333-3.738-8.333-8.334zM16.667 74.999c4.596 0 8.333 3.738 8.333 8.334s-3.737 8.333-8.333 8.333-8.333-3.737-8.333-8.333 3.737-8.334 8.333-8.334z" fill="#E11D3C" fill-rule="nonzero"/></svg>
