<svg viewBox="0 0 100 100" xmlns="http://www.w3.org/2000/svg" fill-rule="evenodd" clip-rule="evenodd" stroke-linejoin="round" stroke-miterlimit="2"><path d="M99.9 50c0 27.583-22.394 50-49.95 50C22.394 100 0 77.583 0 50S22.394 0 49.95 0c3.039 0 6.119.292 9.074.833a4.157 4.157 0 0 1 3.33 4.834c-.416 2.25-2.58 3.75-4.828 3.333-2.456-.458-5.037-.667-7.576-.667C27.015 8.333 8.325 27.042 8.325 50c0 22.958 18.69 41.666 41.625 41.666S91.575 72.958 91.575 50c0-2.542-.25-5.084-.666-7.584a4.157 4.157 0 0 1 3.33-4.833 4.132 4.132 0 0 1 4.828 3.333c.542 2.959.833 6.042.833 9.084zM53.53 25.25c2.29.333 4.37-1.25 4.703-3.542.333-2.291-1.248-4.375-3.538-4.708a36.322 36.322 0 0 0-4.745-.333c-18.357 0-33.3 14.958-33.3 33.333s14.943 33.333 33.3 33.333S83.25 68.375 83.25 50a36.43 36.43 0 0 0-.333-4.75c-.333-2.292-2.414-3.875-4.704-3.542-2.29.333-3.87 2.417-3.538 4.708.167 1.167.25 2.375.25 3.584 0 13.791-11.197 25-24.975 25-13.778 0-24.975-11.209-24.975-25 0-13.792 11.197-25 24.975-25 1.207 0 2.414.083 3.58.25zM44.414 43.79c1.706-1.541 1.873-4.166.333-5.874-1.54-1.709-4.163-1.875-5.87-.334A16.687 16.687 0 0 0 33.343 50c0 9.208 7.45 16.666 16.65 16.666 4.745 0 9.24-2.041 12.404-5.541 1.54-1.709 1.374-4.334-.333-5.875-1.707-1.542-4.33-1.375-5.87.333-1.581 1.75-3.829 2.792-6.201 2.792-4.58 0-8.325-3.75-8.325-8.334 0-2.375.999-4.625 2.788-6.208l-.041-.042zm6.785-.916a4.152 4.152 0 0 0 0 5.875c.832.833 1.873 1.208 2.955 1.208s2.123-.417 2.955-1.208l19.606-19.625h10.78c1.125 0 2.165-.458 2.956-1.208l8.325-8.334a4.193 4.193 0 0 0 .916-4.541 4.173 4.173 0 0 0-3.83-2.584h-8.325V4.167c0-1.667-.999-3.209-2.58-3.834-1.582-.666-3.33-.291-4.538.917l-8.325 8.333a4.126 4.126 0 0 0-1.207 2.959v10.791L51.282 42.958l-.083-.083z" fill="#E11D3C" fill-rule="nonzero"/></svg>
