<svg viewBox="0 0 100 100" xmlns="http://www.w3.org/2000/svg" fill-rule="evenodd" clip-rule="evenodd" stroke-linejoin="round" stroke-miterlimit="2"><path d="M98.837 39.772C90.797 22.004 73.646 9.992 54.2 8.51V4.165C54.2 1.88 52.32 0 50.035 0S45.87 1.88 45.87 4.165v4.344C26.402 9.976 9.224 21.99 1.166 39.772a16.445 16.445 0 0 0 1.687 15.336 16.736 16.736 0 0 0 13.861 7.368H45.87v24.99c0 2.285-1.88 4.165-4.166 4.165-2.284 0-4.164-1.88-4.164-4.165s-1.88-4.165-4.165-4.165-4.166 1.88-4.166 4.165c0 6.855 5.64 12.495 12.495 12.495 6.855 0 12.496-5.64 12.496-12.495v-24.99h29.084a16.745 16.745 0 0 0 13.866-7.368 16.457 16.457 0 0 0 1.687-15.336zM90.253 50.44a8.308 8.308 0 0 1-6.969 3.707h-66.57a8.304 8.304 0 0 1-6.968-3.711 8.033 8.033 0 0 1-.833-7.572C14.97 27.68 32.267 16.66 50.035 16.66c17.607-.064 33.703 10.207 41.063 26.203a8.017 8.017 0 0 1-.845 7.576z" fill="#E11D3C" fill-rule="nonzero"/></svg>
