<svg viewBox="0 0 100 100" xmlns="http://www.w3.org/2000/svg" fill-rule="evenodd" clip-rule="evenodd" stroke-linejoin="round" stroke-miterlimit="2"><path d="M50 66.666c-9.143 0-16.667-7.523-16.667-16.666S40.857 33.333 50 33.333 66.666 40.857 66.666 50 59.143 66.666 50 66.666zm0-25c-4.572 0-8.334 3.762-8.334 8.334 0 4.571 3.762 8.333 8.334 8.333 4.571 0 8.333-3.762 8.333-8.333 0-4.572-3.762-8.334-8.333-8.334zm25 54.167c0-13.714-11.286-25-25-25-13.715 0-25 11.286-25 25C25 98.12 26.88 100 29.167 100c2.285 0 4.166-1.881 4.166-4.167 0-9.143 7.524-16.667 16.667-16.667s16.666 7.524 16.666 16.667c0 2.286 1.881 4.167 4.167 4.167C73.12 100 75 98.119 75 95.833zm0-62.5c-9.143 0-16.667-7.523-16.667-16.666S65.857 0 75 0s16.666 7.524 16.666 16.667S84.143 33.333 75 33.333zm0-25c-4.572 0-8.334 3.762-8.334 8.334C66.666 21.238 70.428 25 75 25c4.571 0 8.333-3.762 8.333-8.333 0-4.572-3.762-8.334-8.333-8.334zM100 62.5c-.014-13.71-11.29-24.986-25-25-2.286 0-4.167 1.88-4.167 4.166 0 2.286 1.881 4.167 4.167 4.167 9.143 0 16.666 7.524 16.666 16.667 0 2.286 1.881 4.166 4.167 4.166 2.286 0 4.167-1.88 4.167-4.166zM25 33.333c-9.143 0-16.667-7.523-16.667-16.666S15.857 0 25 0s16.666 7.524 16.666 16.667S34.143 33.333 25 33.333zm0-25c-4.572 0-8.333 3.762-8.333 8.334C16.667 21.238 20.428 25 25 25c4.571 0 8.333-3.762 8.333-8.333 0-4.572-3.762-8.334-8.333-8.334zM8.333 62.5c0-9.143 7.524-16.667 16.667-16.667 2.286 0 4.167-1.88 4.167-4.167 0-2.285-1.881-4.166-4.167-4.166-13.71.014-24.986 11.29-25 25 0 2.286 1.88 4.166 4.167 4.166 2.285 0 4.166-1.88 4.166-4.166z" fill="#E11D3C" fill-rule="nonzero"/></svg>
