<?xml version="1.0" encoding="UTF-8" standalone="no"?><!DOCTYPE svg PUBLIC "-//W3C//DTD SVG 1.1//EN" "http://www.w3.org/Graphics/SVG/1.1/DTD/svg11.dtd"><svg width="100%" height="100%" viewBox="0 0 100 68" version="1.1" xmlns="http://www.w3.org/2000/svg" xmlns:xlink="http://www.w3.org/1999/xlink" xml:space="preserve" xmlns:serif="http://www.serif.com/" style="fill-rule:evenodd;clip-rule:evenodd;stroke-linejoin:round;stroke-miterlimit:2;"><g transform="matrix(1,0,0,1,-428.233,-603.675)"><g transform="matrix(0.612245,0,0,0.612245,-7.18773,-259.202)"><path d="M736.86,1422.06C744.052,1414.38 753.688,1409.37 765.98,1409.37C781.617,1409.37 792.753,1415.78 799.164,1427C806.725,1416.85 817.941,1409.37 833.48,1409.37C847.444,1409.37 857.66,1413.66 864.443,1421.35C871.128,1428.93 874.521,1439.96 874.521,1453.95L874.521,1506.45C874.521,1511.41 873.113,1514.57 871.011,1516.57C868.863,1518.62 865.824,1519.57 862.021,1519.57L859.938,1519.57C856.169,1519.57 853.082,1518.63 850.883,1516.61C848.704,1514.6 847.23,1511.43 847.23,1506.45L847.23,1456.45C847.23,1448.89 845.788,1443.18 842.541,1439.4C839.442,1435.8 834.721,1434.16 828.48,1434.16C819.314,1434.16 811.086,1439.85 806.396,1448.33L806.396,1506.45C806.396,1511.41 804.988,1514.57 802.886,1516.57C800.738,1518.62 797.699,1519.57 793.896,1519.57L791.813,1519.57C788.044,1519.57 784.957,1518.63 782.758,1516.61C780.579,1514.6 779.105,1511.43 779.105,1506.45L779.105,1457.28C779.105,1449.4 777.652,1443.46 774.384,1439.55C771.292,1435.84 766.582,1434.16 760.355,1434.16C751.205,1434.16 742.986,1439.83 738.48,1448.3L738.48,1506.45C738.48,1511.43 736.952,1514.6 734.774,1516.61C732.554,1518.65 729.502,1519.57 725.98,1519.57L723.688,1519.57C719.885,1519.57 716.846,1518.62 714.698,1516.57C712.596,1514.57 711.188,1511.41 711.188,1506.45L711.188,1416.45C711.188,1415.72 711.449,1414.4 712.89,1413.31C714.161,1412.35 717.727,1410.82 722.021,1410.82C725.772,1410.82 729.56,1411.84 732.607,1414.82C734.304,1416.48 735.807,1418.81 736.86,1422.06Z" style="fill:rgb(226,28,60);"/></g></g></svg>