<svg viewBox="0 0 100 26" xmlns="http://www.w3.org/2000/svg" fill-rule="evenodd" clip-rule="evenodd" stroke-linejoin="round" stroke-miterlimit="2"><path d="M11.522-.004c6.359 0 11.522 5.163 11.522 11.523 0 6.359-5.163 11.522-11.522 11.522-6.36 0-11.523-5.163-11.523-11.522 0-6.36 5.163-11.523 11.523-11.523zm0 5.27a6.255 6.255 0 0 1 6.25 6.253 6.254 6.254 0 0 1-6.25 6.251 6.254 6.254 0 0 1-6.252-6.251 6.255 6.255 0 0 1 6.252-6.252z" fill="#1796C7"/><path d="M17.773-.004h5.27V23.04h-5.27z"/><g fill="#080605" fill-rule="nonzero"><path d="M31.21 12.72l4.742 10.167H34.86l-1.597-3.346h-4.382l-1.59 3.346h-1.133l4.804-10.167h.249zm-.124 2.156l-1.748 3.684h3.476l-1.728-3.684zM37.369 15.367h.967v1.348c.387-.516.816-.902 1.286-1.158.47-.256.981-.384 1.534-.384.563 0 1.061.143 1.497.429.435.285.757.67.964 1.154.207.484.31 1.237.31 2.26v3.87h-.96V19.3c0-.867-.037-1.445-.11-1.735-.116-.498-.332-.872-.65-1.123s-.733-.377-1.244-.377c-.585 0-1.11.194-1.573.58a2.72 2.72 0 0 0-.915 1.438c-.092.373-.139 1.055-.139 2.046v2.758h-.967v-7.52zM45.193 15.367h1.023l2.585 5.792 2.508-5.792h1.03l-4.485 10.27H46.83l1.451-3.317-3.09-6.953zM52.574 15.367h.996l2.301 5.46 2.412-5.46h.173l2.405 5.46 2.343-5.46h1.01l-3.263 7.52h-.186l-2.392-5.385-2.412 5.385h-.18l-3.207-7.52zM65.354 12.464h.968v4.25c.391-.515.822-.901 1.292-1.157.47-.256.98-.384 1.527-.384.562 0 1.061.143 1.497.429.435.285.757.669.964 1.15.207.482.311 1.237.311 2.264v3.87h-.968V19.3c0-.867-.034-1.445-.104-1.735-.12-.498-.337-.872-.653-1.123-.315-.251-.729-.377-1.24-.377-.585 0-1.11.194-1.573.58a2.72 2.72 0 0 0-.915 1.438c-.093.369-.138 1.05-.138 2.046v2.758h-.968V12.464zM80.317 20.391l.816.43c-.267.524-.576.948-.926 1.27-.35.323-.744.569-1.182.737a4.12 4.12 0 0 1-1.486.252c-1.226 0-2.184-.402-2.875-1.206-.691-.804-1.037-1.713-1.037-2.726 0-.954.293-1.804.878-2.55.741-.95 1.735-1.425 2.979-1.425 1.28 0 2.303.487 3.068 1.459.544.686.82 1.543.83 2.57h-6.76c.019.876.298 1.594.837 2.154.539.56 1.204.84 1.997.84.383 0 .755-.067 1.116-.201.362-.134.67-.31.923-.532.253-.221.527-.578.822-1.072zm0-2.025c-.129-.516-.316-.928-.563-1.237a2.661 2.661 0 0 0-.978-.746 2.995 2.995 0 0 0-1.279-.284c-.737 0-1.37.238-1.9.712-.387.346-.68.864-.878 1.555h5.598zM82.82 15.367h.988v1.099c.295-.433.605-.757.933-.971a1.84 1.84 0 0 1 1.023-.322c.267 0 .552.086.857.256l-.505.816a1.347 1.347 0 0 0-.511-.132c-.323 0-.634.133-.933.398-.3.265-.528.676-.685 1.234-.12.428-.18 1.294-.18 2.598v2.544h-.988v-7.52zM93.774 20.391l.816.43c-.268.524-.576.948-.926 1.27a3.68 3.68 0 0 1-1.182.737 4.12 4.12 0 0 1-1.486.252c-1.226 0-2.184-.402-2.875-1.206-.692-.804-1.037-1.713-1.037-2.726 0-.954.292-1.804.878-2.55.741-.95 1.734-1.425 2.979-1.425 1.28 0 2.303.487 3.068 1.459.544.686.82 1.543.83 2.57h-6.76c.018.876.297 1.594.836 2.154.54.56 1.205.84 1.998.84.382 0 .754-.067 1.116-.201.362-.134.67-.31.923-.532.253-.221.527-.578.822-1.072zm0-2.025c-.129-.516-.317-.928-.563-1.237a2.665 2.665 0 0 0-.978-.746 2.994 2.994 0 0 0-1.279-.284c-.737 0-1.37.238-1.9.712-.388.346-.68.864-.878 1.555h5.598z"/></g><g fill="#1796C7"><path d="M32.342 3.08h1.921v7.685h-1.921v-.813c-.377.358-.755.616-1.134.774-.379.158-.79.236-1.232.236-.994 0-1.853-.385-2.578-1.154-.725-.77-1.088-1.727-1.088-2.872 0-1.186.351-2.158 1.053-2.917.701-.757 1.553-1.136 2.556-1.136.462 0 .895.087 1.3.26.405.175.78.436 1.123.785V3.08zm-2.027 1.582c-.598 0-1.095.21-1.49.632-.396.422-.594.962-.594 1.621 0 .664.202 1.21.604 1.639a1.96 1.96 0 0 0 1.487.643c.607 0 1.111-.211 1.511-.632.4-.422.6-.974.6-1.657 0-.668-.2-1.21-.6-1.624-.4-.415-.906-.622-1.518-.622zM36.008.114h1.928v10.65h-1.928zM41.594 3.08v.848c.349-.349.725-.61 1.13-.784a3.254 3.254 0 0 1 1.3-.261c1.003 0 1.855.379 2.557 1.136.701.759 1.052 1.731 1.052 2.917 0 1.145-.363 2.102-1.088 2.872-.725.77-1.584 1.154-2.578 1.154a3.2 3.2 0 0 1-1.236-.236c-.381-.158-.76-.416-1.137-.774v3.624H39.68V3.08h1.914zm2.027 1.582c-.607 0-1.111.207-1.511.622-.4.414-.6.956-.6 1.624 0 .683.2 1.235.6 1.657.4.42.904.632 1.511.632a1.96 1.96 0 0 0 1.487-.643c.403-.429.604-.975.604-1.639 0-.659-.198-1.2-.593-1.62-.396-.422-.895-.633-1.498-.633zM49.236.114h1.914v3.743a4.386 4.386 0 0 1 1.138-.73 2.929 2.929 0 0 1 1.158-.244c.763 0 1.405.263 1.928.79.447.457.671 1.128.671 2.013v5.079h-1.9v-3.37c0-.89-.042-1.492-.127-1.808-.085-.315-.23-.55-.434-.706a1.22 1.22 0 0 0-.76-.233c-.39 0-.726.13-1.006.389s-.475.612-.583 1.059c-.056.23-.085.758-.085 1.582v3.087h-1.914V.114zM63.588 3.08h1.921v7.685h-1.921v-.813c-.377.358-.754.616-1.133.774-.38.158-.79.236-1.233.236-.994 0-1.853-.385-2.578-1.154-.725-.77-1.088-1.727-1.088-2.872 0-1.186.351-2.158 1.053-2.917.701-.757 1.554-1.136 2.556-1.136.462 0 .895.087 1.3.26.405.175.78.436 1.123.785V3.08zm-2.027 1.582c-.598 0-1.095.21-1.49.632-.396.422-.594.962-.594 1.621 0 .664.202 1.21.604 1.639a1.96 1.96 0 0 0 1.487.643c.607 0 1.111-.211 1.511-.632.4-.422.6-.974.6-1.657 0-.668-.2-1.21-.6-1.624-.4-.415-.906-.622-1.518-.622z"/></g><g fill="#231F20" fill-rule="nonzero"><path d="M95.376 12.906v-.253h1.43v.253h-.581v2.353h-.266v-2.353h-.583zM97.06 15.259l.371-2.606h.043l1.06 2.138 1.048-2.138h.043l.373 2.606h-.257l-.255-1.864-.92 1.864H98.5l-.934-1.878-.254 1.878h-.251z"/></g></svg>
