<svg viewBox="0 0 100 24" xmlns="http://www.w3.org/2000/svg" fill-rule="evenodd" clip-rule="evenodd" stroke-linejoin="round" stroke-miterlimit="2"><path d="M11.76.012c6.49 0 11.76 5.27 11.76 11.76s-5.27 11.76-11.76 11.76S0 18.262 0 11.772 5.27.012 11.76.012zm0 5.38c3.522 0 6.38 2.859 6.38 6.38a6.383 6.383 0 0 1-6.38 6.38 6.383 6.383 0 0 1-6.38-6.38 6.383 6.383 0 0 1 6.38-6.38z" fill="#25B48E"/><path d="M18.14.012h5.38v23.52h-5.38z"/><g fill="#080605" fill-rule="nonzero"><path d="M26.585 14.006v-1.008h5.692v1.008h-2.313v9.368h-1.058v-9.368h-2.321zM33.23 15.7h1.008v1.12c.301-.441.619-.772.953-.99a1.878 1.878 0 0 1 1.043-.328c.273 0 .565.087.875.26l-.515.833c-.207-.09-.38-.134-.522-.134-.33 0-.646.135-.952.406-.306.27-.539.69-.698 1.259-.123.437-.184 1.321-.184 2.652v2.596H33.23v-7.675zM45.595 15.7v7.674h-.973v-1.32c-.414.504-.879.882-1.394 1.136a3.766 3.766 0 0 1-1.689.381c-1.086 0-2.014-.394-2.783-1.181-.769-.788-1.153-1.746-1.153-2.875 0-1.105.388-2.05 1.164-2.835.776-.786 1.71-1.178 2.8-1.178.63 0 1.2.134 1.71.402.511.268.959.67 1.345 1.206V15.7h.973zm-3.95.754A2.981 2.981 0 0 0 39.01 18a3.119 3.119 0 0 0 .004 3.103c.277.494.65.879 1.118 1.154.468.275.97.412 1.506.412.54 0 1.053-.136 1.538-.409a2.86 2.86 0 0 0 1.117-1.107c.262-.466.392-.99.392-1.573 0-.889-.293-1.632-.878-2.23-.586-.596-1.306-.895-2.162-.895zM47.817 15.7h.987v1.375c.395-.527.833-.92 1.312-1.182a3.222 3.222 0 0 1 1.566-.391c.574 0 1.083.145 1.528.437.444.292.772.684.984 1.178.211.494.317 1.263.317 2.307v3.95h-.98v-3.661c0-.884-.038-1.474-.113-1.77-.118-.509-.339-.89-.664-1.147-.324-.256-.747-.384-1.269-.384-.598 0-1.132.197-1.605.592a2.778 2.778 0 0 0-.935 1.467c-.094.381-.14 1.077-.14 2.088v2.815h-.988v-7.675zM60.486 16.539l-.635.656c-.527-.513-1.042-.77-1.545-.77-.32 0-.594.107-.822.318-.228.212-.342.459-.342.74 0 .25.094.488.282.713.188.23.583.501 1.185.811.734.381 1.232.748 1.495 1.1.26.358.388.76.388 1.207 0 .63-.22 1.164-.663 1.601-.442.438-.994.656-1.657.656a2.89 2.89 0 0 1-1.266-.289 2.752 2.752 0 0 1-.998-.797l.62-.705c.503.569 1.037.853 1.602.853a1.44 1.44 0 0 0 1.008-.38c.278-.255.416-.553.416-.897a1.15 1.15 0 0 0-.275-.754c-.183-.217-.597-.49-1.241-.819-.691-.357-1.162-.71-1.411-1.058a1.998 1.998 0 0 1-.374-1.192c0-.583.199-1.067.596-1.453.398-.385.9-.578 1.506-.578.706 0 1.416.345 2.13 1.037zM62.397 12.998h5.199v1.023h-4.169v3.244h4.169v1.023h-4.169v5.086h-1.03V12.998zM72.872 15.502c1.18 0 2.159.428 2.934 1.284.706.78 1.058 1.704 1.058 2.772 0 1.072-.372 2.009-1.118 2.81-.745.802-1.703 1.203-2.874 1.203-1.176 0-2.136-.4-2.881-1.202-.746-.802-1.119-1.739-1.119-2.811a3.99 3.99 0 0 1 1.058-2.766c.776-.86 1.757-1.29 2.942-1.29zm0 .966c-.818 0-1.521.303-2.11.91-.587.607-.881 1.34-.881 2.2 0 .556.134 1.073.402 1.553s.63.85 1.087 1.11a2.97 2.97 0 0 0 1.502.392 2.97 2.97 0 0 0 1.502-.391c.457-.261.819-.632 1.087-1.111.268-.48.402-.997.402-1.552 0-.86-.295-1.594-.885-2.2-.59-.608-1.292-.911-2.106-.911zM78.325 15.7h1.008v1.12c.301-.441.619-.772.952-.99a1.878 1.878 0 0 1 1.044-.328c.273 0 .565.087.875.26l-.515.833c-.207-.09-.38-.134-.522-.134-.329 0-.646.135-.952.406-.306.27-.539.69-.698 1.259-.123.437-.184 1.321-.184 2.652v2.596h-1.008v-7.675zM83.037 15.7h.98v1.325c.343-.489.696-.846 1.058-1.072a2.997 2.997 0 0 1 1.573-.451c.371 0 .724.073 1.058.218.334.146.607.34.818.582.212.243.395.59.55 1.04.33-.601.741-1.058 1.235-1.371a2.925 2.925 0 0 1 1.594-.47c.531 0 1 .135 1.407.403a2.4 2.4 0 0 1 .907 1.121c.197.48.296 1.2.296 2.159v4.19h-1.009v-4.19c0-.823-.058-1.389-.176-1.697a1.528 1.528 0 0 0-.603-.744c-.284-.188-.624-.282-1.02-.282-.48 0-.917.141-1.315.423a2.436 2.436 0 0 0-.871 1.129c-.184.47-.275 1.256-.275 2.356v3.005h-.98v-3.93c0-.925-.058-1.554-.174-1.886a1.577 1.577 0 0 0-.603-.797c-.286-.2-.627-.3-1.022-.3-.457 0-.883.138-1.28.413a2.442 2.442 0 0 0-.882 1.11c-.19.466-.286 1.179-.286 2.138v3.252h-.98v-7.675z"/></g><g fill="#25B48E"><path d="M33.009 3.16h1.96v7.842h-1.96v-.829c-.385.366-.77.629-1.157.79a3.237 3.237 0 0 1-1.258.241c-1.014 0-1.89-.393-2.631-1.178-.74-.786-1.11-1.763-1.11-2.93 0-1.211.358-2.204 1.074-2.978.716-.773 1.586-1.16 2.61-1.16.47 0 .912.089 1.326.267.413.177.795.444 1.146.8V3.16zm-2.07 1.614c-.61 0-1.116.215-1.52.645-.404.43-.606.982-.606 1.655 0 .677.206 1.235.617 1.672a2 2 0 0 0 1.517.656c.62 0 1.134-.215 1.543-.645.408-.43.613-.994.613-1.69 0-.683-.205-1.235-.613-1.658-.409-.423-.925-.635-1.55-.635zM36.75.132h1.968v10.87H36.75zM42.452 3.16v.865c.355-.356.74-.623 1.153-.8a3.321 3.321 0 0 1 1.326-.267c1.024 0 1.893.387 2.61 1.16.715.774 1.074 1.767 1.074 2.977 0 1.168-.37 2.145-1.11 2.93-.74.786-1.618 1.179-2.631 1.179-.452 0-.873-.08-1.262-.242-.39-.16-.776-.423-1.16-.789v3.698h-1.954V3.16h1.954zm2.068 1.614c-.62 0-1.134.212-1.542.635-.409.423-.613.975-.613 1.658 0 .696.204 1.26.613 1.69.408.43.922.645 1.542.645a2 2 0 0 0 1.518-.656c.41-.437.616-.995.616-1.672 0-.673-.202-1.224-.606-1.655-.403-.43-.913-.645-1.528-.645zM50.25.132h1.954v3.82c.385-.33.771-.58 1.16-.745.39-.166.784-.249 1.183-.249.778 0 1.434.269 1.968.807.456.466.685 1.151.685 2.055v5.182h-1.94V7.564c0-.908-.043-1.523-.13-1.845-.086-.322-.233-.563-.442-.721-.21-.159-.468-.238-.775-.238a1.46 1.46 0 0 0-1.028.396c-.285.265-.484.625-.594 1.082-.058.235-.087.773-.087 1.614v3.15h-1.953V.132zM64.898 3.16h1.96v7.842h-1.96v-.829c-.385.366-.77.629-1.157.79a3.239 3.239 0 0 1-1.258.241c-1.014 0-1.89-.393-2.631-1.178-.74-.786-1.11-1.763-1.11-2.93 0-1.211.358-2.204 1.074-2.978.716-.773 1.586-1.16 2.61-1.16.47 0 .912.089 1.326.267.413.177.795.444 1.146.8V3.16zm-2.069 1.614c-.61 0-1.117.215-1.52.645-.404.43-.606.982-.606 1.655 0 .677.205 1.235.616 1.672a2 2 0 0 0 1.517.656c.62 0 1.134-.215 1.543-.645.408-.43.612-.994.612-1.69 0-.683-.204-1.235-.612-1.658-.409-.423-.925-.635-1.55-.635z"/></g><g fill="#231F20" fill-rule="nonzero"><path d="M95.283 13.188v-.259h1.459v.259h-.593v2.4h-.272v-2.4h-.594zM97.002 15.589l.378-2.66h.043l1.082 2.182 1.07-2.182h.044l.381 2.66h-.262l-.26-1.902-.94 1.902h-.068l-.953-1.917-.258 1.917h-.257z"/></g></svg>
