<svg viewBox="0 0 100 26" xmlns="http://www.w3.org/2000/svg" fill-rule="evenodd" clip-rule="evenodd" stroke-linejoin="round" stroke-miterlimit="2"><path d="M12.938.001c7.14 0 12.936 5.797 12.936 12.936 0 7.14-5.797 12.937-12.936 12.937-7.14 0-12.936-5.797-12.936-12.937S5.798.001 12.938.001zm0 5.918a7.022 7.022 0 0 1 7.018 7.018 7.021 7.021 0 0 1-7.018 7.019 7.021 7.021 0 0 1-7.019-7.019 7.022 7.022 0 0 1 7.019-7.018z" fill="#3457A7"/><path d="M19.956 0h5.917v25.873h-5.917z"/><path d="M29.198 23.574l.97-.582c.683 1.257 1.472 1.885 2.367 1.885.383 0 .742-.089 1.079-.267a1.9 1.9 0 0 0 .768-.718c.176-.3.264-.618.264-.955 0-.382-.13-.757-.388-1.125-.357-.507-1.009-1.117-1.956-1.83-.952-.72-1.544-1.24-1.777-1.56-.403-.538-.605-1.12-.605-1.746 0-.497.12-.95.357-1.358.238-.409.573-.73 1.005-.966a2.898 2.898 0 0 1 1.408-.354 3 3 0 0 1 1.51.4c.468.267.963.757 1.486 1.47l-.932.707c-.429-.57-.795-.945-1.098-1.125a1.89 1.89 0 0 0-.99-.272c-.46 0-.836.14-1.128.42a1.367 1.367 0 0 0-.438 1.031c0 .248.052.489.155.722.103.233.292.486.566.76.15.145.642.525 1.475 1.14.988.73 1.665 1.38 2.032 1.948.368.57.551 1.14.551 1.715 0 .828-.314 1.547-.942 2.157-.629.61-1.393.916-2.293.916a3.362 3.362 0 0 1-1.886-.555c-.563-.37-1.083-.99-1.56-1.858zM42.11 17.04c1.299 0 2.375.471 3.228 1.412.776.86 1.164 1.876 1.164 3.05 0 1.18-.41 2.21-1.23 3.092-.82.882-1.874 1.323-3.162 1.323-1.293 0-2.35-.44-3.17-1.323-.82-.882-1.23-1.913-1.23-3.092 0-1.17.389-2.183 1.165-3.042.853-.946 1.932-1.42 3.235-1.42zm0 1.063c-.9 0-1.673.334-2.32 1.001-.646.667-.97 1.474-.97 2.421 0 .61.148 1.18.442 1.707a3.14 3.14 0 0 0 1.195 1.222 3.263 3.263 0 0 0 1.653.431c.6 0 1.151-.143 1.653-.43.502-.288.9-.695 1.195-1.223a3.441 3.441 0 0 0 .442-1.707c0-.947-.324-1.754-.974-2.42-.649-.668-1.42-1.002-2.316-1.002zm9.886-4.105v1.064c-.398-.171-.74-.257-1.024-.257a.999.999 0 0 0-.528.129c-.14.085-.228.183-.264.294-.036.112-.054.408-.054.889v1.14h1.761v.932h-1.769v7.51h-1.086v-7.51h-1.11v-.932h1.11v-1.319c0-.605.055-1.037.167-1.295.11-.259.3-.467.566-.625.266-.158.588-.237.966-.237.352 0 .774.073 1.265.217zm2.46.125h1.094v3.134h1.722v.932H55.55v7.51h-1.094v-7.51h-1.482v-.932h1.482v-3.134zm3.297 3.134h1.118l2.584 6.13 2.708-6.13h.194l2.7 6.13 2.63-6.13h1.133L67.158 25.7h-.21l-2.684-6.045-2.709 6.045h-.201l-3.6-8.443zm22.759 0V25.7H79.44v-1.451c-.455.553-.966.97-1.532 1.25a4.145 4.145 0 0 1-1.859.418c-1.195 0-2.215-.433-3.061-1.3-.846-.866-1.269-1.92-1.269-3.162 0-1.215.427-2.255 1.28-3.119.854-.864 1.881-1.296 3.081-1.296.693 0 1.32.148 1.882.442.561.295 1.054.738 1.478 1.327v-1.552h1.07zm-4.345.83a3.278 3.278 0 0 0-2.899 1.7 3.43 3.43 0 0 0-.454 1.707c0 .595.153 1.164.458 1.707.306.543.715.966 1.23 1.269a3.214 3.214 0 0 0 1.657.454c.595 0 1.158-.15 1.691-.45.533-.3.943-.706 1.23-1.219.287-.512.43-1.088.43-1.73 0-.977-.321-1.795-.965-2.452-.644-.657-1.437-.985-2.378-.985zm6.378-.83h1.11v1.234c.33-.486.68-.85 1.047-1.09.367-.24.75-.36 1.148-.36.3 0 .621.095.963.286l-.567.916c-.228-.098-.419-.147-.574-.147-.362 0-.711.148-1.048.446-.336.297-.592.759-.768 1.385-.134.48-.202 1.453-.202 2.917V25.7h-1.11v-8.443zm12.298 5.642l.916.48c-.3.59-.646 1.066-1.04 1.428a4.131 4.131 0 0 1-1.326.827c-.492.189-1.048.283-1.669.283-1.376 0-2.452-.451-3.228-1.354-.776-.903-1.163-1.923-1.163-3.061 0-1.07.328-2.025.985-2.863.833-1.066 1.947-1.599 3.344-1.599 1.438 0 2.587.546 3.445 1.638.61.77.921 1.732.931 2.886H88.45c.02.983.333 1.788.939 2.417.605.629 1.352.943 2.242.943.43 0 .847-.075 1.253-.225.406-.15.752-.35 1.036-.598.285-.248.593-.649.923-1.202zm0-2.274c-.144-.58-.355-1.042-.632-1.389a2.992 2.992 0 0 0-1.098-.838 3.36 3.36 0 0 0-1.435-.318c-.828 0-1.54.266-2.134.8-.435.387-.763.97-.986 1.745h6.285z" fill="#231F20" fill-rule="nonzero"/><path d="M36.312 3.464h2.157v8.627h-2.157v-.912c-.423.402-.847.691-1.273.868a3.561 3.561 0 0 1-1.383.266c-1.116 0-2.08-.432-2.895-1.296-.814-.865-1.22-1.94-1.22-3.224 0-1.332.393-2.423 1.18-3.275.788-.85 1.745-1.276 2.87-1.276.519 0 1.005.098 1.46.293.455.196.875.49 1.26.88v-.951zM34.036 5.24c-.671 0-1.23.236-1.673.71-.444.473-.666 1.08-.666 1.82 0 .745.226 1.358.678 1.839a2.2 2.2 0 0 0 1.669.722c.682 0 1.247-.237 1.697-.71.45-.473.674-1.093.674-1.86 0-.75-.225-1.358-.674-1.823-.45-.465-1.018-.698-1.705-.698zM40.427.133h2.165v11.958h-2.165zM46.7 3.464v.951a4.069 4.069 0 0 1 1.268-.88c.454-.195.94-.293 1.459-.293 1.126 0 2.083.425 2.87 1.276.788.852 1.182 1.943 1.182 3.275 0 1.285-.408 2.36-1.221 3.224-.815.864-1.78 1.296-2.895 1.296-.497 0-.959-.089-1.387-.266-.428-.177-.854-.466-1.277-.868v4.068H44.55V3.464h2.15zm2.275 1.776c-.682 0-1.248.233-1.697.698-.45.465-.674 1.073-.674 1.824 0 .766.224 1.386.674 1.859.45.473 1.015.71 1.697.71a2.2 2.2 0 0 0 1.669-.722c.452-.481.678-1.094.678-1.84 0-.74-.222-1.346-.666-1.82-.444-.473-1.005-.709-1.681-.709zM55.279.133h2.148v4.203a4.925 4.925 0 0 1 1.277-.82 3.288 3.288 0 0 1 1.3-.274c.857 0 1.578.296 2.165.888.502.513.753 1.266.753 2.26v5.701H60.79V8.309c0-1-.047-1.676-.142-2.03-.095-.354-.258-.619-.488-.793-.23-.175-.514-.262-.852-.262-.44 0-.816.146-1.13.436-.315.291-.533.688-.654 1.19-.064.259-.096.85-.096 1.776v3.465H55.28V.133zM71.39 3.464h2.158v8.627H71.39v-.912c-.423.402-.847.691-1.273.868a3.563 3.563 0 0 1-1.384.266c-1.115 0-2.08-.432-2.894-1.296-.814-.865-1.22-1.94-1.22-3.224 0-1.332.393-2.423 1.18-3.275.788-.85 1.745-1.276 2.871-1.276.518 0 1.004.098 1.46.293.454.196.874.49 1.26.88v-.951zM69.116 5.24c-.671 0-1.229.236-1.673.71-.444.473-.666 1.08-.666 1.82 0 .745.226 1.358.678 1.839a2.2 2.2 0 0 0 1.67.722c.681 0 1.247-.237 1.696-.71.45-.473.674-1.093.674-1.86 0-.75-.225-1.358-.674-1.823-.45-.465-1.018-.698-1.705-.698z" fill="#3857A7"/><path d="M100.002 15.624c0 .282-.07.542-.21.783-.138.24-.33.431-.572.572a1.53 1.53 0 0 1-.78.21c-.277 0-.537-.07-.78-.21a1.542 1.542 0 0 1-.573-.57 1.55 1.55 0 0 1 0-1.56c.14-.244.33-.436.573-.575a1.54 1.54 0 0 1 .78-.209c.279 0 .538.07.779.208.24.138.431.33.572.574.14.244.21.503.21.777zm-.217.002c0-.238-.06-.463-.181-.673a1.333 1.333 0 0 0-1.16-.677 1.338 1.338 0 0 0-1.17.677c-.12.21-.18.436-.18.677 0 .24.06.464.18.673.12.208.285.372.496.493a1.336 1.336 0 0 0 1.835-.494c.12-.208.18-.433.18-.676zm-1.995-.91h.75c.175 0 .3.017.378.052.077.035.14.093.188.172.048.08.072.173.072.279a.51.51 0 0 1-.051.236.514.514 0 0 1-.173.161c.08.04.135.086.163.139a.62.62 0 0 1 .041.27v.202c0 .096.022.175.064.239l.03.048h-.318a1.48 1.48 0 0 1-.042-.265l-.014-.22a.393.393 0 0 0-.039-.172.173.173 0 0 0-.087-.071.747.747 0 0 0-.226-.022h-.452v.75h-.284v-1.799zm.284.258v.533h.442c.134 0 .225-.015.272-.046.07-.043.106-.118.106-.222 0-.092-.025-.159-.076-.201-.05-.043-.145-.064-.284-.064h-.46z" fill="#231F20" fill-rule="nonzero"/></svg>
