<svg viewBox="0 0 100 26" xmlns="http://www.w3.org/2000/svg" fill-rule="evenodd" clip-rule="evenodd" stroke-linejoin="round" stroke-miterlimit="2"><path d="M12.519 11.171v7.649c.034 3.451-2.775 6.26-6.26 6.26-3.433-.004-6.257-2.827-6.261-6.26h2.2c.007 2.225 1.835 4.053 4.06 4.06 2.225-.007 4.054-1.835 4.061-4.06v-2.866a6.27 6.27 0 0 1-4.06 1.478H3.585v-2.2h2.674c2.225-.007 4.053-1.835 4.06-4.06v-3.52h2.2v3.52-.001zM2.198 17.432h-2.2V6.265C.002 2.832 2.825.008 6.258.004c3.433.004 6.257 2.827 6.261 6.26h-2.2c-.007-2.225-1.835-4.053-4.06-4.06-2.225.007-4.054 1.835-4.061 4.06v2.888a6.231 6.231 0 0 1 4.06-1.5h2.674v2.2H6.259c-2.225.007-4.054 1.835-4.061 4.06v3.52z" fill="#29B9A8" fill-rule="nonzero"/><path d="M64.093 25.148h-.068a6.4 6.4 0 0 1-2.741-.643c-.034 0-.034-.034-.068-.034s-.067-.034-.101-.034a6.12 6.12 0 0 1-1.32-.913 7.132 7.132 0 0 1-.677-.745l2.031-1.015v.034c.643.643 1.522 1.252 2.944 1.252.913 0 1.658-.271 2.098-.812.474-.474.643-1.151.643-2.37v-.541l-.169.136c-.779.609-1.591.879-2.572.879-1.422 0-2.775-.61-3.655-1.624-.778-.914-1.218-2.098-1.218-3.384 0-2.81 2.064-5.008 4.704-5.008 1.049 0 2.03.338 2.808.98l.17.136v-.913h2.335v9.103c0 1.658-.271 2.707-.88 3.587-.88 1.218-2.437 1.929-4.264 1.929zm14.179-8.02c-.507.744-1.354 1.286-2.335 1.286-1.489 0-2.606-.982-2.775-2.403v-.102h6.87v-.643c0-2.741-1.997-4.907-4.535-4.907-2.673 0-4.67 2.166-4.67 5.009 0 2.91 1.997 4.94 4.907 5.008a4.808 4.808 0 0 0 4.264-2.707l-1.726-.541zm13.198 3.01h-2.403v-.811l-.169.136c-.778.609-1.59.879-2.572.879a4.974 4.974 0 0 1-3.655-1.624c-.778-.914-1.218-2.098-1.218-3.384 0-2.81 2.064-5.008 4.704-5.008 1.049 0 2.031.338 2.809.98l.169.136v-.913h2.335v9.61-.001zm-48.189-4.804c0 2.91-2.2 5.008-5.212 5.008-3.012 0-5.245-2.131-5.245-5.008 0-2.876 2.199-5.008 5.245-5.008 3.012 0 5.212 2.132 5.212 5.008zM24.16 20.173h-2.436v-7.614h-2.538v-2.03h2.538v-.508c0-1.455.304-2.437 1.015-3.113.745-.711 1.794-1.117 2.978-1.117.406 0 .745 0 1.049.068v2.098a4.664 4.664 0 0 0-.677-.068c-.676 0-1.218.203-1.556.609-.237.305-.373.677-.373 1.625v.406h2.742v2.03H24.16v7.614zm7.073-.034h-2.436V5.959h2.436v14.18zm65.415 0h-2.437v-9.61h2.301v1.353c.88-.846 2.234-1.523 3.452-1.523h.034v2.302c-1.184 0-2.437.676-3.35 1.522v5.956zm-47.648 0h-2.098l-3.317-9.577h2.538l1.726 5.72 2.267-5.72h1.862l2.267 5.72 1.726-5.72h2.538l-3.316 9.577h-2.099l-2.03-5.956L49 20.139zm-8.325-4.771c0-1.591-1.083-2.843-2.674-2.843-1.624 0-2.707 1.286-2.707 2.843 0 1.624 1.083 2.843 2.707 2.843 1.591-.034 2.674-1.22 2.674-2.843zM66.8 16.857v-2.978l-.034-.034c-.575-.812-1.455-1.32-2.504-1.32-1.489 0-2.64 1.252-2.64 2.843 0 1.59 1.016 2.809 2.742 2.809.948 0 1.802-.475 2.436-1.32zm19.729-4.366c1.049 0 1.929.508 2.505 1.32l.033.034v3.012l-.033.034a2.957 2.957 0 0 1-2.437 1.286c-1.726 0-2.741-1.22-2.741-2.81.034-1.623 1.184-2.876 2.673-2.876zm-8.968 1.659v-.102c-.101-.88-.913-1.827-2.064-1.827-1.083 0-2.064.812-2.199 1.827l-.034.102h4.297z" fill="#122644"/></svg>
