<svg viewBox="0 0 100 100" xmlns="http://www.w3.org/2000/svg" fill-rule="evenodd" clip-rule="evenodd" stroke-linejoin="round" stroke-miterlimit="2"><path d="M50 0c27.596 0 50 22.404 50 50s-22.404 50-50 50S0 77.596 0 50 22.404 0 50 0zm0 6.923C26.225 6.923 6.923 26.225 6.923 50S26.225 93.077 50 93.077 93.077 73.775 93.077 50 73.775 6.923 50 6.923zM24.739 37.151l34.302-23.704 21.158 35.502-5.463 9.258-5.026-7.017-15.753 33.753-29.218-10.42 6.971-33.54-6.971 4.868v-8.7zm25.55 17.009l7.501 1.847 4.069-10.585-8.001-2.009-3.569 10.747zm-1.438 4.328l-3.7 11.144 6.596 2.092 4.376-11.382-7.272-1.854zm-12.748-3.249L33.09 65.807l6.111 1.938 3.392-10.852-6.49-1.654zm1.217-4.273l6.616 1.629 3.383-10.824-6.885-1.729-3.114 10.924zm54.031 11.012a41.908 41.908 0 0 1-6.856 13.731L54.698 86.317l2.371-5.08 2.542.348 10.507-4.074-6.273-.663-5.849 2.404 2.197-4.708 1.911.195 9.215-3.875-5.954-.619-3.971 1.726 2.341-5.015 27.616-4.978zm-23.737 13.32l6.506.662 9.772-3.789-6.919-.719-9.359 3.846z" fill="hsl(224, 55%, 22%)"/></svg>
