<svg viewBox="0 0 100 100" xmlns="http://www.w3.org/2000/svg" fill-rule="evenodd" clip-rule="evenodd" stroke-linejoin="round" stroke-miterlimit="2"><g fill="hsl(224, 55%, 22%)"><path d="M43.871 90.452v-35.29C20.178 55.162.967 35.951.967 12.258h12.259c23.692 0 42.903 19.211 42.903 42.904v35.29a41.177 41.177 0 0 1-6.129.457c-2.082 0-4.128-.156-6.129-.457zm5.803-69.108a49.642 49.642 0 0 1 11.67 21.246C82.578 40.016 99.033 21.928 99.033 0H86.774c-15.833 0-29.665 8.58-37.1 21.344z"/><path d="M92.216 23.212A49.734 49.734 0 0 1 100 50c0 27.596-22.404 50-50 50S0 77.596 0 50a49.765 49.765 0 0 1 4.483-20.708 42.897 42.897 0 0 0 6.038 9.957A40.896 40.896 0 0 0 9.091 50c0 20.494 15.103 37.489 34.78 40.452l1.509.199 1.502.141 1.37.08.962.03 1.023.006 1.099-.02 1.375-.068 1.529-.128 1.509-.185.38-.055C75.806 87.489 90.909 70.494 90.909 50a40.695 40.695 0 0 0-4.828-19.284 43.128 43.128 0 0 0 6.135-7.504zM59.11 10.111A40.983 40.983 0 0 0 50 9.091a40.694 40.694 0 0 0-21.36 6.02 42.69 42.69 0 0 0-11.612-2.687C25.831 4.691 37.372 0 50 0a49.8 49.8 0 0 1 19.118 3.791 42.9 42.9 0 0 0-10.008 6.32z"/></g></svg>
