<svg viewBox="0 0 100 100" xmlns="http://www.w3.org/2000/svg" fill-rule="evenodd" clip-rule="evenodd" stroke-linejoin="round" stroke-miterlimit="2"><path d="M.003-.004H100v99.999H.003V-.004zm84.396 85.747c4.363.031 7.816-3.628 7.781-7.811-.04-4.29-3.487-7.764-7.774-7.773-4.433-.007-7.844 3.655-7.812 7.848.028 4.218 3.502 7.776 7.805 7.736zm-5.013-7.78c-.01-2.764 2.233-4.997 5.01-4.994 2.77 0 5.02 2.255 5 5.01-.018 2.738-2.254 4.99-4.99 4.978-2.815-.013-4.995-2.211-5.02-4.994zm-32.58-7.421h-3.078v14.82h3.078v-14.82zm17.575-.047v14.852h3.04v-5.839c.38 0 .72.003 1.059 0 .53 0 .958.217 1.247.65.258.39.487.804.682 1.228.54 1.166 1.055 2.343 1.58 3.515.072.16.154.314.223.455h3.229c-.013-.085-.01-.141-.029-.188-.7-1.567-1.388-3.14-2.114-4.699-.398-.854-.942-1.598-1.94-1.878.053-.05.065-.066.08-.072.12-.038.243-.07.362-.107 1.266-.399 2.117-1.215 2.479-2.506a4.186 4.186 0 0 0-.004-2.302c-.464-1.683-1.906-2.868-3.722-3.003a48.608 48.608 0 0 0-2.87-.1c-1.088-.019-2.171-.006-3.302-.006zm3.06 6.598v-4.145c.86.028 1.692.006 2.509.1.685.079 1.115.534 1.291 1.219.317 1.24-.349 2.484-1.489 2.726-.28.06-.572.088-.857.097-.465.016-.933.003-1.455.003zm4.893-26.69c-1.784 4.922-3.568 9.84-5.374 14.815h3.144a597.77 597.77 0 0 1 1.1-3.065h5.386l1.116 3.1c.568 0 1.074.003 1.58 0 .515-.003 1.03.016 1.62-.019-1.821-5.003-3.615-9.918-5.415-14.858-.936 0-1.838 0-2.742.003-.123 0-.248.012-.415.025zm3.437 9.31h-3.685c-.016-.39 1.313-4.8 1.81-5.974.64 2.039 1.253 3.986 1.875 5.974zm7.152 5.502h8.849v-2.547h-5.724v-12.22c-.63-.113-2.726-.094-3.125.019v14.748zM26.75 85.365c.245-3.429.44-6.824.69-10.219.038-.003.08-.003.12-.006 1.16 3.414 2.318 6.83 3.468 10.216h2.579c1.127-3.423 2.246-6.828 3.367-10.229.038.003.079.006.12.013.27 3.401.54 6.8.813 10.216h2.93l-1.425-14.83h-3.368c-1.174 3.565-2.346 7.114-3.515 10.656h-.113c-1.237-3.555-2.478-7.11-3.71-10.653h-3.37l-1.335 14.837h2.749zm28.034-20.15c.148.016.274.035.393.035 1.54.003 3.078.022 4.618-.007a13.664 13.664 0 0 0 1.997-.182c2.337-.38 3.726-2.095 3.647-4.447-.047-1.36-.716-2.274-1.963-2.789-.148-.063-.298-.122-.524-.213 1.221-.484 1.828-1.354 1.985-2.535.053-.392.069-.8.022-1.19-.189-1.586-1.034-2.689-2.557-3.185a6.677 6.677 0 0 0-1.863-.301c-1.79-.041-3.584-.022-5.378-.022-.119 0-.241.019-.377.031v14.805zm2.96-2.519v-3.81c1.067.007 2.11-.11 3.147.11.848.183 1.373.88 1.379 1.775.006.93-.537 1.646-1.426 1.866-.56.141-2.431.179-3.1.06zm.04-9.921c.874.031 1.728.013 2.567.107 1.052.113 1.514.637 1.542 1.68.025.936-.27 1.677-1.508 1.913-.86.166-1.724.088-2.579.094-.116-.433-.135-3.11-.022-3.794zM23.14 55.931c-.354-2.729-3.244-5.395-6.398-5.835-3.682-.515-6.776 1.47-8.167 4.394-1.483 3.125-.716 6.84 1.897 9.161 1.304 1.16 2.837 1.812 4.564 1.935 2.526.179 4.655-.735 6.471-2.613.057.823-.019 1.539.05 2.24h1.665c.107-1.025.063-6.207-.05-6.574H16.77v1.649c1.056.04 2.076-.016 3.122.034-.7 1.457-2.757 2.88-5.214 2.384-2.315-.468-3.951-2.375-4.036-4.623-.091-2.387 1.376-4.429 3.609-5.079 1.966-.574 4.69.063 6.056 2.927h2.833zm38.87 16.266c-2.573-2.54-7.474-2.971-10.696.248-3.176 3.169-3.02 8.36.32 11.332 3.37 2.999 8.214 2.254 10.457-.167l-1.473-2.362c-2.3 2.38-5.488 2.06-7.297.28a5.023 5.023 0 0 1-.29-6.844c1.637-1.906 4.951-2.572 7.474-.17.505-.778 1.008-1.548 1.504-2.317zM26.52 50.4v14.79c.691.112 8.416.084 8.796-.03.094-.627.072-2.066-.06-2.505h-5.648c-.003-4.115.003-8.176-.003-12.255H26.52zm26.09 7.396a7.764 7.764 0 0 0-7.811-7.776 7.768 7.768 0 0 0-7.756 7.776c0 4.322 3.484 7.83 7.787 7.81 4.545-.018 7.85-3.765 7.78-7.81zm-7.81 4.998a4.983 4.983 0 0 1-4.976-4.975c-.01-2.773 2.277-5.04 5.06-5.016 2.737.025 4.948 2.277 4.942 5.02-.007 2.885-2.42 5.04-5.026 4.97z"/></svg>
