<svg viewBox="0 0 100 100" xmlns="http://www.w3.org/2000/svg" fill-rule="evenodd" clip-rule="evenodd" stroke-linejoin="round" stroke-miterlimit="2"><path fill="#D20021" d="M0 0h100v100H0z"/><path fill="#fff" d="M8.931 41.284h6.313v20.48H8.93z"/><path d="M18.615 41.284h6.062v1.865s1.04-2.403 6.062-2.403c6.42 0 7.604 4.232 7.604 9.684V61.73H32.03V51.686c0-2.368-.036-5.416-3.3-5.416-3.3 0-3.802 2.582-3.802 5.236V61.73h-6.313V41.284zM41.75 37.661c0-4.483 1.148-8.25 7.999-8.25 1.255 0 2.547.072 3.694.395l-.287 5.345c-.717-.251-1.29-.43-2.08-.43-2.009 0-3.049.645-3.049 3.335v3.264h4.699v5.057h-4.663v15.424H41.75V37.66zM64.957 40.782c6.313 0 11.37 4.232 11.37 10.76s-5.057 10.76-11.37 10.76c-6.313 0-11.406-4.232-11.406-10.76.036-6.528 5.093-10.76 11.406-10.76m0 15.925c3.156 0 5.057-2.116 5.057-5.2 0-3.085-1.9-5.201-5.057-5.201-3.156 0-5.057 2.116-5.057 5.2 0 3.121 1.9 5.201 5.057 5.201M78.838 41.284h6.313v1.793s1.65-2.582 8.106-2.295v5.56c-.897-.252-1.758-.431-2.69-.431-4.807 0-5.416 3.443-5.416 7.532v8.322h-6.313v-20.48zM8.931 34.54l6.313-4.34v7.712H8.93v-3.371z" fill="#fff" fill-rule="nonzero"/></svg>