<svg viewBox="0 0 100 45" xmlns="http://www.w3.org/2000/svg" fill-rule="evenodd" clip-rule="evenodd" stroke-linejoin="round" stroke-miterlimit="2"><path d="M60.14 3.373V28.62h-1.632V3.373h1.632zm1.631.003v23.613a1.64 1.64 0 0 1-1.631 1.632V3.376h1.631zm-3.263 0v25.245h-1.865V3.376h1.865z" fill="#00BECE" fill-rule="nonzero"/><path d="M56.64 3.382v4.965h-1.866V3.382h1.865zm-1.866.003v4.961H52.91V3.385h1.864zM52.91 8.346a7.09 7.09 0 0 0-.97.2c-.319.127-.62.295-.895.5V3.58s.645-.093.97-.127c.325-.033.895-.064.895-.064v4.957zm-.933 5.48c.306.1.617.18.933.239v8.348l-1.865 3.928v-13.1c.285.233.598.43.932.584zm1.812.322c.382.01.985.01.985.01v4.405h-.039L52.91 22.41v-8.35c.29.045.584.074.879.087zm2.85.025v4.392h-1.865v-4.392h1.865z" fill="#F88930" fill-rule="nonzero"/><path d="M51.047 9.048s-.835.948-.835 2.145c.028.762.324 1.49.835 2.056v13.097l-1.053 2.215h-.812V4.12s.389-.161.785-.277c.395-.115 1.08-.262 1.08-.262v5.466zm-1.865 8.625s-.59-.273-.999-.524a7.996 7.996 0 0 1-.865-.642V5.242c.286-.236.59-.45.907-.642.308-.18.628-.34.957-.477v13.55zm-1.864-1.166a4.704 4.704 0 0 1-1.058-1.114 9.76 9.76 0 0 1-.807-1.45 12.04 12.04 0 0 1-.483-2.963c.001-.87.112-1.737.33-2.579a7.413 7.413 0 0 1 .991-2.065c.295-.408.64-.777 1.026-1.098v11.27zm1.864 12.056h-1.864v-6.62l1.864-3.572v10.192zm-1.864-.006H45.04c-.429 0-.862-.724-.66-1.103l1.072-2.008v-.005l1.865-3.496v6.612z" fill="#F52067" fill-rule="nonzero"/><circle cx="10.5" cy="10.5" r="10.5" fill="#1B2535" transform="matrix(.2331 0 0 .2331 13.752 19.224)"/><path d="M30.14 29.714a10.662 10.662 0 0 1-3.855-.683 9.1 9.1 0 0 1-3.066-1.937 9.006 9.006 0 0 1-2.036-2.998 9.827 9.827 0 0 1-.738-3.846 9.82 9.82 0 0 1 .75-3.897 8.707 8.707 0 0 1 2.074-2.974 9.24 9.24 0 0 1 3.104-1.885 11.182 11.182 0 0 1 7.594.012 7.218 7.218 0 0 1 2.99 1.962l-2.952 2.937a3.664 3.664 0 0 0-1.603-1.24 5.361 5.361 0 0 0-2.035-.405 5.206 5.206 0 0 0-2.098.417c-.62.268-1.178.66-1.64 1.152a5.263 5.263 0 0 0-1.07 1.73c-.26.7-.39 1.443-.382 2.19-.008.759.121 1.513.382 2.227.234.641.593 1.23 1.056 1.733a4.78 4.78 0 0 0 1.615 1.127 5.177 5.177 0 0 0 2.061.405 4.838 4.838 0 0 0 2.264-.507 4.41 4.41 0 0 0 1.552-1.316l3.027 2.836a8.608 8.608 0 0 1-2.95 2.164 9.739 9.739 0 0 1-4.045.796zm-24.29 0a7.14 7.14 0 0 1-2.097-.294 5.418 5.418 0 0 1-1.717-.883A5.604 5.604 0 0 1 0 25.513l3.842-1.291c.098.435.324.832.649 1.139.315.287.73.441 1.157.43.71 0 1.184-.247 1.412-.734.251-.609.368-1.265.343-1.923v-11.82h4.376V23.11a11.035 11.035 0 0 1-.24 2.227 6.065 6.065 0 0 1-.891 2.138 5.023 5.023 0 0 1-1.807 1.607c-.768.42-1.774.633-2.99.633zm76.432-.48H69.704V11.298h12.12v3.673h-7.919v3.37h7.486v3.47h-7.486v3.723h8.377v3.698zm7.615 0h-6.716v-17.92h6.514c1.268 0 2.531.15 3.765.443a9.516 9.516 0 0 1 3.307 1.469 7.65 7.65 0 0 1 3.009 4.67c.153.766.227 1.546.221 2.327a8.827 8.827 0 0 1-.878 4.062 8.236 8.236 0 0 1-2.315 2.81 9.716 9.716 0 0 1-3.244 1.62c-1.19.342-2.424.517-3.663.518zM87.43 15.008v10.479h2.061a9.452 9.452 0 0 0 2.252-.266 5.362 5.362 0 0 0 1.908-.873 4.347 4.347 0 0 0 1.323-1.62 5.69 5.69 0 0 0 .496-2.506 5.675 5.675 0 0 0-.496-2.517 4.264 4.264 0 0 0-1.323-1.595 5.33 5.33 0 0 0-1.883-.849 9.339 9.339 0 0 0-2.175-.253h-2.163z" fill="#263245" fill-rule="nonzero"/><path d="M71.354 43.185l-4.85-6.204a2.829 2.829 0 0 1 .483-3.952c1.217-.951 3.001-.733 3.953.484l4.85 6.205c.951 1.216.732 3-.484 3.952-1.217.95-3.001.732-3.952-.485zm-7.626-11.708a1.705 1.705 0 0 1 .293-2.38 1.705 1.705 0 0 1 2.383.292 1.705 1.705 0 0 1-.292 2.382 1.707 1.707 0 0 1-2.384-.293v-.001zm-6.339-.911a15.596 15.596 0 0 1-16.3-5.45 15.596 15.596 0 0 1-1.354-17.134A15.503 15.503 0 0 1 52.22.042a15.598 15.598 0 0 1 8.647 1.925 15.568 15.568 0 0 1 7.24 18.398 15.546 15.546 0 0 1-10.719 10.2zM41.71 9.03a13.465 13.465 0 0 0 1.168 14.794 13.465 13.465 0 0 0 14.075 4.705 13.386 13.386 0 0 0 9.255-8.807A13.443 13.443 0 0 0 49.934 2.601a13.437 13.437 0 0 0-8.223 6.428h-.001z" fill="#263245" fill-rule="nonzero"/><path d="M10.357 38.699c-.179-.001-.355-.04-.518-.115a1.155 1.155 0 0 1-.4-.31l.285-.321a.999.999 0 0 0 .284.238.744.744 0 0 0 .365.093.546.546 0 0 0 .273-.067.485.485 0 0 0 .172-.185.84.84 0 0 0 .088-.28c.015-.113.023-.228.024-.343v-.42h-.011a.871.871 0 0 1-.207.367.562.562 0 0 1-.42.147.635.635 0 0 1-.365-.11.899.899 0 0 1-.27-.302 1.684 1.684 0 0 1-.167-.459 2.717 2.717 0 0 1-.056-.583c0-.191.017-.383.053-.57.031-.158.086-.31.163-.45a.853.853 0 0 1 .271-.296.703.703 0 0 1 .37-.104.613.613 0 0 1 .4.134.659.659 0 0 1 .222.343h.017v-.385h.445v2.69c0 .171-.017.34-.05.507-.03.146-.09.284-.172.408a.843.843 0 0 1-.316.275 1.06 1.06 0 0 1-.48.098zm.053-3.672a.34.34 0 0 0-.228.08.612.612 0 0 0-.155.22 1.409 1.409 0 0 0-.091.33c-.021.135-.03.272-.03.41 0 .136.009.272.03.407.016.112.046.222.091.326a.606.606 0 0 0 .155.22.34.34 0 0 0 .228.08.353.353 0 0 0 .228-.08.6.6 0 0 0 .163-.22c.046-.104.078-.214.097-.326a2.539 2.539 0 0 0 0-.817 1.219 1.219 0 0 0-.1-.33.691.691 0 0 0-.163-.22.343.343 0 0 0-.225-.08zm49.132 2.476a.81.81 0 0 1-.407-.104.927.927 0 0 1-.309-.292 1.455 1.455 0 0 1-.193-.45 2.373 2.373 0 0 1-.066-.585c-.002-.198.02-.397.066-.59.038-.161.102-.315.19-.455a.9.9 0 0 1 .306-.293.869.869 0 0 1 .826 0c.124.073.23.173.308.293.09.14.155.293.193.455.046.194.069.392.067.59.002.197-.02.393-.067.585-.038.16-.104.312-.193.45a.926.926 0 0 1-.308.292.821.821 0 0 1-.413.104zm0-2.476a.343.343 0 0 0-.225.08.596.596 0 0 0-.158.22 1.328 1.328 0 0 0-.091.33 2.68 2.68 0 0 0-.03.41c0 .136.01.272.03.407.016.112.047.222.09.327a.59.59 0 0 0 .16.22.342.342 0 0 0 .224.08.35.35 0 0 0 .23-.08.59.59 0 0 0 .159-.22c.044-.105.075-.214.091-.327.02-.134.03-.27.03-.407 0-.137-.01-.274-.03-.41a1.24 1.24 0 0 0-.093-.33.618.618 0 0 0-.16-.22.343.343 0 0 0-.227-.08zm-5.13 2.476a.62.62 0 0 1-.353-.09.607.607 0 0 1-.207-.242 1.167 1.167 0 0 1-.099-.343 2.817 2.817 0 0 1-.027-.391V34.72h.461v1.716c0 .077.004.154.011.23a.746.746 0 0 0 .05.215c.025.06.065.114.116.155.06.042.132.062.204.059a.383.383 0 0 0 .21-.062.54.54 0 0 0 .166-.171.902.902 0 0 0 .107-.263c.026-.11.039-.222.038-.335v-1.544h.455v2.01a12.29 12.29 0 0 0 .022.681h-.435a4.022 4.022 0 0 1-.03-.466h-.012a.906.906 0 0 1-.249.396.608.608 0 0 1-.427.161zm-3.335 0a.817.817 0 0 1-.408-.104.927.927 0 0 1-.308-.292 1.455 1.455 0 0 1-.193-.45 2.36 2.36 0 0 1-.067-.585c-.002-.198.02-.397.067-.59.037-.161.101-.315.19-.455a.905.905 0 0 1 .306-.293.869.869 0 0 1 .825 0c.124.073.23.173.308.293.09.14.156.293.193.455.047.193.07.392.067.59a2.36 2.36 0 0 1-.067.585c-.038.16-.103.312-.193.45a.926.926 0 0 1-.308.292.83.83 0 0 1-.412.104zm0-2.476a.344.344 0 0 0-.226.08.598.598 0 0 0-.158.22 1.35 1.35 0 0 0-.09.33c-.021.136-.031.273-.03.41-.001.136.009.273.03.407.015.112.046.222.09.327a.59.59 0 0 0 .158.22.342.342 0 0 0 .226.08.35.35 0 0 0 .23-.08.595.595 0 0 0 .158-.22c.045-.104.075-.214.091-.326.021-.135.031-.271.03-.408.001-.137-.009-.274-.03-.41a1.267 1.267 0 0 0-.093-.33.618.618 0 0 0-.16-.22.344.344 0 0 0-.226-.08zm-2.137 2.476a.974.974 0 0 1-.772-.364l.267-.295a.968.968 0 0 0 .215.196.536.536 0 0 0 .305.083.33.33 0 0 0 .27-.124.499.499 0 0 0 .1-.321.41.41 0 0 0-.14-.33.618.618 0 0 0-.152-.097 2.402 2.402 0 0 0-.19-.077 1.544 1.544 0 0 1-.201-.092.693.693 0 0 1-.18-.141.703.703 0 0 1-.129-.215.857.857 0 0 1-.048-.308.814.814 0 0 1 .062-.322.742.742 0 0 1 .421-.41.855.855 0 0 1 .311-.056.958.958 0 0 1 .415.083c.11.05.208.125.287.217l-.262.3a.575.575 0 0 0-.18-.169.5.5 0 0 0-.26-.067.338.338 0 0 0-.256.11.427.427 0 0 0-.102.298.335.335 0 0 0 .105.273c.096.072.204.128.318.166.077.03.151.065.223.105a.782.782 0 0 1 .34.386c.038.1.056.207.054.314.002.126-.019.251-.062.37-.072.2-.23.359-.431.431a.925.925 0 0 1-.328.056zm-1.912 0a.84.84 0 0 1-.723-.377 1.835 1.835 0 0 1-.263-1.054 2.338 2.338 0 0 1 .07-.587c.04-.162.107-.316.198-.456a.943.943 0 0 1 .311-.295.858.858 0 0 1 .82 0 .867.867 0 0 1 .282.285c.077.13.13.274.158.423.033.172.05.347.048.523v.22h-1.426c0 .12.01.24.035.359.02.1.054.198.102.29.04.077.097.143.169.193a.41.41 0 0 0 .235.07.383.383 0 0 0 .29-.113.866.866 0 0 0 .172-.268l.343.198a1.08 1.08 0 0 1-.309.424.771.771 0 0 1-.512.165zm-.016-2.476a.34.34 0 0 0-.233.083.658.658 0 0 0-.152.203c-.04.082-.07.168-.086.257-.017.08-.026.162-.027.244h.954a1.272 1.272 0 0 0-.11-.571.365.365 0 0 0-.346-.216zm-7.733 2.476a.977.977 0 0 1-.772-.364l.268-.295a.968.968 0 0 0 .214.196.536.536 0 0 0 .306.083.33.33 0 0 0 .27-.123.5.5 0 0 0 .1-.322.412.412 0 0 0-.14-.33.7.7 0 0 0-.152-.096 3.53 3.53 0 0 0-.19-.078 1.544 1.544 0 0 1-.202-.091.651.651 0 0 1-.308-.357.846.846 0 0 1-.048-.308.814.814 0 0 1 .062-.322.742.742 0 0 1 .42-.41.849.849 0 0 1 .31-.055.959.959 0 0 1 .416.083c.11.05.208.125.287.217l-.263.3a.57.57 0 0 0-.18-.17.506.506 0 0 0-.26-.067.337.337 0 0 0-.256.11.432.432 0 0 0-.102.298.336.336 0 0 0 .105.273c.097.072.204.128.319.167.076.03.15.065.222.104a.765.765 0 0 1 .394.7c.003.126-.018.251-.061.37-.073.2-.23.359-.432.431a.918.918 0 0 1-.327.056zm-6.42 0a.977.977 0 0 1-.772-.364l.268-.295a.963.963 0 0 0 .215.196.536.536 0 0 0 .305.083.33.33 0 0 0 .27-.123.5.5 0 0 0 .1-.322.412.412 0 0 0-.14-.33.681.681 0 0 0-.152-.096 2.953 2.953 0 0 0-.19-.078 1.487 1.487 0 0 1-.201-.091.662.662 0 0 1-.308-.356.841.841 0 0 1-.049-.31.814.814 0 0 1 .062-.32.742.742 0 0 1 .42-.41.854.854 0 0 1 .311-.056.955.955 0 0 1 .416.083c.11.05.208.125.287.217l-.263.3a.516.516 0 0 0-.44-.236.337.337 0 0 0-.256.11.437.437 0 0 0-.102.298.336.336 0 0 0 .105.273c.097.072.204.128.319.166.076.03.15.065.222.105a.754.754 0 0 1 .394.7c.002.126-.019.251-.062.37-.072.2-.23.359-.431.43a.919.919 0 0 1-.328.056zm-4.336 0a.635.635 0 0 1-.364-.11.901.901 0 0 1-.27-.302 1.658 1.658 0 0 1-.167-.459 2.747 2.747 0 0 1-.056-.583c-.001-.191.017-.383.053-.57.03-.158.086-.31.163-.45a.853.853 0 0 1 .27-.296.694.694 0 0 1 .371-.104.601.601 0 0 1 .396.134.67.67 0 0 1 .22.343h.01v-1.747h.457v4.053h-.445v-.423h-.011a.874.874 0 0 1-.207.367.562.562 0 0 1-.42.147zm.118-2.476a.34.34 0 0 0-.227.08.61.61 0 0 0-.156.22 1.386 1.386 0 0 0-.09.33c-.021.136-.031.273-.03.41-.001.136.009.273.03.407.015.113.046.222.09.327a.606.606 0 0 0 .156.22.34.34 0 0 0 .227.08.353.353 0 0 0 .228-.08.6.6 0 0 0 .163-.22c.046-.105.078-.214.097-.327.023-.134.034-.27.032-.407a2.238 2.238 0 0 0-.032-.41 1.22 1.22 0 0 0-.1-.33.677.677 0 0 0-.163-.22.342.342 0 0 0-.225-.08zm-2.25 2.476a.838.838 0 0 1-.722-.377 1.859 1.859 0 0 1-.263-1.054 2.317 2.317 0 0 1 .07-.587c.04-.162.107-.316.199-.456a.912.912 0 0 1 .31-.295.831.831 0 0 1 .403-.104.822.822 0 0 1 .418.104.84.84 0 0 1 .281.285c.078.13.131.274.159.423.034.172.05.347.048.523v.22h-1.426c-.002.12.01.24.035.359.02.1.054.198.101.29.04.077.098.143.17.193a.41.41 0 0 0 .235.07.383.383 0 0 0 .29-.113.866.866 0 0 0 .171-.268l.343.198a1.08 1.08 0 0 1-.308.424.76.76 0 0 1-.514.165zm-.016-2.476a.34.34 0 0 0-.233.083.646.646 0 0 0-.153.203.977.977 0 0 0-.085.257c-.017.08-.026.161-.027.243h.954a1.272 1.272 0 0 0-.11-.57.366.366 0 0 0-.346-.216zm-7.59 2.476a.841.841 0 0 1-.715-.396 1.455 1.455 0 0 1-.193-.45 2.307 2.307 0 0 1-.067-.585 2.37 2.37 0 0 1 .067-.59c.036-.161.1-.316.19-.455a.91.91 0 0 1 .305-.293.869.869 0 0 1 .826 0 .931.931 0 0 1 .308.293c.09.139.156.293.193.455.046.193.069.391.066.59.002.197-.02.393-.067.584-.039.16-.104.312-.193.45a.933.933 0 0 1-.309.293.856.856 0 0 1-.41.104zm0-2.476a.344.344 0 0 0-.225.08.593.593 0 0 0-.158.22 1.397 1.397 0 0 0-.091.33c-.021.136-.03.273-.03.41 0 .136.009.273.03.407.016.113.047.222.091.327a.59.59 0 0 0 .158.22.342.342 0 0 0 .226.08.35.35 0 0 0 .23-.08.593.593 0 0 0 .158-.22c.045-.105.075-.215.091-.327.022-.134.032-.27.03-.407a2.368 2.368 0 0 0-.03-.41 1.281 1.281 0 0 0-.093-.33.618.618 0 0 0-.16-.22.343.343 0 0 0-.226-.08zM4.515 37.503a.84.84 0 0 1-.723-.377 1.835 1.835 0 0 1-.262-1.054c-.001-.198.022-.395.07-.587.04-.161.107-.316.198-.456a.848.848 0 0 1 1.131-.295c.115.071.212.169.282.285.077.13.13.274.158.423.034.172.05.347.048.523v.22H3.988c-.002.12.01.241.035.359.02.1.054.198.102.29a.498.498 0 0 0 .169.193.41.41 0 0 0 .236.07.383.383 0 0 0 .29-.113.86.86 0 0 0 .17-.268l.344.198a1.08 1.08 0 0 1-.308.423.751.751 0 0 1-.512.166zm-.017-2.476a.34.34 0 0 0-.233.083.646.646 0 0 0-.153.203.923.923 0 0 0-.086.257c-.016.08-.025.161-.026.243h.954c.008-.195-.03-.39-.11-.569a.365.365 0 0 0-.346-.217zm52.358 2.455a.493.493 0 0 1-.443-.198 1.002 1.002 0 0 1-.131-.553v-1.64h-.343v-.37h.338v-.718h.445v.718h.478v.37h-.477v1.55a.635.635 0 0 0 .07.34c.046.07.126.11.21.104a.569.569 0 0 0 .193-.043l.01.365a.87.87 0 0 1-.35.075zm4.674-.07h-.456v-2.01a12.556 12.556 0 0 0-.02-.681h.433a3.998 3.998 0 0 1 .032.466h.01a.907.907 0 0 1 .25-.396.608.608 0 0 1 .426-.16.623.623 0 0 1 .351.09c.09.06.163.144.21.242.05.109.084.224.1.343.017.13.026.26.026.391v1.715h-.461v-1.716c0-.073-.004-.15-.01-.23a.731.731 0 0 0-.052-.215.379.379 0 0 0-.115-.155.323.323 0 0 0-.204-.06.383.383 0 0 0-.21.063.548.548 0 0 0-.166.171.885.885 0 0 0-.107.263c-.026.11-.038.222-.038.335v1.544h.001zm-17.351 0h-.472v-3.795h.981c.133-.002.266.017.394.056.12.036.23.097.324.18a.84.84 0 0 1 .22.321c.057.153.085.315.08.477.003.137-.017.273-.059.402a1.01 1.01 0 0 1-.153.292.788.788 0 0 1-.206.19.667.667 0 0 1-.22.092l.708 1.785h-.515l-.643-1.694h-.44v1.694zm0-3.389v1.32h.445a.584.584 0 0 0 .44-.174.694.694 0 0 0 .166-.497.815.815 0 0 0-.054-.316.557.557 0 0 0-.14-.198.489.489 0 0 0-.198-.105.898.898 0 0 0-.225-.029h-.434zm-3.132 3.389h-.456v-4.053h.456v2.53h.01l.789-1.168h.536l-.922 1.244.97 1.447h-.541l-.831-1.329h-.011v1.329zm-5.451 0h-.472v-3.795h.981a1.32 1.32 0 0 1 .395.056c.12.035.23.097.324.18a.842.842 0 0 1 .22.32c.056.153.084.315.08.478.002.136-.018.272-.059.402a1.02 1.02 0 0 1-.153.292.788.788 0 0 1-.206.19.667.667 0 0 1-.22.092l.707 1.785h-.513l-.645-1.694h-.44v1.694zm0-3.389v1.32h.445a.583.583 0 0 0 .44-.174.694.694 0 0 0 .166-.497.805.805 0 0 0-.054-.316.55.55 0 0 0-.14-.198.485.485 0 0 0-.198-.105.895.895 0 0 0-.225-.029h-.435zm-12.06 3.389h-.45v-1.716a2.24 2.24 0 0 0-.01-.23.83.83 0 0 0-.051-.215.367.367 0 0 0-.116-.155.347.347 0 0 0-.203-.06.37.37 0 0 0-.207.063.531.531 0 0 0-.16.171.905.905 0 0 0-.103.263 1.6 1.6 0 0 0-.034.335v1.544h-.45v-2.01a11.871 11.871 0 0 0-.021-.68l.433-.001a4.518 4.518 0 0 1 .032.466h.01a.807.807 0 0 1 .228-.396.61.61 0 0 1 .437-.16.555.555 0 0 1 .426.174.614.614 0 0 1 .116.177c.029.066.052.135.07.206h.01a1.45 1.45 0 0 1 .097-.195.78.78 0 0 1 .351-.311.604.604 0 0 1 .26-.051.623.623 0 0 1 .351.09c.09.061.163.144.21.242.05.109.084.224.1.343.017.13.026.26.026.392v1.714h-.46v-1.716a2.24 2.24 0 0 0-.011-.23.83.83 0 0 0-.051-.215.379.379 0 0 0-.117-.155.346.346 0 0 0-.204-.06.372.372 0 0 0-.206.063.536.536 0 0 0-.16.171c-.048.082-.083.17-.105.263a1.42 1.42 0 0 0-.038.335v1.544zm-8.852 0h-.457v-2.01c0-.07-.001-.178-.005-.346a6.73 6.73 0 0 0-.016-.335h.434a4.3 4.3 0 0 1 .032.466h.012a.909.909 0 0 1 .25-.396.608.608 0 0 1 .426-.16.623.623 0 0 1 .35.09c.09.061.163.144.21.242.051.109.085.224.1.343.017.13.026.26.027.391v1.715h-.462v-1.716c0-.077-.003-.154-.011-.23a.79.79 0 0 0-.051-.215.379.379 0 0 0-.117-.155.383.383 0 0 0-.414.003.55.55 0 0 0-.166.171.885.885 0 0 0-.107.263 1.34 1.34 0 0 0-.037.335v1.544h.002zm-7.127 0h-.457v-2.01c0-.07-.002-.176-.005-.346a17.01 17.01 0 0 0-.016-.335h.434a4.848 4.848 0 0 1 .031.466h.011a.903.903 0 0 1 .25-.396.608.608 0 0 1 .426-.16.623.623 0 0 1 .35.09.6.6 0 0 1 .21.242c.051.109.085.224.1.343.018.13.027.26.027.391v1.715h-.46v-1.716c0-.077-.004-.154-.012-.23a.859.859 0 0 0-.05-.215.365.365 0 0 0-.116-.155.383.383 0 0 0-.414.003.546.546 0 0 0-.165.171.873.873 0 0 0-.108.263c-.026.11-.039.222-.037.335v1.544zm50.467 0h-.456V34.72h.456v2.69zm-4.964 0h-.46v-4.053h.46v4.053zm-14.961 0h-.456V34.72h.456v2.69zm-6.42 0h-.456V34.72h.454v2.69h.001zm-10.9 0h-.461v-2.01a11.394 11.394 0 0 0-.022-.681h.435c.013.122.021.218.023.28.005.083.008.177.008.279h.01a.966.966 0 0 1 .226-.493.495.495 0 0 1 .423-.15l-.021.477a.528.528 0 0 0-.043-.008c-.02-.003-.036-.003-.048-.003a.347.347 0 0 0-.228.083.643.643 0 0 0-.166.217 1.078 1.078 0 0 0-.102.303c-.024.114-.036.23-.035.346v1.36zm-3.582 0h-.451V35.09h-.35v-.369h.35v-.493c-.002-.13.013-.26.042-.386a.887.887 0 0 1 .134-.306.64.64 0 0 1 .233-.2.745.745 0 0 1 .34-.073c.026 0 .067.003.124.008.04.005.08.014.119.03l-.033.375a.386.386 0 0 0-.155-.027.295.295 0 0 0-.177.05.361.361 0 0 0-.11.132.553.553 0 0 0-.056.185c-.01.072-.016.145-.016.217v.488h.44v.37h-.436v2.32h.002zm-3.696 0h-.482v-3.796h.482v3.796zm-7.106 0H5.94V34.72h.455v2.69zm-4.252 0H1.117v-3.795h.911c.115 0 .23.013.34.04a.906.906 0 0 1 .33.147.795.795 0 0 1 .247.29.985.985 0 0 1 .097.46c0 .111-.014.22-.043.327a.831.831 0 0 1-.115.244.73.73 0 0 1-.167.174.72.72 0 0 1-.195.108v.01c.168.04.319.132.429.266a.947.947 0 0 1 .158.284c.043.129.064.264.062.4a1.13 1.13 0 0 1-.096.493.997.997 0 0 1-.247.322.936.936 0 0 1-.332.177 1.246 1.246 0 0 1-.355.053zm-.57-1.785v1.378h.467a.89.89 0 0 0 .254-.04.549.549 0 0 0 .35-.327.752.752 0 0 0 .05-.304.802.802 0 0 0-.06-.329.633.633 0 0 0-.159-.22.623.623 0 0 0-.217-.12.722.722 0 0 0-.239-.038h-.445zm0-1.603v1.222h.414a.644.644 0 0 0 .413-.142.555.555 0 0 0 .14-.19.683.683 0 0 0 .053-.284.681.681 0 0 0-.053-.287.505.505 0 0 0-.336-.288.883.883 0 0 0-.228-.03l-.402-.001zm56.225.204a.268.268 0 0 1-.204-.086.31.31 0 0 1-.08-.22.312.312 0 0 1 .08-.217.28.28 0 0 1 .407 0c.054.06.083.137.08.217a.303.303 0 0 1-.082.22.27.27 0 0 1-.201.086zm-19.926 0a.268.268 0 0 1-.204-.086.31.31 0 0 1-.08-.22.313.313 0 0 1 .08-.216.28.28 0 0 1 .407 0c.053.059.082.137.08.217a.303.303 0 0 1-.083.22.27.27 0 0 1-.2.085zm-6.42 0a.268.268 0 0 1-.204-.086.31.31 0 0 1-.08-.22.312.312 0 0 1 .08-.217.28.28 0 0 1 .408 0c.053.06.082.137.08.217a.303.303 0 0 1-.083.22.27.27 0 0 1-.2.086zm-25.283 0a.268.268 0 0 1-.203-.086.31.31 0 0 1-.081-.22.312.312 0 0 1 .081-.216.28.28 0 0 1 .408 0c.053.059.082.137.08.217a.303.303 0 0 1-.083.22.27.27 0 0 1-.202.085z" fill="#1B2535" fill-rule="nonzero"/></svg>
