<svg viewBox="0 0 100 67" xmlns="http://www.w3.org/2000/svg" fill-rule="evenodd" clip-rule="evenodd" stroke-linejoin="round" stroke-miterlimit="2"><g fill-rule="nonzero"><path d="M30.692 54.874H12.961V11.74L-.001 1.665v63.144h33.026c-.932-1.11-1.56-2.616-1.86-4.54a42.368 42.368 0 0 1-.473-5.395" fill="#EC2629"/><path d="M47.814 60.237a23.34 23.34 0 0 1-.73-5.654v-4.75c0-3.873-.838-7.129-2.506-9.764-1.67-2.627-4.417-4.51-8.235-5.631 3.376-1.482 5.945-3.423 7.703-5.837 1.758-2.41 2.639-5.274 2.639-8.588 0-6-2.088-10.684-6.256-14.04C36.257 2.612 30.487.93 23.121.93H2.58l12.86 9.986h7.68c3.494 0 6.132.873 7.921 2.62 1.786 1.746 2.686 4.097 2.686 7.054 0 3.02-.896 5.294-2.686 6.834-1.785 1.537-4.501 2.306-8.141 2.306h-7.46v9.989h8.616c3.221 0 5.716.892 7.474 2.681 1.762 1.79 2.64 4.3 2.64 7.521v4.572c0 2.037.17 4.156.508 6.349.341 2.185 1.106 3.756 2.29 4.7h13.357v-.932c-1.187-.943-2.018-2.406-2.507-4.374"/><path d="M56.779 7.521C61.42 2.507 67.517 0 75.057 0c7.87 0 14.025 1.925 18.461 5.77 4.246 3.68 6.4 8.798 6.481 15.345H87.278c-.17-3.558-1.16-6.26-2.969-8.091-1.995-2.026-5.084-3.043-9.252-3.043-3.873 0-6.9 1.564-9.07 4.684-2.18 3.124-3.267 7.153-3.267 12.093v12.915c0 4.968 1.149 9.023 3.443 12.163 2.29 3.135 5.48 4.7 9.558 4.7 3.88 0 6.772-1.014 8.681-3.04 1.75-1.862 2.697-4.64 2.84-8.331H99.91c-.043 6.535-2.142 11.688-6.303 15.453-4.319 3.908-10.28 5.86-17.886 5.86-7.746 0-14.006-2.496-18.768-7.482-4.757-4.983-7.148-11.425-7.148-19.327V26.851c0-7.866 2.329-14.308 6.974-19.326" fill="#4975BA"/></g></svg>