<svg viewBox="0 0 101 41" xmlns="http://www.w3.org/2000/svg" fill-rule="evenodd" clip-rule="evenodd" stroke-linejoin="round" stroke-miterlimit="2"><path d="M0 0h40.668v40.67H.001L0 0z" fill="#0D4689"/><path d="M17.943 12.006a4.487 4.487 0 0 0-4.485-4.485 4.487 4.487 0 0 0-4.484 4.485v16.656a4.487 4.487 0 0 0 4.485 4.485h3.591c.493 0 .893-.4.893-.893V12.006zM21.399 33.147a.893.893 0 0 1-.893-.893v-7.183c0-.493.4-.893.893-.893h5.811a4.487 4.487 0 0 1 4.484 4.485 4.487 4.487 0 0 1-4.484 4.484h-5.811z" fill="#fff"/><path d="M51.217 17.563h7.287v-1.78h-5.163V5.84h-2.124v11.723zm14.635-3.697c0 1.339-.957 2.003-1.873 2.003-.992 0-1.658-.704-1.658-1.82V8.77h-2.072v5.598c0 2.113 1.202 3.31 2.932 3.31 1.315 0 2.241-.694 2.646-1.678h.092v1.562h2.006V8.771h-2.074v5.095h.001zm6.274-1.455c0-1.27.768-2.003 1.863-2.003 1.07 0 1.71.704 1.71 1.877v5.278h2.072v-5.598c.005-2.107-1.193-3.309-3.01-3.309-1.315 0-2.22.63-2.62 1.609h-.107V8.77h-1.98v8.792h2.072V12.41v.001zm7.758 5.152h2.073V8.771h-2.073v8.792zm1.044-10.04c.655 0 1.197-.504 1.197-1.122 0-.624-.542-1.128-1.197-1.128-.665 0-1.203.504-1.203 1.128 0 .618.538 1.122 1.203 1.122zm5.69 10.218c1.377 0 2.2-.647 2.58-1.385h.071v1.207h1.99V11.68c0-2.324-1.893-3.023-3.571-3.023-1.853 0-3.27.825-3.725 2.427l1.934.275c.205-.601.788-1.116 1.801-1.116.962 0 1.49.492 1.49 1.357v.034c0 .595-.625.624-2.176.79-1.709.183-3.336.692-3.336 2.673 0 1.729 1.264 2.645 2.942 2.645v-.001zm.538-1.523c-.865 0-1.484-.395-1.484-1.156 0-.796.69-1.128 1.622-1.26.542-.074 1.627-.211 1.898-.43v1.037c0 .98-.788 1.81-2.036 1.81v-.001zM57.658 26.717h2.043c-.041-1.98-1.725-3.384-4.222-3.384-2.462 0-4.314 1.386-4.304 3.458 0 1.683 1.193 2.65 3.122 3.148l1.335.344c1.264.32 2.099.716 2.109 1.626-.01 1.002-.957 1.671-2.344 1.671-1.325 0-2.36-.595-2.44-1.826h-2.094c.087 2.33 1.822 3.641 4.554 3.641 2.81 0 4.442-1.403 4.447-3.469-.005-2.032-1.683-2.96-3.449-3.377l-1.095-.275c-.962-.23-2.006-.636-1.995-1.615.005-.881.798-1.528 2.123-1.528 1.264 0 2.103.59 2.21 1.586zm8.394-.292h-1.734v-2.107h-2.073v2.107h-1.249v1.603h1.249v4.888c-.01 1.655 1.192 2.467 2.748 2.422a4.166 4.166 0 0 0 1.218-.207l-.348-1.62c-.113.029-.348.08-.609.08-.517 0-.936-.183-.936-1.018v-4.545h1.734v-1.603zm7.339 5.095c0 1.339-.957 2.003-1.873 2.003-.993 0-1.658-.704-1.658-1.82v-5.278h-2.073v5.598c0 2.113 1.203 3.31 2.932 3.31 1.315 0 2.242-.694 2.64-1.678h.093v1.562h2.011v-8.792h-2.072v5.095zm7.466 3.852c1.51 0 2.19-.899 2.517-1.54h.123v1.385h2.042V23.494h-2.078v4.385h-.087c-.317-.636-.962-1.569-2.512-1.569-2.032 0-3.628 1.592-3.628 4.522 0 2.897 1.55 4.54 3.623 4.54zm.578-1.7c-1.371 0-2.093-1.203-2.093-2.85 0-1.638.711-2.812 2.093-2.812 1.33 0 2.062 1.105 2.062 2.811s-.742 2.851-2.062 2.851zm6.32 1.545h2.072v-8.792h-2.072v8.792zm1.039-10.04c.66 0 1.197-.504 1.197-1.122 0-.624-.537-1.128-1.197-1.128s-1.203.504-1.203 1.128c0 .618.543 1.122 1.203 1.122zm6.995 10.212c2.58 0 4.212-1.815 4.212-4.534 0-2.725-1.633-4.545-4.212-4.545-2.574 0-4.212 1.82-4.212 4.545 0 2.72 1.638 4.534 4.212 4.534zm.01-1.66c-1.422 0-2.118-1.27-2.118-2.88 0-1.608.696-2.896 2.118-2.896 1.408 0 2.103 1.288 2.103 2.897 0 1.608-.695 2.879-2.103 2.879z" fill="#0D4689" fill-rule="nonzero"/></svg>
