<svg viewBox="0 0 100 20" xmlns="http://www.w3.org/2000/svg" fill-rule="evenodd" clip-rule="evenodd" stroke-linejoin="round" stroke-miterlimit="2"><path d="M2.605 5.561c.73-.78 1.709-1.288 2.956-1.288 1.587 0 2.718.651 3.368 1.79.768-1.03 1.906-1.79 3.484-1.79 1.417 0 2.454.436 3.142 1.216.679.77 1.023 1.89 1.023 3.31v5.328c0 .504-.143.824-.356 1.027-.218.208-.527.305-.913.305h-.211c-.383 0-.696-.096-.92-.3-.22-.205-.37-.526-.37-1.032V9.052c0-.767-.146-1.347-.476-1.73-.314-.366-.794-.532-1.427-.532-.93 0-1.765.577-2.242 1.438v5.9c0 .503-.142.823-.356 1.026-.218.208-.526.305-.912.305h-.212c-.382 0-.696-.096-.919-.3-.221-.205-.37-.526-.37-1.032v-4.99c0-.8-.148-1.403-.48-1.8C6.1 6.96 5.622 6.79 4.99 6.79c-.928 0-1.763.575-2.22 1.435v5.902c0 .506-.155.827-.376 1.031-.226.207-.535.3-.893.3H1.27c-.386 0-.695-.096-.913-.304C.143 14.951 0 14.631 0 14.127V4.992a.4.4 0 0 1 .173-.319c.129-.097.49-.252.926-.252.381 0 .766.103 1.075.406.172.168.325.405.431.734zM31.631 15.375c-.451 0-.744-.15-.93-.354-.19-.21-.274-.49-.274-.788v-.17c0-.525.173-.788.672-1.361l4.863-5.828h-4.246c-.406 0-.703-.102-.903-.27-.22-.186-.345-.458-.345-.83v-.148c0-.371.125-.643.345-.83.2-.167.497-.269.903-.269h6.788c.45 0 .74.142.925.338.193.204.28.48.28.783v.127c0 .477-.15.742-.652 1.318l-4.965 5.913h4.539c.407 0 .704.103.905.275.218.187.342.463.342.846v.127c0 .383-.124.659-.342.845-.2.173-.498.276-.905.276h-7zM43.461 3.025c-.49 0-.878-.146-1.147-.394-.277-.258-.44-.629-.44-1.108 0-.49.157-.866.433-1.124.267-.252.66-.399 1.175-.399.52 0 .902.145 1.159.395.26.253.406.627.406 1.128 0 .505-.153.874-.423 1.123-.262.242-.647.379-1.163.379zm.116 12.434h-.211c-.383 0-.696-.096-.919-.301-.222-.204-.371-.526-.371-1.031V5.774c0-.502.147-.83.367-1.038.224-.213.538-.315.923-.315h.211c.387 0 .696.097.915.309.211.205.354.53.354 1.044v8.353c0 .503-.143.824-.357 1.027-.217.207-.526.305-.912.305z" fill="#fff"/><path d="M25.673 8.588c-.037-.548-.225-.98-.568-1.28-.4-.351-.993-.518-1.75-.518-1.464 0-2.432.44-2.653.573l-.01.005a.315.315 0 0 1-.107.059.452.452 0 0 1-.38-.056c-.213-.128-.534-.544-.605-.838a1.38 1.38 0 0 1 .124-1.035c.195-.342.595-.696 1.408-.897a9.639 9.639 0 0 1 2.54-.328c1.564 0 2.783.425 3.578 1.217.731.71 1.133 1.735 1.179 3.085v6.335a.382.382 0 0 1-.066.214c-.046.069-.166.177-.372.266a.525.525 0 0 1-.04.014c-.174.05-.398.076-.621.076-.483 0-.854-.142-1.149-.437-.166-.166-.297-.41-.38-.746-.33.323-.706.588-1.128.808-.659.34-1.43.502-2.292.502-1.196 0-2.112-.29-2.78-.864-.687-.594-1.026-1.374-1.026-2.37 0-1.349.612-2.296 1.865-2.887l.002-.002c1.161-.537 2.897-.848 5.231-.896zm.007 1.999l-.22.008c-1.467.062-2.528.217-3.241.523l-.008.004c-.59.235-.908.61-.908 1.165 0 .347.12.619.372.808l.019.015c.266.23.68.319 1.195.319.405 0 .792-.057 1.16-.173.354-.13.635-.298.88-.504.235-.22.417-.475.547-.769.129-.315.204-.63.204-.965v-.431zM54.142 8.588c-.037-.548-.225-.98-.567-1.28-.4-.351-.994-.518-1.752-.518-1.463 0-2.43.44-2.652.573l-.01.005a.315.315 0 0 1-.107.059.452.452 0 0 1-.38-.056c-.213-.128-.534-.544-.605-.838a1.38 1.38 0 0 1 .124-1.035c.195-.342.595-.696 1.408-.897a9.639 9.639 0 0 1 2.54-.328c1.564 0 2.783.425 3.578 1.217.731.71 1.133 1.735 1.179 3.085v6.335a.382.382 0 0 1-.066.214c-.046.069-.166.177-.371.266a.525.525 0 0 1-.04.014c-.175.05-.399.076-.622.076-.482 0-.854-.142-1.149-.437-.165-.166-.297-.41-.38-.746-.33.323-.706.588-1.128.808-.658.34-1.43.502-2.292.502-1.196 0-2.112-.29-2.78-.864-.687-.594-1.026-1.374-1.026-2.37 0-1.349.612-2.296 1.865-2.887l.002-.002c1.162-.537 2.897-.848 5.231-.896zm.007 1.999l-.219.008c-1.468.062-2.529.217-3.242.523l-.008.004c-.589.235-.908.61-.908 1.165 0 .347.12.619.372.808l.019.015c.266.23.68.319 1.195.319.406 0 .792-.057 1.16-.173.354-.13.635-.298.88-.504.235-.22.418-.475.547-.769.129-.315.204-.63.204-.965v-.431z" fill="#fff"/><path d="M71 6.33v2.002h3.645c.4 0 .694.11.893.283.226.194.36.475.36.856v.049c0 .397-.134.683-.353.878-.202.18-.496.293-.9.293H71v2.246h4.949c.392 0 .682.112.882.285.22.194.354.475.354.854v.081c0 .4-.13.691-.34.892-.203.192-.497.312-.896.312h-6.2c-.41 0-.748-.147-.988-.392-.234-.24-.38-.581-.38-1.007V5.304c0-.42.145-.766.376-1.01.24-.253.58-.405.991-.405h6.103c.403 0 .698.113.9.292.22.196.353.481.353.88v.097c0 .398-.134.683-.354.88-.201.178-.496.291-.899.291H71zm7.783-1.296a.533.533 0 0 1-.009-.464c.055-.131.212-.319.46-.466.26-.154.623-.28.97-.28.632 0 1.162.31 1.42 1.082l2.42 6.775 2.42-6.777c.284-.826.827-1.08 1.371-1.08.52 0 1.005.27 1.227.5.236.242.248.507.197.658a.198.198 0 0 1-.008.024l-3.76 9.52-.002.005c-.131.323-.295.546-.528.698-.22.143-.512.23-.95.23-.42 0-.704-.08-.922-.223-.227-.147-.395-.367-.536-.698l-.005-.012-3.663-9.235-.102-.257zm15.196 6.536v2.62c0 .36-.108.656-.297.868-.198.221-.492.368-.908.368h-.244c-.396 0-.681-.132-.876-.348-.181-.2-.295-.492-.295-.888V5.304c0-.42.144-.766.377-1.01a1.33 1.33 0 0 1 .99-.405h2.718c1.745 0 3.016.509 3.763 1.408.514.617.793 1.425.793 2.416 0 1.017-.271 1.835-.78 2.454-.744.904-2.022 1.403-3.841 1.403h-1.4zm-.016-5.354v3.06h1.448c.796 0 1.365-.166 1.684-.56.199-.246.286-.573.286-.97 0-.409-.087-.74-.285-.985-.316-.39-.882-.545-1.67-.545h-1.463zM63.388.75a.75.75 0 1 0-1.498 0v17.784a.75.75 0 0 0 1.498 0V.75z" fill="#fff"/></svg>
