<svg viewBox="0 0 186 50" xmlns="http://www.w3.org/2000/svg" fill-rule="evenodd" clip-rule="evenodd" stroke-linejoin="round" stroke-miterlimit="2"><g fill="#0E1730"><path d="M1.02 43.423l.031-.01c-.028-.324-.105-.542-.232-.654a.578.578 0 0 0-.422-.159.75.75 0 0 0-.274.042c-.07.029-.106.053-.106.074v4.663c0 .19.043.32.127.39.084.078.2.117.348.117h.127a.48.48 0 0 0 .337-.116c.085-.07.127-.2.127-.39v-3.06a1.64 1.64 0 0 1 .538-.633 1.31 1.31 0 0 1 .76-.232c.38 0 .664.112.854.337.19.225.285.567.285 1.024v2.553c0 .19.042.32.126.39.085.077.2.116.348.116H4.1a.496.496 0 0 0 .348-.116c.084-.07.127-.2.127-.39v-3.06c.14-.267.327-.478.559-.633a1.31 1.31 0 0 1 .76-.232c.38 0 .664.113.854.338.19.225.285.559.285 1.002v2.595c0 .19.042.32.126.39.085.078.2.117.348.117h.106a.496.496 0 0 0 .348-.116c.084-.07.127-.2.127-.39v-2.722c0-.676-.162-1.196-.486-1.562-.323-.373-.815-.559-1.477-.559-.436.007-.801.112-1.097.317a2.416 2.416 0 0 0-.707.78 1.72 1.72 0 0 0-.632-.812c-.282-.183-.633-.274-1.055-.274-.366 0-.683.08-.95.242a2.072 2.072 0 0 0-.664.644v-.01zM12.006 47.991c.535 0 1.006-.116 1.414-.348.408-.225.728-.542.96-.95.225-.407.338-.879.338-1.413 0-.535-.113-1.006-.338-1.414a2.442 2.442 0 0 0-.95-.96c-.407-.239-.878-.358-1.413-.358-.542 0-1.016.116-1.424.348a2.444 2.444 0 0 0-.96.95c-.225.407-.338.878-.338 1.413 0 .541.113 1.016.338 1.424.225.408.541.728.95.96.407.232.882.348 1.423.348zm-.01-.907l.01.02c-.337 0-.636-.08-.896-.242a1.669 1.669 0 0 1-.623-.664 1.981 1.981 0 0 1-.232-.97c0-.36.078-.68.232-.96.148-.275.356-.49.623-.644.26-.155.559-.232.896-.232.338 0 .637.077.897.232.253.161.454.383.601.664.148.282.222.605.222.97 0 .352-.074.669-.222.95-.147.282-.351.5-.611.654-.26.155-.56.232-.897.232v-.01zM17.033 44.5l-.021-.011c.14-.338.348-.602.622-.792.274-.196.609-.295 1.003-.295.309 0 .583.077.822.232.24.155.43.37.57.644.134.28.2.605.2.97-.007.563-.154 1.01-.443 1.34-.288.33-.678.5-1.17.506-.296 0-.563-.063-.802-.19a1.47 1.47 0 0 1-.57-.527 1.441 1.441 0 0 1-.211-.78v-1.098zm-.01 2.531l-.011.032c.148.26.376.474.686.643.31.169.682.257 1.118.264.478 0 .9-.113 1.266-.338a2.36 2.36 0 0 0 .865-.949c.21-.408.316-.886.316-1.435 0-.548-.105-1.027-.316-1.435a2.36 2.36 0 0 0-.865-.949 2.326 2.326 0 0 0-1.245-.338c-.408 0-.76.078-1.055.233-.295.154-.549.38-.76.675v-2.11c-.007-.366-.08-.612-.221-.739a.638.638 0 0 0-.464-.179.75.75 0 0 0-.275.042c-.07.028-.105.053-.105.074v6.836c0 .19.042.324.127.4.084.071.2.106.348.106h.126a.48.48 0 0 0 .338-.116c.084-.07.126-.2.126-.39v-.327zM23.083 41.535h-.01c.21 0 .372-.05.485-.148.105-.098.158-.246.158-.443s-.05-.344-.148-.443c-.105-.098-.264-.148-.475-.148-.21 0-.373.053-.485.159-.113.098-.169.246-.169.443 0 .182.056.327.17.432.111.099.27.148.474.148zm.042 6.361v-.01a.496.496 0 0 0 .348-.116c.085-.07.127-.2.127-.39v-4.263c0-.197-.042-.33-.127-.4a.496.496 0 0 0-.348-.117h-.106a.47.47 0 0 0-.348.127c-.084.077-.126.21-.126.4v4.263c0 .19.042.32.126.39.085.077.2.116.348.116h.106zM25.704 47.875l.01.01h.106a.496.496 0 0 0 .348-.115c.085-.07.127-.2.127-.39v-6.035c-.007-.366-.081-.612-.222-.738a.616.616 0 0 0-.464-.18.804.804 0 0 0-.274.042c-.07.029-.106.053-.106.074v6.836c0 .19.043.32.127.39.084.078.2.117.348.117v-.011zM32.598 44.024l-.032.043a2.438 2.438 0 0 0-.21-.454 1.96 1.96 0 0 0-.296-.38 2.59 2.59 0 0 0-.37-.306 1.865 1.865 0 0 0-.4-.221 3.024 3.024 0 0 0-1.024-.169c-.197 0-.383.018-.559.053a1.923 1.923 0 0 0-.506.147c-.324.141-.605.338-.844.591a3.754 3.754 0 0 0-.316.412c-.099.14-.183.295-.254.464a2.663 2.663 0 0 0-.137.527 3.754 3.754 0 0 0-.042.57c0 .204.014.397.042.58.028.183.074.359.137.528.07.168.155.323.254.464.09.14.196.267.316.38.077.084.2.182.37.295.168.113.386.21.653.295.268.092.591.138.97.138.254 0 .5-.025.74-.074.238-.05.456-.123.653-.222.253-.14.422-.278.507-.411.084-.14.12-.268.105-.38a.488.488 0 0 0-.116-.274.318.318 0 0 0-.127-.106.239.239 0 0 0-.168-.021 4.875 4.875 0 0 1-.338.243 2.437 2.437 0 0 1-.559.274c-.21.07-.436.105-.675.105-.225 0-.422-.028-.59-.084a1.527 1.527 0 0 1-.402-.19 1.592 1.592 0 0 1-.232-.18 1.155 1.155 0 0 1-.19-.22 1.787 1.787 0 0 1-.169-.275 1.552 1.552 0 0 1-.116-.316 2.75 2.75 0 0 1-.063-.36h3.819c.12 0 .208-.02.264-.063a.368.368 0 0 0 .053-.105.469.469 0 0 0 .02-.148v-.084c0-.197-.013-.387-.042-.57a2.7 2.7 0 0 0-.126-.496zm-4.051.792l.042-.01c.014-.1.035-.198.063-.296.028-.099.067-.194.116-.285.05-.092.102-.176.159-.253.056-.078.12-.148.19-.211.07-.07.147-.134.232-.19a1.69 1.69 0 0 1 .274-.148c.084-.035.176-.06.274-.074.099-.014.204-.02.317-.02.218 0 .411.034.58.105.169.063.316.165.443.306.127.133.225.291.295.474.07.183.113.387.127.612h-3.112v-.01zM33.974 49.152l-.01.01.896-1.392a1.43 1.43 0 0 0 .2-.349.91.91 0 0 0 .054-.285v-.063c0-.169-.043-.295-.127-.38a.456.456 0 0 0-.338-.126h-.094c-.183 0-.31.042-.38.126a.962.962 0 0 0-.17.38l-.58 1.836c-.027.112-.006.197.064.253.07.056.155.084.253.084a.313.313 0 0 0 .232-.084v-.01zM41.158 47.907h-.021c.204 0 .351-.028.443-.085a.495.495 0 0 0 .2-.295l1.034-3.144 1.013 3.144c.042.14.105.239.19.295.091.057.246.085.464.085.19 0 .334-.025.433-.074a.433.433 0 0 0 .2-.274l1.287-4.653c0-.014-.028-.045-.084-.095a.925.925 0 0 0-.222-.137.724.724 0 0 0-.306-.063.518.518 0 0 0-.327.126c-.105.085-.18.236-.221.454l-.802 3.608-.96-3.123a.474.474 0 0 0-.2-.284c-.1-.057-.247-.085-.444-.085s-.344.028-.443.085a.461.461 0 0 0-.21.284l-.992 3.144-.813-3.629c-.042-.218-.116-.37-.221-.454a.52.52 0 0 0-.327-.126.796.796 0 0 0-.317.063c-.098.042-.18.088-.242.137-.057.05-.081.085-.074.106l1.297 4.652a.424.424 0 0 0 .211.274c.106.05.257.074.454.074v-.01zM52.208 44.024l-.032.043a2.438 2.438 0 0 0-.21-.454 1.96 1.96 0 0 0-.296-.38 2.58 2.58 0 0 0-.37-.306 1.865 1.865 0 0 0-.4-.221 3.018 3.018 0 0 0-1.023-.169c-.197 0-.384.018-.56.053a1.921 1.921 0 0 0-.506.147c-.323.141-.605.338-.844.591a3.754 3.754 0 0 0-.316.412c-.099.14-.183.295-.253.464a2.65 2.65 0 0 0-.138.527 3.754 3.754 0 0 0-.042.57c0 .204.014.397.042.58.029.183.074.359.138.528.07.168.154.323.253.464.091.14.197.267.316.38.078.084.2.182.37.295.168.113.386.21.653.295.268.092.591.138.971.138.253 0 .5-.025.738-.074.24-.05.458-.123.655-.222.253-.14.422-.278.506-.411.084-.14.12-.268.105-.38a.488.488 0 0 0-.116-.274.318.318 0 0 0-.126-.106.238.238 0 0 0-.169-.021 4.875 4.875 0 0 1-.337.243 2.442 2.442 0 0 1-.56.274c-.21.07-.436.105-.675.105-.225 0-.422-.028-.59-.084a1.53 1.53 0 0 1-.402-.19 1.592 1.592 0 0 1-.232-.18 1.163 1.163 0 0 1-.19-.22 1.77 1.77 0 0 1-.168-.275 1.54 1.54 0 0 1-.116-.316 2.718 2.718 0 0 1-.063-.36h3.818c.12 0 .208-.02.264-.063a.367.367 0 0 0 .053-.105.469.469 0 0 0 .02-.148v-.084c0-.197-.013-.387-.041-.57a2.7 2.7 0 0 0-.127-.496zm-4.05.792l.041-.01c.015-.1.036-.198.064-.296.028-.099.067-.194.116-.285.049-.092.102-.176.158-.253.056-.078.12-.148.19-.211.07-.07.147-.134.232-.19.084-.056.176-.106.274-.148.085-.035.176-.06.275-.074.098-.014.204-.02.316-.02.218 0 .411.034.58.105.169.063.317.165.443.306.127.133.225.291.296.474.07.183.112.387.126.612h-3.112v-.01zM54.64 44.5l-.022-.011c.141-.338.348-.602.623-.792.274-.196.608-.295 1.002-.295.31 0 .584.077.823.232.239.155.429.37.57.644.133.28.2.605.2.97-.007.563-.155 1.01-.443 1.34-.288.33-.679.5-1.171.506-.295 0-.563-.063-.802-.19a1.471 1.471 0 0 1-.57-.527 1.443 1.443 0 0 1-.21-.78v-1.098zm-.011 2.531l-.01.032c.147.26.376.474.685.643.31.169.682.257 1.118.264.479 0 .9-.113 1.266-.338.366-.225.654-.541.865-.949.211-.408.317-.886.317-1.435 0-.548-.106-1.027-.317-1.435a2.359 2.359 0 0 0-.865-.949 2.327 2.327 0 0 0-1.245-.338c-.407 0-.76.078-1.055.233-.295.154-.548.38-.759.675v-2.11c-.007-.366-.081-.612-.222-.739a.637.637 0 0 0-.464-.179.75.75 0 0 0-.274.042c-.07.028-.106.053-.106.074v6.836c0 .19.043.324.127.4.084.071.2.106.348.106h.127a.48.48 0 0 0 .337-.116c.085-.07.127-.2.127-.39v-.327zM60.12 49.152l-.01.01.896-1.392c.098-.134.165-.25.2-.349a.91.91 0 0 0 .053-.285v-.063c0-.169-.042-.295-.127-.38a.456.456 0 0 0-.337-.126H60.7c-.183 0-.31.042-.38.126a.959.959 0 0 0-.169.38l-.58 1.836c-.028.112-.007.197.063.253.07.056.155.084.253.084a.313.313 0 0 0 .233-.084v-.01zM66.364 41.535h-.01c.21 0 .373-.05.485-.148.105-.098.157-.246.157-.443s-.048-.344-.146-.443c-.106-.098-.264-.148-.475-.148-.21 0-.373.053-.485.159-.113.098-.169.246-.169.443 0 .182.056.327.169.432.112.099.27.148.474.148zm.043 6.361v-.01a.496.496 0 0 0 .348-.116c.084-.07.126-.2.126-.39v-4.263c0-.197-.042-.33-.126-.4a.496.496 0 0 0-.348-.117H66.3a.47.47 0 0 0-.348.127c-.084.077-.127.21-.127.4v4.263c0 .19.043.32.127.39.084.077.2.116.348.116h.106zM69.545 43.413l-.012.02c-.028-.337-.104-.562-.23-.674a.577.577 0 0 0-.433-.17.748.748 0 0 0-.274.043c-.07.028-.107.053-.107.074v4.663c0 .19.042.32.129.39.084.077.2.116.346.116h.127a.48.48 0 0 0 .338-.116c.084-.07.126-.2.126-.39v-3.017c.127-.282.313-.503.56-.665.246-.162.545-.243.895-.243.387 0 .684.127.888.38.21.253.317.598.317 1.034v2.51c0 .19.042.32.126.39.084.078.2.117.347.117h.128c.14 0 .252-.039.337-.116.084-.07.126-.2.126-.39V44.73c0-.436-.07-.823-.21-1.16a1.686 1.686 0 0 0-.654-.791c-.296-.19-.675-.285-1.14-.285-.393 0-.736.084-1.024.253a2.1 2.1 0 0 0-.706.675v-.01zM77.726 42.748l-.01.01a.371.371 0 0 0-.138-.063.885.885 0 0 0-.21-.02h-1.183v-.802a.855.855 0 0 0-.032-.254.31.31 0 0 0-.24-.232.803.803 0 0 0-.191-.02h-.106a.79.79 0 0 0-.19.02.31.31 0 0 0-.147.085.328.328 0 0 0-.096.158.883.883 0 0 0-.032.243v.801h-.38c-.161 0-.278.032-.348.095a.319.319 0 0 0-.084.137.576.576 0 0 0-.02.159v.073c0 .057.006.11.02.159s.042.091.084.126c.042.042.092.07.148.085a.885.885 0 0 0 .21.02h.392v2.976c0 .492.12.865.358 1.118.239.246.598.369 1.077.369.274 0 .485-.028.633-.084a.7.7 0 0 0 .326-.211.511.511 0 0 0 .095-.232.465.465 0 0 0-.042-.285.324.324 0 0 0-.169-.148l-.252.032-.255.02c-.252 0-.443-.063-.569-.189-.126-.127-.19-.317-.19-.57V43.54h1.182a.874.874 0 0 0 .21-.021.314.314 0 0 0 .149-.084.298.298 0 0 0 .074-.127.74.74 0 0 0 .02-.18v-.073a.575.575 0 0 0-.02-.158.39.39 0 0 0-.074-.137v-.01zM83.67 44.024l-.032.043a2.437 2.437 0 0 0-.21-.454 1.963 1.963 0 0 0-.295-.38 2.55 2.55 0 0 0-.371-.306 1.864 1.864 0 0 0-.4-.221 2.989 2.989 0 0 0-1.023-.169c-.196 0-.385.018-.56.053a1.905 1.905 0 0 0-.506.147c-.323.141-.605.338-.844.591a3.755 3.755 0 0 0-.316.412c-.099.14-.183.295-.253.464-.064.169-.11.344-.138.527a3.754 3.754 0 0 0-.042.57c0 .204.014.397.042.58.028.183.074.359.138.528.07.168.154.323.253.464.092.14.196.267.316.38.076.084.2.182.369.295.168.113.387.21.653.295.269.092.591.138.972.138.253 0 .5-.025.738-.074.24-.05.457-.123.655-.222.252-.14.42-.278.505-.411.084-.14.12-.268.106-.38a.483.483 0 0 0-.116-.274.318.318 0 0 0-.126-.106.237.237 0 0 0-.169-.021 5.602 5.602 0 0 1-.338.243 2.418 2.418 0 0 1-.56.274c-.21.07-.434.105-.675.105a1.86 1.86 0 0 1-.589-.084 1.545 1.545 0 0 1-.403-.19 1.561 1.561 0 0 1-.23-.18 1.165 1.165 0 0 1-.19-.22 1.64 1.64 0 0 1-.285-.591 2.715 2.715 0 0 1-.064-.36h3.82c.12 0 .206-.02.262-.063a.345.345 0 0 0 .054-.105.47.47 0 0 0 .02-.148v-.084c0-.197-.014-.387-.042-.57a2.7 2.7 0 0 0-.126-.496zm-4.05.792l.042-.01c.014-.1.034-.198.062-.296.028-.099.068-.194.116-.285.05-.092.102-.176.158-.253.056-.078.12-.148.19-.211a1.613 1.613 0 0 1 .507-.337c.085-.036.175-.06.275-.075a2.22 2.22 0 0 1 .315-.02 1.5 1.5 0 0 1 .581.105c.168.063.317.165.443.306.126.133.224.291.295.474.072.183.114.387.128.612H79.62v-.01zM84.752 44.963l.03-.052c0 .506.102.942.307 1.308.204.365.485.647.843.844.359.197.77.295 1.235.295.35 0 .681-.077.992-.232a2.19 2.19 0 0 0 .801-.749v.696c0 .563-.15.985-.453 1.266-.296.281-.74.422-1.33.422a4.32 4.32 0 0 1-.686-.053 3.006 3.006 0 0 1-.653-.179l-.591-.295c-.042-.007-.094.007-.158.042a.433.433 0 0 0-.149.18.428.428 0 0 0-.042.337.67.67 0 0 0 .18.264c.085.084.173.15.263.2.086.05.148.08.19.095a4.713 4.713 0 0 0 1.645.295c.48 0 .899-.06 1.257-.18.35-.119.648-.298.886-.537.224-.218.393-.489.507-.812a3.48 3.48 0 0 0 .168-1.14v-4.24c-.008-.029-.052-.057-.138-.085a.828.828 0 0 0-.262-.042c-.21.014-.373.091-.485.232-.113.134-.177.33-.19.59a1.923 1.923 0 0 0-.74-.664 2.313 2.313 0 0 0-1.032-.221c-.557.014-1.01.14-1.363.38a2.2 2.2 0 0 0-.78.907 2.672 2.672 0 0 0-.252 1.128zm.98-.031l-.02.02c0-.477.146-.857.443-1.139.288-.28.691-.425 1.212-.432.429.007.77.109 1.024.306.26.204.449.46.57.77v.464c0 .296-.075.56-.223.791a1.668 1.668 0 0 1-.59.56 1.7 1.7 0 0 1-.823.2c-.295 0-.563-.06-.802-.18a1.395 1.395 0 0 1-.569-.516c-.148-.225-.222-.503-.222-.834v-.01zM94.028 42.537l.022.032c-.24 0-.493.112-.759.337-.26.225-.489.563-.685 1.013v-.432c0-.092-.004-.18-.012-.264a.7.7 0 0 0-.043-.2.47.47 0 0 0-.062-.148.529.529 0 0 0-.096-.127l-.084-.084a.337.337 0 0 0-.126-.064.397.397 0 0 0-.127-.02.767.767 0 0 0-.126-.011.53.53 0 0 0-.148.02l-.126.043a.228.228 0 0 0-.084.042c-.015.014-.023.025-.023.032V47.4c0 .099.01.183.033.254.022.07.052.123.094.158.042.042.092.07.148.084a.78.78 0 0 0 .19.021h.127a.78.78 0 0 0 .19-.021.308.308 0 0 0 .146-.084.338.338 0 0 0 .117-.158.855.855 0 0 0 .032-.254v-1.783c.022-.576.15-1.033.39-1.37.239-.339.594-.557 1.065-.655.072-.014.16-.028.264-.042l.21-.032c.029-.007.059-.05.087-.126a.74.74 0 0 0 .042-.232c-.022-.212-.096-.366-.223-.465a.685.685 0 0 0-.433-.147v-.01zM100.089 44.626l.032-.032v-.042c-.02-.633-.207-1.118-.56-1.456a1.91 1.91 0 0 0-.707-.422 3.089 3.089 0 0 0-1.002-.148c-.224 0-.443.014-.653.043-.21.028-.415.07-.611.126-.227.057-.387.134-.485.232a.528.528 0 0 0-.159.549.66.66 0 0 0 .137.221c.064.078.116.116.158.116.014-.014.08-.049.2-.105.127-.056.295-.109.507-.158.21-.05.463-.074.76-.074.435 0 .77.102 1.002.306.238.21.359.513.359.907v.063h-.149c-.591.015-1.104.057-1.54.127a4.664 4.664 0 0 0-1.097.316c-.28.134-.493.31-.633.528-.14.225-.21.492-.21.802 0 .225.037.429.115.611.077.183.193.342.35.475.153.14.34.243.558.306.21.07.457.106.738.106.21 0 .409-.021.591-.064a1.97 1.97 0 0 0 .505-.19c.156-.084.297-.182.423-.295.126-.112.238-.243.336-.39.009.169.027.31.055.422.028.112.07.197.126.253a.534.534 0 0 0 .2.127.771.771 0 0 0 .265.042.836.836 0 0 0 .136-.01.451.451 0 0 0 .222-.063c.02-.015.03-.03.03-.043v-3.186zm-1.035.749l.013.021v.4a1.48 1.48 0 0 1-.117.57 1.358 1.358 0 0 1-.326.443c-.07.057-.149.11-.233.159a1.64 1.64 0 0 1-.274.126c-.107.035-.21.06-.317.074a2.712 2.712 0 0 1-.337.021 1.95 1.95 0 0 1-.423-.042.84.84 0 0 1-.316-.158c-.169-.127-.253-.31-.253-.549 0-.182.048-.337.147-.464.1-.126.244-.229.432-.306.183-.084.415-.148.698-.19.28-.042.62-.07 1.012-.084l.294-.01v-.011zM104.588 42.748l-.01.01a.361.361 0 0 0-.137-.063.892.892 0 0 0-.212-.02h-1.18v-.802a.855.855 0 0 0-.033-.254.325.325 0 0 0-.094-.158.367.367 0 0 0-.148-.074.79.79 0 0 0-.19-.02h-.105a.78.78 0 0 0-.19.02.316.316 0 0 0-.148.085.312.312 0 0 0-.095.158.813.813 0 0 0-.032.243v.801h-.38c-.16 0-.277.032-.347.095a.319.319 0 0 0-.084.137.576.576 0 0 0-.022.159v.073c0 .057.008.11.022.159.014.049.042.091.084.126a.31.31 0 0 0 .146.085.903.903 0 0 0 .213.02h.388v2.976c0 .492.12.865.36 1.118.24.246.598.369 1.075.369.275 0 .485-.028.634-.084.154-.057.264-.127.326-.211a.517.517 0 0 0 .096-.232.465.465 0 0 0-.042-.285.34.34 0 0 0-.168-.148l-.254.032-.253.02c-.255 0-.443-.063-.57-.189-.127-.127-.19-.317-.19-.57V43.54h1.18a.88.88 0 0 0 .213-.021.308.308 0 0 0 .22-.21.739.739 0 0 0 .023-.18v-.074a.574.574 0 0 0-.022-.158.361.361 0 0 0-.074-.137v-.01zM106.43 41.535h-.01c.21 0 .372-.05.484-.148.104-.098.159-.246.159-.443s-.05-.344-.149-.443c-.106-.098-.264-.148-.475-.148-.21 0-.372.053-.485.159-.112.098-.168.246-.168.443 0 .182.056.327.168.432.113.099.27.148.475.148zm.041 6.361v-.01a.496.496 0 0 0 .349-.116c.084-.07.126-.2.126-.39v-4.263c0-.197-.042-.33-.126-.4a.496.496 0 0 0-.349-.117h-.106a.469.469 0 0 0-.347.127c-.086.077-.128.21-.128.4v4.263c0 .19.042.32.128.39.085.077.2.116.347.116h.106zM110.948 47.991c.535 0 1.006-.116 1.415-.348.407-.225.728-.542.96-.95.225-.407.337-.879.337-1.413 0-.535-.112-1.006-.337-1.414a2.434 2.434 0 0 0-.95-.96c-.409-.239-.88-.358-1.413-.358-.543 0-1.016.116-1.425.348a2.453 2.453 0 0 0-.96.95c-.224.407-.336.878-.336 1.413 0 .541.112 1.016.337 1.424.224.408.54.728.95.96.406.232.881.348 1.422.348zm-.01-.907l.01.02a1.68 1.68 0 0 1-1.519-.907 1.985 1.985 0 0 1-.23-.97c0-.358.076-.679.23-.96.149-.274.357-.489.624-.643.26-.155.559-.232.895-.232.339 0 .638.077.898.232.253.161.453.383.601.664.149.282.22.605.22.97 0 .352-.071.669-.22.95a1.63 1.63 0 0 1-.61.654c-.261.155-.56.232-.899.232v-.01zM115.964 43.413l-.01.02c-.028-.337-.104-.562-.232-.674a.572.572 0 0 0-.431-.17.74.74 0 0 0-.275.043c-.07.028-.106.053-.106.074v4.663c0 .19.042.32.126.39.085.077.2.116.35.116h.125c.14 0 .253-.039.34-.116.083-.07.125-.2.125-.39v-3.017c.127-.282.313-.503.56-.665.244-.162.545-.243.895-.243.387 0 .684.127.886.38.21.253.317.598.317 1.034v2.51c0 .19.042.32.126.39a.5.5 0 0 0 .349.117h.126c.14 0 .254-.039.339-.116.084-.07.126-.2.126-.39V44.73c0-.436-.07-.823-.21-1.16a1.69 1.69 0 0 0-.656-.791c-.295-.19-.675-.285-1.138-.285-.395 0-.736.084-1.024.253a2.106 2.106 0 0 0-.708.675v-.01zM121.33 46.577l.073.085a2.28 2.28 0 0 1-.116-.085 2.419 2.419 0 0 0-.116-.084.371.371 0 0 0-.169.042.493.493 0 0 0-.148.148c-.084.126-.09.281-.02.464.07.183.267.345.59.485.254.113.506.197.759.254.254.056.507.084.76.084.33 0 .647-.05.95-.148.302-.105.552-.278.749-.517.196-.239.298-.555.306-.95v-.02c-.008-.31-.096-.56-.264-.75a1.746 1.746 0 0 0-.633-.463 5.72 5.72 0 0 0-.802-.306l-.106-.042a6.964 6.964 0 0 1-.612-.2 1.47 1.47 0 0 1-.442-.254.46.46 0 0 1-.169-.359v-.02c0-.198.076-.353.233-.465.154-.113.364-.169.631-.169.19 0 .399.035.623.106.225.07.465.168.718.295a.525.525 0 0 1 .126.063c.05.021.088.039.116.053a.721.721 0 0 0 .148-.074c.063-.028.117-.098.159-.21.056-.155.042-.29-.042-.402a.996.996 0 0 0-.317-.274 1.07 1.07 0 0 0-.274-.127 3.604 3.604 0 0 0-.634-.19 3.217 3.217 0 0 0-.633-.063c-.379 0-.71.067-.992.2a1.48 1.48 0 0 0-.653.55c-.155.238-.233.513-.233.822v.021c.008.324.092.584.255.78.168.198.378.353.631.465.254.113.521.197.802.253l.128.042c.33.085.607.183.832.296.226.112.342.281.348.506v.021a.548.548 0 0 1-.252.485c-.169.113-.405.17-.708.17a2.66 2.66 0 0 1-.801-.127 3.45 3.45 0 0 1-.802-.38v-.01zM131.477 43.581h.032a2.01 2.01 0 0 1-.422-.527 1.212 1.212 0 0 1-.149-.601c0-.268.078-.49.233-.665.162-.176.399-.267.707-.274.267 0 .485.084.654.253a.875.875 0 0 1 .254.643.914.914 0 0 1-.317.707c-.212.183-.54.338-.992.464zm1.72 2.712l-.022-.011a2.69 2.69 0 0 1-.79.633c-.296.155-.619.232-.972.232-.463 0-.835-.113-1.118-.338-.28-.232-.425-.566-.43-1.002 0-.365.111-.66.336-.886.224-.225.523-.397.896-.517l2.1 1.889zm-1.128-2.216l.02-.01c.52-.155.921-.373 1.202-.654.283-.289.423-.637.423-1.045 0-.323-.078-.608-.233-.854a1.603 1.603 0 0 0-.643-.58 1.965 1.965 0 0 0-.928-.211c-.395 0-.74.077-1.034.232a1.69 1.69 0 0 0-.685.633 1.62 1.62 0 0 0-.243.875c0 .281.056.542.169.78.112.24.26.451.443.634-.55.169-.978.418-1.287.749-.31.33-.469.752-.475 1.266 0 .45.104.83.317 1.14.21.308.505.544.885.706.38.169.824.253 1.33.253.498 0 .953-.095 1.36-.285a3.488 3.488 0 0 0 1.098-.844l.75.718c.132.14.258.232.378.274.12.042.229.063.327.063a.636.636 0 0 0 .369-.116.545.545 0 0 0 .17-.21c.034-.071.044-.113.03-.127l-1.465-1.32c.225-.33.417-.688.58-1.075a6.71 6.71 0 0 0 .4-1.234c0-.014-.018-.046-.052-.095a.462.462 0 0 0-.148-.127.53.53 0 0 0-.275-.063.537.537 0 0 0-.359.126c-.098.085-.182.24-.252.464-.07.268-.148.518-.233.75a4.05 4.05 0 0 1-.316.675l-1.623-1.477v-.01zM142.195 42.537l.022.032c-.24 0-.493.112-.76.337-.26.225-.489.563-.687 1.013v-.432c0-.092-.002-.18-.01-.264a.7.7 0 0 0-.042-.2.431.431 0 0 0-.064-.148.47.47 0 0 0-.094-.127l-.085-.084a.37.37 0 0 0-.126-.064.397.397 0 0 0-.126-.02.79.79 0 0 0-.128-.011.527.527 0 0 0-.147.02l-.126.043a.212.212 0 0 0-.084.042c-.016.014-.022.025-.022.032V47.4c0 .099.01.183.032.254a.31.31 0 0 0 .094.158c.042.042.092.07.148.084.057.014.12.021.189.021h.128c.07 0 .132-.007.19-.021a.308.308 0 0 0 .147-.084.338.338 0 0 0 .116-.158.855.855 0 0 0 .032-.254v-1.783c.02-.576.15-1.033.39-1.37.24-.339.594-.557 1.065-.655a4.31 4.31 0 0 1 .264-.042c.099-.014.169-.025.21-.032.029-.007.057-.05.085-.126a.74.74 0 0 0 .042-.232c-.02-.212-.094-.366-.22-.465a.685.685 0 0 0-.433-.147v-.01zM148.604 44.024l-.032.043a2.437 2.437 0 0 0-.21-.454 1.973 1.973 0 0 0-.297-.38 2.533 2.533 0 0 0-.37-.306 1.864 1.864 0 0 0-.4-.221 3.04 3.04 0 0 0-1.022-.169c-.198 0-.385.018-.56.053a1.905 1.905 0 0 0-.506.147c-.325.141-.605.338-.844.591a3.755 3.755 0 0 0-.316.412c-.099.14-.183.295-.255.464a2.717 2.717 0 0 0-.136.527 3.754 3.754 0 0 0-.042.57c0 .204.014.397.042.58.028.183.074.359.136.528.072.168.156.323.255.464.09.14.196.267.316.38.076.084.2.182.369.295.168.113.387.21.653.295.269.092.591.138.972.138.253 0 .5-.025.738-.074.238-.05.457-.123.653-.222.254-.14.423-.278.507-.411.084-.14.12-.268.106-.38a.497.497 0 0 0-.116-.274.318.318 0 0 0-.126-.106.242.242 0 0 0-.17-.021c-.035.028-.09.07-.169.127a2.131 2.131 0 0 1-.168.116 2.418 2.418 0 0 1-.56.274c-.21.07-.436.105-.675.105-.224 0-.42-.028-.591-.084a1.529 1.529 0 0 1-.4-.19 1.561 1.561 0 0 1-.231-.18 1.098 1.098 0 0 1-.19-.22 1.64 1.64 0 0 1-.285-.591 2.715 2.715 0 0 1-.064-.36h3.82c.118 0 .206-.02.262-.063a.396.396 0 0 0 .074-.253v-.084c0-.197-.014-.387-.042-.57a2.7 2.7 0 0 0-.126-.496zm-4.052.792l.044-.01c.014-.1.034-.198.062-.296.028-.099.066-.194.116-.285.048-.092.102-.176.158-.253.056-.078.12-.148.19-.211a1.672 1.672 0 0 1 .505-.337c.087-.036.177-.06.275-.075a2.25 2.25 0 0 1 .317-.02c.218 0 .41.034.581.105.168.063.317.165.443.306.126.133.224.291.295.474.07.183.112.387.126.612h-3.112v-.01zM151.035 44.5l-.02-.011a1.75 1.75 0 0 1 .62-.792c.275-.196.61-.295 1.003-.295.31 0 .585.077.823.232.239.155.43.37.57.644.134.28.2.605.2.97-.006.563-.154 1.01-.443 1.34-.289.33-.68.5-1.17.506a1.68 1.68 0 0 1-.802-.19 1.476 1.476 0 0 1-.571-.527 1.445 1.445 0 0 1-.21-.78v-1.098zm-.033 2.51l.023.01c.14.26.364.486.675.676.308.183.677.281 1.106.295.479 0 .902-.112 1.267-.337a2.35 2.35 0 0 0 .865-.95c.21-.408.317-.886.317-1.435 0-.548-.106-1.027-.317-1.434a2.349 2.349 0 0 0-.865-.95 2.321 2.321 0 0 0-1.245-.337c-.409 0-.763.084-1.066.253a2.36 2.36 0 0 0-.76.707c-.014-.352-.088-.591-.22-.718a.64.64 0 0 0-.465-.18.752.752 0 0 0-.274.043c-.07.028-.105.053-.105.074v6.73c0 .19.042.324.127.401.084.07.2.106.348.106h.127c.14 0 .252-.035.336-.106.084-.077.126-.21.126-.4V47.01zM158.898 47.991c.535 0 1.006-.116 1.415-.348.407-.225.728-.542.96-.95.224-.407.337-.879.337-1.413 0-.535-.113-1.006-.337-1.414a2.434 2.434 0 0 0-.95-.96c-.409-.239-.88-.358-1.413-.358-.543 0-1.016.116-1.425.348a2.44 2.44 0 0 0-.96.95c-.224.407-.336.878-.336 1.413 0 .541.112 1.016.337 1.424.224.408.54.728.95.96.406.232.881.348 1.422.348zm-.01-.907l.01.02a1.68 1.68 0 0 1-1.519-.907 1.986 1.986 0 0 1-.232-.97c0-.358.078-.679.232-.96.149-.274.357-.489.623-.643.261-.155.56-.232.896-.232.339 0 .638.077.898.232.253.161.453.383.601.664.149.282.22.605.22.97 0 .352-.071.669-.22.95a1.63 1.63 0 0 1-.61.654c-.261.155-.56.232-.899.232v-.01zM165.317 42.537l.022.032c-.238 0-.493.112-.76.337-.26.225-.488.563-.685 1.013v-.432c0-.092-.004-.18-.01-.264a.87.87 0 0 0-.042-.2.525.525 0 0 0-.064-.148.517.517 0 0 0-.094-.127l-.086-.084a.337.337 0 0 0-.127-.064.397.397 0 0 0-.126-.02.767.767 0 0 0-.126-.011.541.541 0 0 0-.148.02l-.127.043a.228.228 0 0 0-.084.042c-.014.014-.022.025-.022.032V47.4c0 .099.012.183.032.254.022.07.052.123.096.158.043.042.09.07.147.084a.78.78 0 0 0 .19.021h.126a.78.78 0 0 0 .19-.021.314.314 0 0 0 .149-.084.352.352 0 0 0 .116-.158c.02-.07.03-.155.03-.254v-1.783c.022-.576.153-1.033.391-1.37.239-.339.595-.557 1.066-.655.07-.014.159-.028.263-.042.1-.014.17-.025.212-.032.028-.007.056-.05.084-.126a.74.74 0 0 0 .042-.232c-.022-.212-.096-.366-.222-.465a.685.685 0 0 0-.433-.147v-.01zM170.007 42.748l-.01.01a.361.361 0 0 0-.137-.063.903.903 0 0 0-.212-.02h-1.18v-.802a.927.927 0 0 0-.033-.254.325.325 0 0 0-.094-.158.38.38 0 0 0-.148-.074.79.79 0 0 0-.19-.02h-.107a.774.774 0 0 0-.188.02.316.316 0 0 0-.148.085.312.312 0 0 0-.095.158.813.813 0 0 0-.032.243v.801h-.38c-.16 0-.277.032-.347.095a.345.345 0 0 0-.086.137.576.576 0 0 0-.02.159v.073c0 .057.006.11.02.159.016.049.044.091.086.126a.31.31 0 0 0 .146.085.892.892 0 0 0 .213.02h.388v2.976c0 .492.12.865.36 1.118.24.246.598.369 1.075.369.275 0 .485-.028.634-.084.154-.057.264-.127.326-.211a.541.541 0 0 0 .096-.232.465.465 0 0 0-.042-.285.335.335 0 0 0-.17-.148l-.253.032-.252.02c-.255 0-.443-.063-.571-.189-.126-.127-.189-.317-.189-.57V43.54h1.18a.892.892 0 0 0 .213-.021.308.308 0 0 0 .22-.21.739.739 0 0 0 .023-.18v-.074a.574.574 0 0 0-.022-.158.361.361 0 0 0-.074-.137v-.01zM171.848 41.535h-.012c.213 0 .373-.05.487-.148.104-.098.158-.246.158-.443s-.05-.344-.148-.443c-.106-.098-.264-.148-.475-.148-.21 0-.373.053-.485.159-.112.098-.168.246-.168.443 0 .182.056.327.168.432.112.099.27.148.475.148zm.042 6.361v-.01a.494.494 0 0 0 .347-.116c.086-.07.128-.2.128-.39v-4.263c0-.197-.042-.33-.128-.4a.494.494 0 0 0-.347-.117h-.106a.474.474 0 0 0-.349.127c-.084.077-.126.21-.126.4v4.263c0 .19.042.32.126.39a.5.5 0 0 0 .35.116h.105zM175.029 43.413l-.01.02c-.03-.337-.107-.562-.233-.674a.574.574 0 0 0-.433-.17.748.748 0 0 0-.274.043c-.07.028-.107.053-.107.074v4.663c0 .19.043.32.129.39.084.077.2.116.346.116h.127a.48.48 0 0 0 .338-.116c.085-.07.127-.2.127-.39v-3.017c.126-.282.312-.503.559-.665.246-.162.545-.243.895-.243.387 0 .684.127.888.38.21.253.315.598.315 1.034v2.51c0 .19.044.32.128.39.084.078.2.117.347.117h.128c.14 0 .253-.039.337-.116.084-.07.126-.2.126-.39V44.73c0-.436-.07-.823-.21-1.16a1.686 1.686 0 0 0-.654-.791c-.296-.19-.675-.285-1.14-.285-.393 0-.735.084-1.024.253a2.082 2.082 0 0 0-.705.675v-.01zM179.96 44.963l.03-.052c0 .506.103.942.307 1.308.205.365.485.647.844.844.359.197.77.295 1.234.295.353 0 .682-.077.992-.232a2.19 2.19 0 0 0 .802-.749v.696c0 .563-.15.985-.453 1.266-.297.281-.74.422-1.33.422a4.32 4.32 0 0 1-.686-.053 3.006 3.006 0 0 1-.653-.179l-.592-.295c-.042-.007-.094.007-.158.042a.433.433 0 0 0-.148.18.428.428 0 0 0-.042.337.67.67 0 0 0 .18.264c.084.084.172.15.263.2.086.05.148.08.19.095a4.713 4.713 0 0 0 1.645.295c.48 0 .898-.06 1.257-.18.35-.119.647-.298.886-.537a2.05 2.05 0 0 0 .507-.812 3.48 3.48 0 0 0 .168-1.14v-4.24c-.008-.029-.052-.057-.138-.085a.828.828 0 0 0-.263-.042c-.21.014-.373.091-.485.232-.114.134-.176.33-.19.59a1.923 1.923 0 0 0-.74-.664 2.316 2.316 0 0 0-1.034-.221c-.555.014-1.008.14-1.358.38a2.19 2.19 0 0 0-.782.907 2.672 2.672 0 0 0-.253 1.128zm.98-.031l-.02.02c0-.477.147-.857.443-1.139.289-.28.692-.425 1.213-.432.429.007.77.109 1.024.306.258.204.449.46.569.77v.464c0 .296-.074.56-.223.791a1.668 1.668 0 0 1-.589.56 1.7 1.7 0 0 1-.823.2c-.295 0-.564-.06-.802-.18a1.395 1.395 0 0 1-.57-.516c-.147-.225-.222-.503-.222-.834v-.01z"/></g><path d="M4.844 10.312c1.352-1.444 3.163-2.386 5.474-2.386 2.94 0 5.033 1.205 6.238 3.314 1.422-1.908 3.53-3.314 6.452-3.314 2.625 0 4.545.806 5.82 2.252 1.257 1.425 1.895 3.499 1.895 6.129v9.87c0 .932-.265 1.526-.66 1.902-.404.385-.975.564-1.69.564h-.391c-.709 0-1.29-.177-1.703-.557-.41-.377-.686-.973-.686-1.91v-9.4c0-1.42-.272-2.494-.882-3.205-.583-.676-1.47-.985-2.643-.985-1.724 0-3.27 1.07-4.152 2.664v10.926c0 .933-.265 1.527-.66 1.903-.404.385-.975.564-1.69.564h-.392c-.708 0-1.288-.177-1.702-.557-.41-.377-.687-.973-.687-1.91v-9.243c0-1.482-.273-2.598-.887-3.333-.581-.698-1.467-1.014-2.637-1.014-1.72 0-3.266 1.066-4.113 2.659v10.931c0 .937-.287 1.533-.697 1.91-.417.384-.99.557-1.653.557h-.43c-.716 0-1.287-.179-1.69-.564-.396-.376-.66-.97-.66-1.903V9.256c0-.136.048-.384.32-.59.238-.18.909-.468 1.716-.468.705 0 1.417.192 1.99.752.32.313.602.75.8 1.362zM58.604 28.487c-.837 0-1.378-.277-1.722-.654-.352-.39-.51-.908-.51-1.461v-.314c0-.972.322-1.459 1.245-2.521l9.008-10.795H58.76c-.752 0-1.301-.188-1.671-.5-.408-.344-.64-.848-.64-1.536v-.274c0-.688.232-1.192.64-1.538.37-.31.919-.498 1.67-.498h12.574c.833 0 1.37.263 1.712.626.358.378.52.89.52 1.45v.234c0 .884-.279 1.375-1.208 2.442l-9.196 10.953h8.407c.754 0 1.305.19 1.677.508.402.347.633.859.633 1.567v.235c0 .71-.23 1.22-.633 1.566-.372.32-.923.51-1.677.51H58.604zM80.514 5.613c-.909 0-1.626-.269-2.125-.73-.513-.476-.813-1.163-.813-2.05 0-.908.29-1.605.8-2.083.496-.466 1.223-.738 2.177-.738.965 0 1.67.268 2.146.73.483.47.753 1.162.753 2.09 0 .935-.284 1.619-.785 2.08-.484.448-1.197.701-2.153.701zm.216 23.03h-.392c-.71 0-1.29-.177-1.702-.558-.41-.377-.687-.973-.687-1.91v-15.47c0-.93.272-1.535.68-1.922.414-.395.996-.584 1.709-.584h.392c.715 0 1.288.181 1.694.573.391.379.656.981.656 1.933v15.47c0 .934-.265 1.528-.661 1.904-.403.384-.975.565-1.69.565z" fill="#E21C3C"/><path d="M47.568 15.918c-.07-1.016-.417-1.816-1.051-2.371-.74-.65-1.84-.96-3.244-.96-2.71 0-4.502.813-4.913 1.061l-.017.01a.584.584 0 0 1-.198.109c-.176.06-.43.062-.706-.104-.393-.236-.988-1.007-1.119-1.552-.128-.491-.17-1.213.23-1.916.36-.634 1.102-1.29 2.607-1.662 1.5-.404 3.041-.607 4.703-.607 2.899 0 5.157.786 6.628 2.254 1.355 1.316 2.1 3.213 2.184 5.713v11.733c0 .118-.029.256-.122.396-.084.128-.308.33-.688.493a.972.972 0 0 1-.075.026 4.377 4.377 0 0 1-1.15.141c-.894 0-1.582-.263-2.128-.81-.307-.306-.55-.758-.704-1.382-.61.6-1.307 1.09-2.09 1.497-1.219.63-2.646.93-4.244.93-2.215 0-3.912-.535-5.148-1.6-1.275-1.1-1.901-2.545-1.901-4.391 0-2.497 1.133-4.25 3.453-5.345l.004-.003c2.152-.995 5.367-1.572 9.69-1.66zm.013 3.701l-.406.015c-2.718.115-4.683.402-6.005.968a.052.052 0 0 1-.014.008c-1.091.436-1.682 1.13-1.682 2.158 0 .643.222 1.147.69 1.496l.034.029c.493.426 1.26.59 2.213.59.752 0 1.467-.105 2.15-.32a5.336 5.336 0 0 0 1.628-.934 4.27 4.27 0 0 0 1.013-1.423c.24-.585.38-1.167.38-1.788v-.799zM100.297 15.918c-.07-1.016-.418-1.816-1.051-2.371-.741-.65-1.84-.96-3.244-.96-2.71 0-4.502.813-4.913 1.061l-.017.01a.584.584 0 0 1-.198.109c-.176.06-.43.062-.706-.104-.393-.236-.989-1.007-1.119-1.552-.128-.491-.17-1.213.23-1.916.36-.634 1.102-1.29 2.607-1.662 1.5-.404 3.041-.607 4.703-.607 2.899 0 5.157.786 6.628 2.254 1.355 1.316 2.1 3.213 2.184 5.713v11.733c0 .118-.029.256-.122.396-.084.128-.308.33-.688.493a.972.972 0 0 1-.075.026 4.377 4.377 0 0 1-1.151.141c-.893 0-1.581-.263-2.127-.81-.307-.306-.55-.758-.705-1.382-.61.6-1.306 1.09-2.09 1.497-1.218.63-2.646.93-4.243.93-2.215 0-3.912-.535-5.148-1.6-1.275-1.1-1.902-2.545-1.902-4.391 0-2.497 1.133-4.25 3.454-5.345l.004-.003c2.151-.995 5.367-1.572 9.69-1.66zm.013 3.701l-.406.015c-2.718.115-4.684.402-6.005.968a.052.052 0 0 1-.014.008c-1.092.436-1.682 1.13-1.682 2.158 0 .643.221 1.147.69 1.496.01.01.022.02.034.029.493.426 1.26.59 2.213.59.751 0 1.467-.105 2.15-.32a5.336 5.336 0 0 0 1.628-.934 4.27 4.27 0 0 0 1.013-1.423c.24-.585.38-1.167.38-1.788v-.799z" fill="#3A5CAA"/><path d="M131.54 11.75v3.705h6.746c.74 0 1.283.205 1.653.523.418.36.665.88.665 1.585v.09c0 .735-.247 1.264-.653 1.626-.374.332-.919.542-1.665.542h-6.747v4.156h9.157c.726 0 1.263.206 1.632.527.409.358.656.878.656 1.58v.15c0 .74-.241 1.28-.63 1.65-.375.356-.92.578-1.658.578h-11.473c-.759 0-1.383-.272-1.827-.726-.432-.445-.702-1.075-.702-1.863V9.853c0-.78.266-1.418.694-1.87.445-.467 1.073-.75 1.835-.75h11.292c.747 0 1.292.21 1.664.541.407.363.654.89.654 1.627v.18c0 .738-.247 1.265-.654 1.628-.372.331-.917.54-1.664.54h-8.976zm14.402-2.398a.987.987 0 0 1-.016-.859c.102-.242.392-.589.851-.862.48-.285 1.153-.518 1.794-.518 1.17 0 2.151.574 2.63 2.003l4.476 12.536 4.477-12.54c.526-1.528 1.533-1.999 2.539-1.999.963 0 1.858.501 2.27.924.436.449.458.94.365 1.219a.366.366 0 0 1-.016.044l-6.956 17.617-.005.008c-.242.6-.545 1.011-.977 1.293-.406.265-.948.425-1.757.425-.777 0-1.303-.15-1.707-.412-.42-.273-.73-.68-.992-1.292l-.01-.022-6.777-17.09-.189-.475zm28.12 12.094v4.849c0 .665-.2 1.213-.55 1.606-.367.409-.91.682-1.68.682h-.452c-.733 0-1.261-.246-1.62-.645-.337-.371-.547-.911-.547-1.643V9.853c0-.78.267-1.418.697-1.87.443-.467 1.07-.75 1.831-.75h5.031c3.23 0 5.58.942 6.964 2.606.95 1.142 1.467 2.638 1.467 4.47 0 1.883-.502 3.396-1.445 4.542-1.375 1.672-3.741 2.595-7.106 2.595h-2.59zm-.031-9.907v5.663h2.68c1.473 0 2.526-.308 3.116-1.037.367-.454.53-1.06.53-1.795 0-.756-.161-1.367-.529-1.822-.584-.722-1.632-1.01-3.088-1.01h-2.709zM117.433 1.404a1.387 1.387 0 1 0-2.773 0v32.933a1.388 1.388 0 0 0 2.773 0V1.404z" fill="#0E1730"/></svg>
