<svg viewBox="0 0 91 100" xmlns="http://www.w3.org/2000/svg" fill-rule="evenodd" clip-rule="evenodd" stroke-linejoin="round" stroke-miterlimit="2"><g fill-rule="nonzero"><path d="M30.126 4.539l-.337.204a11.98 11.98 0 0 0-1.512 1.083l.972-.684H37.5L39 16.5 31.5 24 24 29.213v6.011c0 4.199 2.194 8.092 5.786 10.266l7.896 4.779L21 60h-3.217l-5.997-3.629A12 12 0 0 1 6 46.105V25.891c0-4.2 2.196-8.094 5.789-10.268l18-10.888c.112-.067.224-.133.337-.196z" fill="url(#a)" transform="matrix(1.51521 0 0 1.51522 -9.092 -4.541)"/><path d="M30.126 4.539l-.337.204a11.98 11.98 0 0 0-1.512 1.083l.972-.684H37.5L39 16.5 31.5 24 24 29.213v6.011c0 4.199 2.194 8.092 5.786 10.266l7.896 4.779L21 60h-3.217l-5.997-3.629A12 12 0 0 1 6 46.105V25.891c0-4.2 2.196-8.094 5.789-10.268l18-10.888c.112-.067.224-.133.337-.196z" fill="url(#b)" transform="matrix(1.51521 0 0 1.51522 -9.092 -4.541)"/><path d="M48 28.5v6.72c0 4.199-2.194 8.092-5.786 10.266l-18 10.896a12 12 0 0 1-12.011.241l17.583 10.643a12.001 12.001 0 0 0 12.428 0l18-10.896A11.999 11.999 0 0 0 66 46.105V41.25L64.5 39 48 28.5z" fill="url(#c)" transform="matrix(1.51521 0 0 1.51522 -9.092 -4.541)"/><path d="M48 28.5v6.72c0 4.199-2.194 8.092-5.786 10.266l-18 10.896a12 12 0 0 1-12.011.241l17.583 10.643a12.001 12.001 0 0 0 12.428 0l18-10.896A11.999 11.999 0 0 0 66 46.105V41.25L64.5 39 48 28.5z" fill="url(#d)" transform="matrix(1.51521 0 0 1.51522 -9.092 -4.541)"/><path d="M60.211 15.623l-18-10.888a12.002 12.002 0 0 0-12.064-.208l-.358.216A12.002 12.002 0 0 0 24 15.011v14.226l5.789-3.502a12.004 12.004 0 0 1 12.422 0l18 10.888a12.003 12.003 0 0 1 5.783 9.875c.004-.131.006-.262.006-.393V25.891c0-4.2-2.196-8.094-5.789-10.268z" fill="url(#e)" transform="matrix(1.51521 0 0 1.51522 -9.092 -4.541)"/><path d="M60.211 15.623l-18-10.888a12.002 12.002 0 0 0-12.064-.208l-.358.216A12.002 12.002 0 0 0 24 15.011v14.226l5.789-3.502a12.004 12.004 0 0 1 12.422 0l18 10.888a12.003 12.003 0 0 1 5.783 9.875c.004-.131.006-.262.006-.393V25.891c0-4.2-2.196-8.094-5.789-10.268z" fill="url(#f)" transform="matrix(1.51521 0 0 1.51522 -9.092 -4.541)"/><path d="M6.006 46.498z" fill="url(#g)" transform="matrix(1.51521 0 0 1.51522 -9.092 -4.541)"/><path d="M6.006 46.498z" fill="url(#h)" transform="matrix(1.51521 0 0 1.51522 -9.092 -4.541)"/></g><defs><radialGradient id="a" cx="0" cy="0" r="1" gradientUnits="userSpaceOnUse" gradientTransform="matrix(-17.5503 46.8705 -81.7518 -30.6113 26.128 15.957)"><stop offset="0" stop-color="#AE7FE2"/><stop offset=".06" stop-color="#AE7FE2"/><stop offset="1" stop-color="#0078D4"/></radialGradient><linearGradient id="b" x2="1" gradientUnits="userSpaceOnUse" gradientTransform="scale(-14.2665) rotate(59.964 2.53 -3.586)"><stop offset="0" stop-color="#114A8B"/><stop offset="1" stop-color="#0078D4" stop-opacity="0"/></linearGradient><radialGradient id="c" cx="0" cy="0" r="1" gradientUnits="userSpaceOnUse" gradientTransform="matrix(46.0797 -6.77748 4.47698 30.4387 15.645 54.527)"><stop offset="0" stop-color="#D59DFF"/><stop offset=".13" stop-color="#D59DFF"/><stop offset="1" stop-color="#5E438F"/></radialGradient><linearGradient id="d" x2="1" gradientUnits="userSpaceOnUse" gradientTransform="rotate(124.892 20.337 34.825) scale(13.377)"><stop offset="0" stop-color="#493474"/><stop offset="1" stop-color="#8C66BA" stop-opacity="0"/></linearGradient><radialGradient id="e" cx="0" cy="0" r="1" gradientUnits="userSpaceOnUse" gradientTransform="matrix(-36.2375 -9.18833 15.4677 -61.0024 61.583 39.756)"><stop offset="0" stop-color="#50E6FF"/><stop offset=".06" stop-color="#50E6FF"/><stop offset="1" stop-color="#436DCD"/></radialGradient><linearGradient id="f" x2="1" gradientUnits="userSpaceOnUse" gradientTransform="translate(25.464 4.585) scale(11.2665)"><stop offset="0" stop-color="#2D3F80"/><stop offset="1" stop-color="#436DCD" stop-opacity="0"/></linearGradient><radialGradient id="g" cx="0" cy="0" r="1" gradientUnits="userSpaceOnUse" gradientTransform="matrix(-36.2375 -9.18833 15.4677 -61.0024 61.583 39.756)"><stop offset="0" stop-color="#50E6FF"/><stop offset=".06" stop-color="#50E6FF"/><stop offset="1" stop-color="#436DCD"/></radialGradient><linearGradient id="h" x2="1" gradientUnits="userSpaceOnUse" gradientTransform="translate(25.464 4.585) scale(11.2665)"><stop offset="0" stop-color="#2D3F80"/><stop offset="1" stop-color="#436DCD" stop-opacity="0"/></linearGradient></defs></svg>
