<svg viewBox="0 0 100 69" xmlns="http://www.w3.org/2000/svg" fill-rule="evenodd" clip-rule="evenodd" stroke-linejoin="round" stroke-miterlimit="2"><path d="M47.372 0l10.526 10.526H42.109v15.788H26.314v15.788h15.795l-2.638 2.632-5.263 5.263-.82.827-2.789 2.788-1.654 1.647-2.631 2.632-2.625 2.631-2.638 2.632-2.631 2.631L0 47.365l5.263-5.263h.007l2.624-2.631 13.157-13.157 2.638-2.631 2.625-2.632 2.638-2.631 2.625-2.632 2.638-2.631 2.631-2.631 2.625-2.632 2.638-2.631L47.372 0zM100 21.051L52.635 68.416 42.109 57.891h15.789V42.102h15.788V26.314H57.898L81.58 2.631 100 21.051z" fill="hsl(224, 55%, 22%)"/></svg>
