<svg viewBox="0 0 84 50" xmlns="http://www.w3.org/2000/svg" fill-rule="evenodd" clip-rule="evenodd" stroke-linejoin="round" stroke-miterlimit="2"><path fill="none" d="M.02.006h83.333v50H.02z"/><path d="M42.549 7.828V5.096c.007-.028.066-.063.178-.105.114-.043.248-.064.401-.064.155 0 .303.035.444.106.142.07.256.196.348.38.098.175.148.425.148.749v5.612c0 .267-.063.453-.19.559a.706.706 0 0 1-.484.169h-.17c-.212 0-.38-.053-.506-.159-.126-.105-.191-.292-.191-.559v-.169c-.17.31-.397.553-.684.728-.297.176-.64.264-1.035.264-.478 0-.9-.112-1.266-.337a2.281 2.281 0 0 1-.855-.96c-.21-.415-.316-.9-.316-1.456 0-.563.102-1.052.306-1.467.21-.408.5-.724.865-.95.366-.224.796-.337 1.287-.337.393 0 .735.074 1.024.222.289.14.509.33.664.57l.032-.064zm-.022 2.342V9.157a1.369 1.369 0 0 0-.495-.622c-.224-.148-.5-.222-.824-.222-.42 0-.752.141-.99.423-.246.28-.37.66-.37 1.139.006.464.138.837.39 1.118.247.281.568.425.96.433.246 0 .468-.053.665-.159.196-.105.355-.25.475-.432.12-.19.18-.412.18-.665h.009zm7.363 1.561v.074c0 .268-.063.454-.189.56a.705.705 0 0 1-.485.168h-.169c-.212 0-.38-.052-.507-.158-.126-.105-.189-.292-.189-.56V5.16c.006-.028.067-.063.18-.105.111-.042.245-.063.4-.063.155 0 .303.035.442.105.142.07.258.197.348.38.1.176.15.425.15.749v1.761a2.023 2.023 0 0 1 1.708-.865c.478 0 .899.113 1.266.338.366.225.653.542.865.95.21.407.316.893.316 1.455 0 .549-.102 1.034-.306 1.456-.21.415-.5.738-.865.97-.365.233-.794.349-1.287.349-.409-.007-.752-.095-1.033-.264a1.786 1.786 0 0 1-.645-.644v-.001zm0-1.571c0 .253.057.474.169.664.114.19.267.338.466.443.196.113.42.17.674.17.414-.008.743-.152.98-.433.248-.282.37-.655.37-1.119 0-.478-.12-.858-.358-1.139-.24-.281-.564-.425-.97-.433-.325 0-.598.078-.824.233a1.435 1.435 0 0 0-.507.632v.982zM29.284 8.03l-.004.006-.001-.007v.01l.001-.003.008.024-.004-.03c.181-.29.37-.513.564-.666.197-.155.401-.25.612-.285.275-.049.499-.039.675.032.175.07.3.183.37.337.07.163.085.345.041.517-.027.134-.07.215-.126.243-.049.028-.13.039-.243.032a2.725 2.725 0 0 0-.486.031c-.45.085-.793.296-1.033.633-.238.338-.358.777-.358 1.319v1.582c0 .268-.065.454-.19.56a.707.707 0 0 1-.486.168h-.169c-.21 0-.38-.052-.505-.158-.128-.105-.19-.295-.19-.57V7.333c.005-.029.066-.064.178-.106.112-.042.246-.063.401-.063a.963.963 0 0 1 .592.179c.177.123.294.352.353.687zm27.342 6.133l.022-.005v-.01l-.022.015c-.163.038-.357.05-.58.037a2.886 2.886 0 0 1-.695-.127 1.555 1.555 0 0 1-.56-.295.58.58 0 0 1-.232-.464c0-.183.106-.398.316-.644.126.057.25.106.37.148.12.042.236.074.348.095.204.042.406.05.61.021a.985.985 0 0 0 .53-.253c.076-.099.137-.183.178-.253a.835.835 0 0 0 .106-.243v-.053a.8.8 0 0 1-.316-.095.51.51 0 0 1-.19-.242l-1.814-4.22c-.016-.028.013-.077.084-.148a1.03 1.03 0 0 1 .717-.274.714.714 0 0 1 .486.158c.14.106.26.306.357.602l1.14 3.017 1.012-3.007c.092-.295.214-.5.37-.612a.718.718 0 0 1 .475-.158c.147 0 .285.028.41.084.128.057.229.12.307.19.071.07.106.12.106.148l-1.921 5.032c-.07.197-.17.401-.295.612-.126.21-.299.4-.517.57-.21.175-.485.305-.823.39l.021-.016zm-55.06-2.484v2.205c0 .267-.063.457-.19.57a.705.705 0 0 1-.485.168H.722c-.21 0-.38-.056-.506-.169-.127-.112-.19-.306-.19-.58v-6.52c.007-.028.067-.063.18-.105.112-.042.245-.067.4-.074a.929.929 0 0 1 .59.19c.184.127.303.366.36.717.168-.31.397-.548.685-.717.281-.169.626-.253 1.034-.253.478 0 .9.112 1.266.337.365.225.654.542.864.95.212.408.318.893.318 1.456 0 .548-.102 1.033-.306 1.456-.212.414-.5.738-.865.97-.366.232-.795.348-1.288.348-.407-.007-.752-.102-1.033-.285a1.902 1.902 0 0 1-.644-.675l-.02.01-.001.001zm.021-2.501v.981c0 .254.056.475.169.665.112.19.267.338.464.443.197.113.422.17.675.17.415-.008.742-.152.981-.433.247-.282.37-.655.37-1.119 0-.478-.12-.858-.359-1.139-.24-.281-.563-.425-.97-.433a1.42 1.42 0 0 0-.824.233 1.419 1.419 0 0 0-.506.632zm7.77 3.471c-.562 0-1.056-.112-1.478-.337a2.397 2.397 0 0 1-.98-.96c-.24-.415-.358-.897-.358-1.445 0-.55.118-1.03.357-1.446.24-.415.57-.738.993-.97.42-.232.914-.349 1.476-.349.556 0 1.045.117 1.467.349.421.232.751.555.99.97.233.422.349.908.349 1.456 0 .549-.12 1.027-.358 1.435-.232.408-.56.724-.98.95-.423.224-.916.337-1.478.337v.01zm.021-1.244v.01c.281 0 .535-.067.759-.2.226-.134.4-.317.528-.549.126-.24.19-.506.19-.802 0-.31-.064-.584-.19-.823a1.52 1.52 0 0 0-.516-.57 1.487 1.487 0 0 0-.77-.2c-.29 0-.547.067-.771.2-.226.141-.4.331-.529.57-.125.24-.188.514-.188.823.006.464.147.84.42 1.129.268.288.62.436 1.056.443l.011-.031zm5.638 1.148v.012c-.19 0-.36-.032-.507-.095-.14-.056-.242-.172-.304-.348l-1.372-4.505c-.008-.035.037-.088.136-.158.1-.07.218-.134.36-.19a1.2 1.2 0 0 1 .431-.084c.156 0 .303.049.445.148.14.098.233.274.284.527l.653 3.144.845-2.733a.625.625 0 0 1 .285-.38 1.01 1.01 0 0 1 .526-.126c.226 0 .41.042.549.127.135.087.23.223.265.38l.802 2.679.652-3.091c.05-.253.142-.429.275-.527a.707.707 0 0 1 .433-.148c.283.001.558.098.78.274.084.07.12.12.106.148l-1.33 4.503a.516.516 0 0 1-.306.348c-.148.064-.32.095-.517.095-.267 0-.464-.035-.591-.105-.126-.07-.223-.208-.285-.412l-.853-2.668-.877 2.668c-.057.204-.147.342-.275.412-.133.07-.326.105-.58.105h-.03zm11.303-2.298v.01h-3.63c.066.394.23.7.498.918.267.218.607.327 1.024.327.399 0 .719-.05.959-.148.23-.098.432-.25.591-.443.028-.028.098-.028.21 0a.653.653 0 0 1 .317.2c.098.106.151.26.159.465 0 .295-.19.541-.57.738-.381.197-.943.3-1.688.306-.578 0-1.077-.112-1.5-.337a2.473 2.473 0 0 1-.99-.95c-.24-.408-.36-.893-.36-1.456-.001-.5.123-.993.36-1.434.238-.422.566-.753.98-.992.41-.24.88-.359 1.414-.359.52 0 .978.113 1.371.338.395.225.704.534.93.928.218.394.326.851.326 1.372v.105c0 .14-.024.246-.073.317-.049.07-.145.105-.285.105l-.043-.01zm-3.574-.886h-.012l.01.01.002-.01zm0 0h2.562c-.021-.373-.137-.669-.348-.887-.212-.218-.499-.327-.866-.327-.366 0-.668.113-.906.338a1.474 1.474 0 0 0-.442.876zm14.43.886v.01h-3.63c.063.394.23.7.497.918.267.218.607.327 1.022.327.4 0 .72-.05.96-.148.23-.098.433-.25.592-.443.028-.028.098-.028.21 0a.653.653 0 0 1 .317.2c.098.106.151.26.157.465 0 .295-.189.541-.568.738-.381.197-.943.3-1.688.306-.578 0-1.077-.112-1.5-.337a2.473 2.473 0 0 1-.99-.95c-.24-.408-.36-.893-.36-1.456-.001-.5.123-.993.36-1.434.238-.422.566-.753.98-.992.41-.24.88-.359 1.414-.359.52 0 .978.113 1.371.338.395.225.704.534.93.928.218.394.326.851.326 1.372v.105c0 .14-.024.246-.073.317-.05.07-.145.105-.285.105l-.043-.01h.001zM33.6 9.369h-.012l.01.01.002-.01zm0 0h2.562c-.022-.373-.137-.669-.35-.887-.21-.218-.499-.327-.864-.327-.366 0-.668.113-.906.338a1.474 1.474 0 0 0-.442.876z" fill="#0E1730"/><path d="M1.788 49.541h-.83l-.932-2.78h.628l.707 2.234h.046l.697-2.233h.615l-.931 2.78zm1.481 0v-2.78h2.046v.5H3.852v.638h1.215v.496H3.852v.65h1.472v.496H3.27zm2.527-2.78H8.21v.519h-.917v2.261h-.578V47.28h-.918v-.518zm2.886 0h2.413v.519h-.918v2.261H9.6V47.28h-.917v-.518zm2.99 0h.583v2.78h-.583v-2.78zm1.386 0h.752l.871 1.413c.092.143.18.303.262.491h.027v-1.903h.533v2.78h-.652l-1.23-2.056h-.031v2.055h-.532v-2.78zm5.353 2.78l-.042-.426c-.174.316-.472.477-.899.477-.82 0-1.316-.51-1.316-1.404 0-.936.523-1.477 1.44-1.477.445 0 .803.092 1.069.4a.944.944 0 0 1 .22.582l-.596.046c-.05-.363-.29-.546-.72-.546-.5 0-.812.362-.812.972s.298.945.807.945c.317 0 .541-.12.674-.358a.646.646 0 0 0 .083-.234h-.78v-.454h1.376v1.477h-.504zm2.862-2.972V50h-.4v-3.431h.4zm1.972 2.972v-2.78h1.129c.862 0 1.39.445 1.39 1.322 0 .44-.138.793-.409 1.06-.275.265-.656.398-1.146.398h-.964zm.583-2.266v1.753h.408c.573 0 .927-.358.927-.922 0-.528-.312-.83-.849-.83h-.486zm4.45 2.266l-.226-.67h-1.105l-.225.67h-.619l1.018-2.78h.798l1.005 2.78h-.647zm-.799-2.234l-.362 1.065h.766l-.358-1.065h-.046zm1.49-.545h2.414v.518h-.918v2.261h-.578V47.28h-.917v-.518zm4.63 2.78l-.226-.67h-1.105l-.225.67h-.619l1.018-2.78h.798l1.005 2.78h-.647zm-.799-2.235l-.362 1.065h.766l-.358-1.065H32.8zm3.862.55c-.04-.44-.275-.66-.701-.66-.491 0-.78.363-.78.954 0 .606.298.945.78.945.38 0 .628-.21.697-.578l.587.028c-.069.674-.55 1.046-1.298 1.046-.863 0-1.367-.532-1.367-1.418 0-.458.128-.816.38-1.078.253-.257.588-.385 1.014-.385.372 0 .68.096.913.284.234.189.353.473.358.844l-.583.019zm1.257 1.684v-2.78h.583v2.262h1.252v.518h-1.835zm2.477 0v-2.78h2.046v.5h-1.463v.638h1.215v.496H40.98v.65h1.472v.496h-2.055zm4.679 0l-.225-.67h-1.105l-.225.67h-.62l1.019-2.78h.798l1.005 2.78h-.647zm-.798-2.234l-.363 1.065h.766l-.357-1.065h-.046zm1.99-.545h.753l.871 1.412c.092.143.18.303.262.491h.027v-1.903h.532v2.78h-.651l-1.23-2.056H46.8v2.055h-.533v-2.78zm5.601 0v1.697c0 .73-.436 1.133-1.183 1.133-.775 0-1.211-.386-1.211-1.133v-1.697h.582v1.614c0 .473.211.711.633.711.381 0 .601-.247.601-.692v-1.633h.578zm1.363 1.775v1.004h-.583v-2.78h1.16c.62 0 1.01.271 1.01.826 0 .61-.404.95-1.046.95h-.541zm0-1.28v.78h.477c.33 0 .509-.16.509-.413 0-.225-.142-.367-.431-.367h-.555zm3.756-.688V50h-.399v-3.431h.4zm3.546 2.527l-.023-.289c-.018-.215-.156-.325-.417-.325h-.551v1.06h-.582v-2.78h1.394c.564 0 .927.28.927.752 0 .436-.244.67-.684.702v.013c.312.032.473.152.495.45l.02.234c.013.142.077.215.187.215h.05l.015.418a.943.943 0 0 1-.28.037c-.33 0-.519-.133-.551-.487zm-.991-1.871v.766h.578c.367 0 .56-.165.56-.39 0-.252-.16-.376-.486-.376h-.652zm2.523 2.316v-2.78h2.046v.5h-1.463v.638h1.215v.496h-1.215v.65h1.472v.496h-2.055zm3.344-1.004v1.004h-.583v-2.78h1.161c.62 0 1.009.271 1.009.826 0 .61-.403.95-1.046.95h-.541zm0-1.28v.78h.477c.33 0 .51-.16.51-.413 0-.225-.143-.367-.432-.367h-.555zm2.454-.16c.262-.257.615-.386 1.06-.386.436 0 .784.129 1.036.38.253.258.38.606.38 1.042 0 .445-.127.803-.389 1.064-.261.262-.619.395-1.073.395-.436 0-.78-.129-1.032-.386-.253-.256-.377-.61-.377-1.064 0-.436.134-.784.395-1.046zm.207 1.05c0 .298.073.532.224.702a.737.737 0 0 0 .597.261c.536 0 .848-.367.848-.968 0-.587-.307-.95-.816-.95-.262 0-.473.083-.625.253-.15.17-.228.404-.228.702zm4.513.95l-.023-.29c-.018-.215-.156-.325-.417-.325h-.55v1.06h-.583v-2.78h1.394c.565 0 .927.28.927.752 0 .436-.243.67-.684.702v.013c.312.032.473.152.496.45l.018.234c.014.142.078.215.188.215h.05l.014.418a.943.943 0 0 1-.28.037c-.33 0-.518-.133-.55-.487zm-.99-1.872v.766h.577c.367 0 .56-.165.56-.39 0-.252-.16-.376-.486-.376h-.652zm2.174-.463h2.412v.518h-.917v2.261h-.578V47.28h-.917v-.518zm2.99 0h.582v2.78h-.582v-2.78zm1.386 0h.752l.871 1.412c.092.143.18.303.262.491h.027v-1.903h.532v2.78h-.65l-1.23-2.056h-.032v2.055h-.532v-2.78zm5.352 2.78l-.04-.427c-.175.316-.473.477-.9.477-.821 0-1.316-.51-1.316-1.404 0-.936.523-1.477 1.44-1.477.445 0 .803.092 1.069.4a.944.944 0 0 1 .22.582l-.596.046c-.05-.363-.29-.546-.72-.546-.5 0-.813.362-.813.972s.299.945.808.945c.316 0 .54-.12.674-.358a.655.655 0 0 0 .083-.234h-.78v-.454H84v1.477h-.505z" fill="#0F162E"/><path d="M2.406 38.92v2.751c0 .33-.116.61-.348.843a1.147 1.147 0 0 1-.842.347c-.33 0-.61-.115-.842-.347a1.147 1.147 0 0 1-.348-.843v-8.607c0-.32.103-.582.309-.788.206-.206.469-.31.788-.31h2.983c.463 0 .906.069 1.329.205.422.137.807.34 1.155.61.348.271.626.636.834 1.094.209.459.313.981.313 1.569 0 1.416-.566 2.42-1.7 3.013l1.731 2.457c.175.248.263.5.263.757 0 .33-.116.61-.348.843a1.147 1.147 0 0 1-.842.347c-.433 0-.778-.195-1.035-.587l-2.18-3.353h-1.22zm2.542-2.437c.273-.224.41-.57.41-1.04 0-.468-.137-.814-.41-1.039-.273-.224-.641-.336-1.105-.336H2.406v2.751h1.437c.464 0 .832-.112 1.105-.336zm11.49 6.301h-4.961c-.32 0-.582-.103-.788-.309a1.067 1.067 0 0 1-.31-.788v-8.623c0-.32.104-.582.31-.788.206-.206.468-.31.788-.31h4.96c.294 0 .543.102.746.306.204.203.305.452.305.746 0 .293-.101.542-.305.745a1.014 1.014 0 0 1-.746.305H12.76v2.117h3.044c.293 0 .542.102.745.306.204.203.306.452.306.745 0 .294-.102.543-.306.746a1.014 1.014 0 0 1-.745.305H12.76v2.395h3.677c.294 0 .543.102.746.306.204.203.305.452.305.745 0 .294-.101.543-.305.746a1.014 1.014 0 0 1-.746.305zm7.309-10.895c.762 0 1.288.402 1.576 1.206l2.89 8.144c.051.154.077.299.077.432 0 .33-.116.61-.347.843a1.147 1.147 0 0 1-.843.347c-.257 0-.49-.074-.695-.224a1.179 1.179 0 0 1-.433-.58l-.448-1.282h-3.57l-.432 1.283c-.078.237-.22.43-.43.58-.208.149-.441.223-.698.223-.33 0-.61-.115-.843-.347a1.147 1.147 0 0 1-.347-.843c0-.133.025-.278.077-.432l2.89-8.144c.288-.804.813-1.206 1.576-1.206zm0 3.663l-1.128 3.276h2.24l-1.112-3.276z" fill="#E21C3C"/><path d="M42.705 42.54c-.266.214-.594.321-.986.321-.391 0-.72-.107-.985-.32-.265-.214-.462-.509-.59-.885l-2.89-8.144a1.37 1.37 0 0 1-.078-.433c0-.33.116-.61.348-.842.232-.232.512-.348.842-.348.257 0 .49.075.7.224.208.15.35.343.428.58l2.225 6.506 2.226-6.506c.077-.237.22-.43.428-.58.21-.149.442-.224.7-.224.33 0 .61.116.842.348.232.232.348.513.348.842 0 .134-.026.278-.078.433l-2.89 8.144c-.128.376-.325.671-.59.885zm11.764.244h-4.961c-.32 0-.582-.103-.788-.309a1.067 1.067 0 0 1-.31-.788v-8.623c0-.32.104-.582.31-.788.206-.206.468-.31.788-.31h4.96c.294 0 .543.102.746.306.204.203.305.452.305.745 0 .294-.101.543-.305.746a1.014 1.014 0 0 1-.745.305H50.79v2.117h3.044c.294 0 .542.102.746.306.203.203.305.452.305.745 0 .294-.102.542-.305.746a1.014 1.014 0 0 1-.746.305H50.79v2.395h3.678c.293 0 .542.102.745.306.204.203.305.452.305.745 0 .294-.101.542-.305.746a1.014 1.014 0 0 1-.745.305zm5.5-8.716h-1.807c-.294 0-.542-.101-.746-.305a1.014 1.014 0 0 1-.305-.746c0-.293.102-.542.305-.745.204-.204.452-.305.746-.305h5.996c.293 0 .542.101.745.305.204.203.306.452.306.745 0 .294-.102.543-.306.746a1.014 1.014 0 0 1-.745.305H62.35v7.603c0 .33-.116.61-.348.843a1.147 1.147 0 0 1-.842.347c-.33 0-.61-.116-.842-.347a1.147 1.147 0 0 1-.348-.843v-7.603zm9.227 0h-1.809c-.293 0-.542-.101-.745-.305a1.014 1.014 0 0 1-.305-.746c0-.293.101-.542.305-.745.203-.204.452-.305.745-.305h5.996c.294 0 .543.101.746.305.204.203.305.452.305.745 0 .294-.101.543-.305.746a1.014 1.014 0 0 1-.746.305h-1.808v7.603c0 .33-.115.61-.347.843a1.147 1.147 0 0 1-.843.347c-.33 0-.61-.116-.842-.347a1.147 1.147 0 0 1-.347-.843v-7.603zm10.26-2.179c.763 0 1.289.402 1.577 1.206l2.89 8.144c.051.154.077.299.077.432 0 .33-.116.61-.348.843a1.147 1.147 0 0 1-.842.347c-.257 0-.49-.074-.695-.224a1.179 1.179 0 0 1-.433-.58l-.448-1.282h-3.57l-.432 1.283c-.078.237-.22.43-.43.58-.208.149-.441.223-.699.223-.33 0-.61-.116-.842-.347a1.147 1.147 0 0 1-.348-.843c0-.133.026-.278.078-.432l2.89-8.144c.288-.804.813-1.206 1.576-1.206zm0 3.663l-1.127 3.276h2.24l-1.112-3.276z" fill="#0F162E"/><path d="M32.82 44.245a.562.562 0 0 1-.562-.562v-12.75a.562.562 0 0 1 1.125 0v12.75c0 .31-.252.562-.562.562" fill="#0F162E" fill-rule="nonzero"/></svg>
