<svg viewBox="0 0 84 50" xmlns="http://www.w3.org/2000/svg" fill-rule="evenodd" clip-rule="evenodd" stroke-linejoin="round" stroke-miterlimit="2"><path fill="none" d="M.083-.002h83.333v50H.083z"/><path d="M42.609 7.818V5.086c.007-.028.066-.063.178-.105.114-.043.248-.064.401-.064.155 0 .303.035.444.106.142.07.256.196.348.38.098.175.148.425.148.749v5.612c0 .267-.063.453-.19.559a.706.706 0 0 1-.484.169h-.17c-.212 0-.38-.053-.506-.159-.126-.105-.191-.292-.191-.559v-.169c-.17.31-.397.553-.684.728-.297.176-.64.264-1.035.264-.478 0-.9-.112-1.266-.337a2.279 2.279 0 0 1-.855-.96c-.21-.415-.316-.9-.316-1.456 0-.563.102-1.052.306-1.467.21-.408.5-.724.865-.95.366-.224.796-.337 1.287-.337.393 0 .735.074 1.024.222.289.14.509.33.664.57l.032-.064zm-.022 2.342V9.147a1.367 1.367 0 0 0-.495-.622c-.224-.148-.5-.222-.824-.222-.42 0-.752.141-.99.423-.246.28-.37.66-.37 1.139.006.464.138.837.39 1.118.247.281.568.425.96.433.246 0 .468-.053.665-.159.196-.105.355-.25.475-.432.12-.19.18-.412.18-.665h.009zm7.363 1.561v.074c0 .268-.063.454-.189.56a.706.706 0 0 1-.485.168h-.169c-.212 0-.38-.052-.507-.158-.126-.105-.189-.292-.189-.56V5.15c.006-.028.067-.063.18-.105.111-.042.245-.063.4-.063.155 0 .303.035.442.105.142.07.258.197.348.38.1.176.15.425.15.749v1.761a2.022 2.022 0 0 1 1.708-.865c.478 0 .899.113 1.266.338.366.225.653.542.865.95.21.407.316.893.316 1.455 0 .549-.102 1.034-.306 1.456-.21.415-.5.738-.865.97-.365.233-.794.349-1.287.349-.409-.007-.752-.095-1.033-.264a1.782 1.782 0 0 1-.645-.644zm0-1.571c0 .253.057.474.169.664.114.19.267.338.466.443.196.113.42.17.674.17.414-.008.743-.152.98-.433.248-.282.37-.655.37-1.119 0-.478-.12-.858-.358-1.139-.24-.281-.564-.425-.97-.433-.325 0-.598.078-.824.233a1.433 1.433 0 0 0-.507.632v.982zM29.344 8.02l-.004.006-.001-.007v.01l.001-.003.008.024-.004-.03c.181-.29.37-.513.564-.666.197-.155.401-.25.612-.285.275-.049.499-.039.675.032.175.07.3.183.37.337a.804.804 0 0 1 .041.517c-.027.134-.07.215-.126.243-.049.028-.13.039-.243.032a2.715 2.715 0 0 0-.486.031c-.45.085-.793.296-1.033.633-.238.338-.358.777-.358 1.319v1.582c0 .268-.065.454-.19.56a.702.702 0 0 1-.486.168h-.169c-.21 0-.38-.052-.505-.158-.128-.105-.19-.295-.19-.57V7.323c.005-.029.066-.064.178-.106.112-.042.246-.063.401-.063a.962.962 0 0 1 .592.179c.177.123.294.352.353.687zm27.342 6.133l.022-.005v-.01l-.022.015c-.163.038-.357.05-.58.037a2.87 2.87 0 0 1-.695-.127 1.56 1.56 0 0 1-.56-.295.578.578 0 0 1-.232-.464c0-.183.106-.398.316-.644.126.057.25.106.37.148.12.042.236.074.348.095.204.042.406.05.61.021a.983.983 0 0 0 .53-.253c.076-.099.137-.183.178-.253a.845.845 0 0 0 .106-.243v-.053a.797.797 0 0 1-.316-.095.505.505 0 0 1-.19-.242l-1.814-4.22c-.016-.028.013-.077.084-.148a.963.963 0 0 1 .295-.19c.126-.056.267-.084.422-.084a.711.711 0 0 1 .486.158c.14.106.26.306.357.602l1.14 3.017 1.012-3.007c.092-.295.214-.5.37-.612a.719.719 0 0 1 .475-.158c.147 0 .285.028.41.084.128.057.229.12.307.19.071.07.106.12.106.148L58.3 12.597c-.07.197-.17.401-.295.612-.126.21-.299.4-.517.57-.21.175-.485.305-.823.39l.021-.016zm-55.06-2.484v2.205c0 .267-.063.457-.19.57a.704.704 0 0 1-.485.168H.782c-.21 0-.38-.056-.506-.169-.127-.112-.19-.306-.19-.58v-6.52c.007-.028.067-.063.18-.105.112-.042.245-.067.4-.074a.926.926 0 0 1 .59.19c.184.127.303.366.36.717.168-.31.397-.548.685-.717.281-.169.626-.253 1.034-.253.478 0 .9.112 1.266.337.365.225.654.542.864.95.212.408.318.893.318 1.456 0 .548-.102 1.033-.306 1.456-.212.414-.5.738-.865.97-.366.232-.795.348-1.288.348-.407-.007-.752-.102-1.033-.285a1.902 1.902 0 0 1-.644-.675l-.02.01zm.021-2.5v.98c0 .254.056.475.169.665.112.19.267.338.464.443.197.113.422.17.675.17.415-.008.742-.152.981-.433.247-.282.37-.655.37-1.119 0-.478-.12-.858-.359-1.139-.24-.281-.563-.425-.97-.433-.324 0-.598.078-.824.233a1.416 1.416 0 0 0-.506.632zm7.77 3.47c-.562 0-1.056-.112-1.478-.337a2.396 2.396 0 0 1-.98-.96c-.24-.415-.358-.897-.358-1.445 0-.55.118-1.03.357-1.446.24-.415.57-.738.993-.97.42-.232.914-.349 1.476-.349.556 0 1.045.117 1.467.349.421.232.751.555.99.97.233.422.349.908.349 1.456 0 .549-.12 1.027-.358 1.435-.232.408-.56.724-.98.95-.423.224-.916.337-1.478.337v.01zm.021-1.244v.01c.281 0 .535-.067.759-.2.226-.134.4-.317.528-.549.126-.24.19-.506.19-.802 0-.31-.064-.584-.19-.823a1.524 1.524 0 0 0-.516-.57 1.486 1.486 0 0 0-.77-.2c-.29 0-.547.067-.771.2-.226.141-.4.331-.529.57-.125.24-.188.514-.188.823.006.464.147.84.42 1.129.268.288.62.436 1.056.443l.011-.031zm5.638 1.15v.01c-.19 0-.36-.032-.507-.095-.14-.056-.242-.172-.304-.348l-1.372-4.505c-.008-.035.037-.088.136-.158.1-.07.218-.134.36-.19.146-.056.29-.084.431-.084.156 0 .303.049.445.148.14.098.233.274.284.527l.653 3.144.845-2.733a.627.627 0 0 1 .285-.38c.14-.084.316-.126.526-.126.226 0 .41.042.549.127a.607.607 0 0 1 .265.38l.802 2.679.652-3.091c.05-.253.142-.429.275-.527a.712.712 0 0 1 .433-.148 1.266 1.266 0 0 1 .78.274c.084.07.12.12.106.148L19.39 12.1a.515.515 0 0 1-.306.348c-.148.064-.32.095-.517.095-.267 0-.464-.035-.591-.105-.126-.07-.223-.208-.285-.412l-.853-2.668-.877 2.668c-.057.204-.147.342-.275.412-.133.07-.326.105-.58.105h-.03zm11.303-2.3v.01h-3.63c.066.394.23.7.498.918.267.218.607.327 1.024.327.399 0 .719-.05.959-.148a1.56 1.56 0 0 0 .591-.443c.028-.028.098-.028.21 0a.654.654 0 0 1 .317.2c.098.106.151.26.159.465 0 .295-.19.541-.57.738-.381.197-.943.3-1.688.306-.578 0-1.077-.112-1.5-.337a2.476 2.476 0 0 1-.99-.95c-.24-.408-.36-.893-.36-1.456a3.024 3.024 0 0 1 .36-1.434c.238-.422.566-.753.98-.992.41-.24.88-.359 1.414-.359.52 0 .978.113 1.371.338.395.225.704.534.93.928.218.394.326.851.326 1.372v.105c0 .14-.024.246-.073.317-.049.07-.145.105-.285.105l-.043-.01zm-3.574-.886h-.012l.01.01.002-.01zm0 0h2.562c-.021-.373-.137-.669-.348-.887-.212-.218-.499-.327-.866-.327-.366 0-.668.113-.906.338a1.475 1.475 0 0 0-.442.876zm14.43.886v.01h-3.63c.063.394.23.7.497.918.267.218.607.327 1.022.327.4 0 .72-.05.96-.148a1.56 1.56 0 0 0 .592-.443c.028-.028.098-.028.21 0a.654.654 0 0 1 .317.2c.098.106.151.26.157.465 0 .295-.189.541-.568.738-.381.197-.943.3-1.688.306-.578 0-1.077-.112-1.5-.337a2.476 2.476 0 0 1-.99-.95c-.24-.408-.36-.893-.36-1.456a3.024 3.024 0 0 1 .36-1.434c.238-.422.566-.753.98-.992.41-.24.88-.359 1.414-.359.52 0 .978.113 1.371.338.395.225.704.534.93.928.218.394.326.851.326 1.372v.105c0 .14-.024.246-.073.317-.05.07-.145.105-.285.105l-.043-.01zm-3.575-.886h-.012l.01.01.002-.01zm0 0h2.562c-.022-.373-.137-.669-.35-.887-.21-.218-.499-.327-.864-.327-.366 0-.668.113-.906.338a1.475 1.475 0 0 0-.442.876z" fill="#0E1730"/><path d="M35.353 25.851v14.805h-.957V25.85h.957zm.957.002V39.7a.961.961 0 0 1-.957.957V25.854h.957zm-1.914 0v14.803h-1.093V25.854h1.093z" fill="#00BECE"/><path d="M33.303 25.857v2.911h-1.094v-2.911h1.094zm-1.094.001v2.91h-1.093v-2.91h1.093zm-1.093 2.91a4.157 4.157 0 0 0-.569.117 2.318 2.318 0 0 0-.525.293v-3.205s.379-.055.57-.074c.19-.02.524-.038.524-.038v2.906zm-.547 3.212c.18.059.362.106.547.14v4.896l-1.094 2.303v-7.681c.168.136.351.251.547.342zm1.062.19c.225.005.578.005.578.005v2.583h-.023l-1.07 2.257v-4.897c.17.027.343.044.515.052zm1.672.014v2.575h-1.094v-2.575h1.094z" fill="#F88930"/><path d="M30.013 29.173s-.49.556-.49 1.258c.017.447.19.874.49 1.205v7.68l-.617 1.299h-.476V26.284s.228-.095.46-.162c.232-.068.633-.154.633-.154v3.205zM28.92 34.23s-.346-.16-.586-.307a4.689 4.689 0 0 1-.508-.376V26.94c.168-.138.346-.264.533-.376.18-.106.368-.2.56-.28v7.945zm-1.094-.683a2.758 2.758 0 0 1-.62-.654 5.723 5.723 0 0 1-.473-.85 7.06 7.06 0 0 1-.283-1.737c0-.51.066-1.018.193-1.512.13-.432.326-.84.582-1.211.172-.24.374-.456.6-.644l.001 6.608zm1.094 7.069h-1.094v-3.882l1.094-2.094v5.976zm-1.094-.003h-1.334c-.252 0-.506-.425-.388-.647l.63-1.178v-.003l1.092-2.05v3.878z" fill="#F52067"/><circle cx="10.5" cy="10.5" r="10.5" fill="#1B2535" transform="matrix(.13668 0 0 .13668 8.15 35.14)"/><path d="M17.762 41.29a6.252 6.252 0 0 1-2.26-.4 5.336 5.336 0 0 1-1.797-1.135 5.28 5.28 0 0 1-1.194-1.758 5.762 5.762 0 0 1-.433-2.255c-.01-.784.14-1.562.44-2.286a5.106 5.106 0 0 1 1.216-1.743 5.418 5.418 0 0 1 1.82-1.106 6.557 6.557 0 0 1 4.453.008c.671.23 1.274.625 1.753 1.15l-1.73 1.722a2.148 2.148 0 0 0-.94-.727 3.144 3.144 0 0 0-1.194-.238 3.052 3.052 0 0 0-1.23.245 2.9 2.9 0 0 0-.962.675 3.086 3.086 0 0 0-.627 1.015c-.153.41-.228.846-.224 1.284-.005.445.071.887.224 1.306.137.376.348.721.619 1.016.266.284.589.509.947.66.382.162.794.242 1.209.238.46.01.915-.092 1.327-.297.36-.182.671-.447.91-.771l1.775 1.662c-.479.542-1.07.975-1.73 1.269a5.71 5.71 0 0 1-2.372.467zm-14.241 0a4.187 4.187 0 0 1-1.23-.172 3.286 3.286 0 0 1-2.2-2.291l2.252-.756c.057.255.19.487.38.667a.973.973 0 0 0 .679.253c.416 0 .694-.145.828-.43.147-.358.216-.743.201-1.129v-6.93h2.566v6.916a6.47 6.47 0 0 1-.141 1.306c-.092.447-.27.873-.523 1.254-.27.395-.634.719-1.059.942-.45.246-1.04.37-1.753.37zm44.816-.281h-7.375V30.493h7.107v2.154h-4.644v1.975h4.39v2.036h-4.39v2.182h4.912v2.169zm4.465 0h-3.938V30.502h3.82c.743 0 1.484.087 2.207.26a5.58 5.58 0 0 1 1.94.86c.91.66 1.54 1.638 1.764 2.739.09.45.133.907.13 1.365.02.823-.156 1.64-.515 2.382a4.83 4.83 0 0 1-1.358 1.647 5.697 5.697 0 0 1-1.902.95 7.79 7.79 0 0 1-2.148.304zm-1.447-8.34v6.144h1.209c.445 0 .888-.051 1.32-.156.403-.095.783-.27 1.119-.512.332-.249.598-.575.775-.95.208-.461.307-.964.291-1.47a3.328 3.328 0 0 0-.29-1.475 2.5 2.5 0 0 0-.776-.935 3.125 3.125 0 0 0-1.104-.498c-.418-.1-.846-.15-1.275-.149h-1.269z" fill="#263245" fill-rule="nonzero"/><path d="M41.923 49.192l-2.844-3.638a1.659 1.659 0 0 1 .284-2.317 1.659 1.659 0 0 1 2.318.284l2.844 3.638c.557.713.43 1.76-.284 2.317-.714.558-1.76.43-2.318-.284zm-4.471-6.865a1 1 0 0 1 .172-1.396 1 1 0 0 1 1.397.171 1 1 0 0 1-.171 1.397 1 1 0 0 1-1.398-.172zm-3.717-.535a9.145 9.145 0 0 1-9.558-3.195 9.145 9.145 0 0 1-.794-10.047 9.09 9.09 0 0 1 7.322-4.656 9.129 9.129 0 0 1 9.316 11.917 9.116 9.116 0 0 1-6.286 5.981zm-9.193-12.627a7.896 7.896 0 0 0 .685 8.674 7.895 7.895 0 0 0 8.252 2.759 7.849 7.849 0 0 0 5.427-5.164 7.882 7.882 0 0 0-9.542-10.04 7.88 7.88 0 0 0-4.822 3.77z" fill="#263245" fill-rule="nonzero"/><path d="M6.158 46.558a.734.734 0 0 1-.304-.068.677.677 0 0 1-.234-.181l.167-.189a.586.586 0 0 0 .166.14.437.437 0 0 0 .214.054.32.32 0 0 0 .16-.039.284.284 0 0 0 .101-.108.492.492 0 0 0 .052-.164c.009-.067.013-.134.014-.202v-.246h-.007a.51.51 0 0 1-.12.215.33.33 0 0 1-.247.087.372.372 0 0 1-.214-.065.527.527 0 0 1-.159-.177.987.987 0 0 1-.097-.27 1.742 1.742 0 0 1-.002-.677.929.929 0 0 1 .096-.263.5.5 0 0 1 .158-.173.412.412 0 0 1 .217-.06.36.36 0 0 1 .235.078c.063.051.109.122.13.2h.01v-.225h.261v1.578c0 .1-.01.2-.03.297a.666.666 0 0 1-.1.239.494.494 0 0 1-.186.16.622.622 0 0 1-.281.059zm.031-2.154a.2.2 0 0 0-.133.047.359.359 0 0 0-.091.13.826.826 0 0 0-.054.193c-.012.08-.018.16-.017.24-.001.08.005.16.017.239.01.066.027.13.054.191.02.05.051.094.09.13a.2.2 0 0 0 .134.046.207.207 0 0 0 .134-.047.352.352 0 0 0 .095-.129.798.798 0 0 0 .057-.191 1.489 1.489 0 0 0 0-.48.715.715 0 0 0-.058-.193.405.405 0 0 0-.096-.129.2.2 0 0 0-.132-.047zM35 45.857a.475.475 0 0 1-.24-.062.544.544 0 0 1-.18-.171.853.853 0 0 1-.113-.264 1.392 1.392 0 0 1-.04-.343 1.43 1.43 0 0 1 .04-.345.867.867 0 0 1 .111-.268.528.528 0 0 1 .18-.171.51.51 0 0 1 .483 0 .543.543 0 0 1 .181.171.843.843 0 0 1 .113.268c.027.113.04.229.04.345 0 .116-.013.23-.04.343a.847.847 0 0 1-.113.264.543.543 0 0 1-.18.171.482.482 0 0 1-.243.062zm0-1.453a.2.2 0 0 0-.133.048.35.35 0 0 0-.092.128.779.779 0 0 0-.054.194 1.572 1.572 0 0 0 0 .48c.01.065.028.13.054.19.02.05.052.094.092.13a.2.2 0 0 0 .132.047.206.206 0 0 0 .136-.048.346.346 0 0 0 .092-.129.775.775 0 0 0 .054-.19c.012-.08.018-.16.017-.24 0-.08-.005-.16-.017-.24a.727.727 0 0 0-.055-.194.362.362 0 0 0-.094-.128.201.201 0 0 0-.133-.048zm-3.008 1.453a.363.363 0 0 1-.208-.054.356.356 0 0 1-.121-.141.684.684 0 0 1-.058-.202 1.651 1.651 0 0 1-.016-.229v-1.006h.27v1.006c0 .045.003.09.007.135a.437.437 0 0 0 .03.126.223.223 0 0 0 .067.091.192.192 0 0 0 .12.035.225.225 0 0 0 .123-.037.317.317 0 0 0 .097-.1c.03-.048.05-.1.063-.154a.82.82 0 0 0 .022-.197v-.905h.267v1.179a7.206 7.206 0 0 0 .013.4h-.255a2.359 2.359 0 0 1-.018-.274h-.006a.531.531 0 0 1-.147.232.357.357 0 0 1-.25.095zm-1.956 0a.48.48 0 0 1-.24-.062.544.544 0 0 1-.18-.171.853.853 0 0 1-.113-.264 1.384 1.384 0 0 1-.04-.343 1.423 1.423 0 0 1 .04-.345.857.857 0 0 1 .111-.268.53.53 0 0 1 .18-.171.51.51 0 0 1 .484 0 .543.543 0 0 1 .18.171.84.84 0 0 1 .113.268c.028.113.04.229.04.345 0 .116-.012.231-.04.343a.853.853 0 0 1-.113.264.486.486 0 0 1-.423.233zm0-1.453a.201.201 0 0 0-.133.048.35.35 0 0 0-.092.128.792.792 0 0 0-.054.194c-.012.08-.017.16-.017.24 0 .08.005.16.017.24.01.065.028.13.054.19.02.05.052.094.092.13a.2.2 0 0 0 .133.047.206.206 0 0 0 .135-.048.35.35 0 0 0 .092-.128.77.77 0 0 0 .054-.192c.012-.079.018-.159.017-.238 0-.081-.005-.161-.017-.24a.743.743 0 0 0-.055-.194.362.362 0 0 0-.094-.13.202.202 0 0 0-.132-.047zm-1.253 1.453a.571.571 0 0 1-.453-.214l.157-.173a.567.567 0 0 0 .125.115c.054.034.116.05.18.048a.194.194 0 0 0 .158-.072.293.293 0 0 0 .058-.189.241.241 0 0 0-.082-.193.363.363 0 0 0-.089-.057 1.409 1.409 0 0 0-.111-.045.905.905 0 0 1-.118-.054.406.406 0 0 1-.181-.209.503.503 0 0 1-.028-.18.446.446 0 0 1 .466-.462.562.562 0 0 1 .243.048c.064.03.122.074.168.128l-.154.176a.337.337 0 0 0-.105-.1.293.293 0 0 0-.153-.039.198.198 0 0 0-.15.065.25.25 0 0 0-.06.174c-.005.06.018.12.062.16.056.043.12.076.187.098a.979.979 0 0 1 .13.061.459.459 0 0 1 .2.227.607.607 0 0 1-.005.4.42.42 0 0 1-.253.254.542.542 0 0 1-.192.033zm-1.121 0a.493.493 0 0 1-.425-.222 1.076 1.076 0 0 1-.154-.618 1.37 1.37 0 0 1 .041-.344.865.865 0 0 1 .117-.267c.046-.071.109-.13.182-.173a.503.503 0 0 1 .481 0 .508.508 0 0 1 .165.167c.045.076.077.16.093.248.02.1.029.204.028.307v.128h-.836c0 .071.006.142.02.211.012.06.032.116.06.17a.307.307 0 0 0 .099.113.24.24 0 0 0 .138.04.224.224 0 0 0 .17-.065.508.508 0 0 0 .1-.157l.202.116a.634.634 0 0 1-.181.249.452.452 0 0 1-.3.097zm-.01-1.453a.2.2 0 0 0-.136.049.386.386 0 0 0-.09.12.75.75 0 0 0-.066.293h.56a.746.746 0 0 0-.065-.335.214.214 0 0 0-.203-.127zm-4.534 1.453a.573.573 0 0 1-.453-.214l.157-.173a.567.567 0 0 0 .126.115c.053.034.116.05.18.049a.194.194 0 0 0 .158-.073.293.293 0 0 0 .058-.188.241.241 0 0 0-.082-.193.41.41 0 0 0-.09-.057 2.07 2.07 0 0 0-.11-.046.905.905 0 0 1-.119-.053.382.382 0 0 1-.18-.21.496.496 0 0 1-.029-.18.447.447 0 0 1 .283-.429.562.562 0 0 1 .426.016c.064.03.122.073.168.127l-.154.176a.334.334 0 0 0-.105-.1.297.297 0 0 0-.153-.039.198.198 0 0 0-.15.065.253.253 0 0 0-.06.174.197.197 0 0 0 .061.16c.057.043.12.076.187.098.045.018.089.038.13.062a.449.449 0 0 1 .232.41.607.607 0 0 1-.036.217.42.42 0 0 1-.253.253.538.538 0 0 1-.192.033zm-3.765 0a.573.573 0 0 1-.452-.214l.157-.173a.564.564 0 0 0 .126.115c.053.034.116.05.179.049a.194.194 0 0 0 .159-.073.293.293 0 0 0 .058-.188.241.241 0 0 0-.082-.193.4.4 0 0 0-.09-.057 1.731 1.731 0 0 0-.111-.046.872.872 0 0 1-.118-.053.406.406 0 0 1-.18-.21.493.493 0 0 1-.029-.18.447.447 0 0 1 .283-.429.5.5 0 0 1 .182-.033.56.56 0 0 1 .244.049c.064.03.122.073.168.127l-.154.176a.303.303 0 0 0-.258-.138.198.198 0 0 0-.15.064.256.256 0 0 0-.06.175.197.197 0 0 0 .061.16c.057.042.12.075.187.098a.97.97 0 0 1 .13.061.468.468 0 0 1 .2.226.607.607 0 0 1-.005.4.42.42 0 0 1-.252.254.539.539 0 0 1-.193.033zm-2.542 0a.372.372 0 0 1-.214-.065.528.528 0 0 1-.158-.177.972.972 0 0 1-.098-.27 1.611 1.611 0 0 1-.033-.341c0-.112.01-.225.032-.335a.914.914 0 0 1 .095-.264.5.5 0 0 1 .159-.173.407.407 0 0 1 .217-.06.353.353 0 0 1 .232.078.393.393 0 0 1 .13.2h.005v-1.023h.268v2.376h-.261v-.248h-.007a.512.512 0 0 1-.12.215.33.33 0 0 1-.247.087zm.07-1.453a.2.2 0 0 0-.134.048.357.357 0 0 0-.091.128.813.813 0 0 0-.054.194c-.012.08-.018.16-.017.24 0 .08.005.16.017.24a.77.77 0 0 0 .054.19c.02.05.051.094.09.13a.2.2 0 0 0 .134.047.207.207 0 0 0 .134-.048.352.352 0 0 0 .096-.129.8.8 0 0 0 .056-.19c.014-.08.02-.16.019-.24a1.312 1.312 0 0 0-.019-.24.715.715 0 0 0-.058-.194.397.397 0 0 0-.096-.128.2.2 0 0 0-.132-.048zm-1.32 1.453a.491.491 0 0 1-.423-.222 1.09 1.09 0 0 1-.155-.618 1.358 1.358 0 0 1 .041-.344.866.866 0 0 1 .117-.267.487.487 0 0 1 .418-.234c.086-.002.17.02.245.061a.492.492 0 0 1 .165.167c.045.076.077.16.093.248.02.1.03.204.028.307v.128h-.836c0 .071.006.142.02.211a.657.657 0 0 0 .06.17.303.303 0 0 0 .1.113.24.24 0 0 0 .137.04.224.224 0 0 0 .17-.065.508.508 0 0 0 .1-.157l.202.116a.634.634 0 0 1-.18.249.446.446 0 0 1-.302.097zm-.01-1.453a.2.2 0 0 0-.136.049.379.379 0 0 0-.09.12.76.76 0 0 0-.066.293h.56a.746.746 0 0 0-.065-.335.214.214 0 0 0-.203-.127zm-4.45 1.453a.493.493 0 0 1-.42-.233.853.853 0 0 1-.113-.264 1.353 1.353 0 0 1-.039-.343 1.39 1.39 0 0 1 .04-.345.828.828 0 0 1 .11-.268.533.533 0 0 1 .18-.171.51.51 0 0 1 .484 0 .546.546 0 0 1 .18.171.82.82 0 0 1 .114.267c.027.114.04.23.038.346.002.116-.011.23-.039.343a.853.853 0 0 1-.113.264.547.547 0 0 1-.18.171.502.502 0 0 1-.242.062zm0-1.453a.201.201 0 0 0-.132.048.347.347 0 0 0-.093.128.82.82 0 0 0-.053.194c-.012.08-.018.16-.017.24-.001.08.005.16.017.24a.77.77 0 0 0 .053.19c.02.05.053.094.093.13a.2.2 0 0 0 .132.047.206.206 0 0 0 .135-.048.348.348 0 0 0 .093-.129.777.777 0 0 0 .054-.19c.012-.08.018-.16.017-.24.001-.08-.005-.16-.017-.24a.751.751 0 0 0-.055-.194.362.362 0 0 0-.094-.128.201.201 0 0 0-.133-.048zm-8.368 1.453a.492.492 0 0 1-.424-.222 1.076 1.076 0 0 1-.154-.618c0-.116.013-.231.041-.344a.902.902 0 0 1 .116-.267.497.497 0 0 1 .663-.173.496.496 0 0 1 .166.167c.045.076.077.16.093.248.02.1.03.204.028.307v.128h-.837a.916.916 0 0 0 .02.211c.012.06.032.116.06.17a.292.292 0 0 0 .099.113.24.24 0 0 0 .138.04.224.224 0 0 0 .17-.065.504.504 0 0 0 .1-.157l.202.116a.633.633 0 0 1-.18.248.44.44 0 0 1-.301.098zm-.01-1.453a.2.2 0 0 0-.137.049.379.379 0 0 0-.09.12.75.75 0 0 0-.066.293h.56a.746.746 0 0 0-.064-.334.214.214 0 0 0-.203-.128zm30.7 1.44c-.1.01-.199-.035-.259-.116a.587.587 0 0 1-.077-.324v-.962h-.2v-.217h.197v-.421h.261v.421h.28v.217h-.28v.908a.372.372 0 0 0 .042.2c.027.04.074.064.123.061a.334.334 0 0 0 .113-.025l.006.214a.51.51 0 0 1-.205.044zm2.742-.041h-.268v-1.179a7.362 7.362 0 0 0-.012-.399h.255a2.344 2.344 0 0 1 .018.274h.006a.532.532 0 0 1 .146-.233.356.356 0 0 1 .25-.094.365.365 0 0 1 .206.053.35.35 0 0 1 .123.142.68.68 0 0 1 .058.201c.01.076.016.153.016.23v1.005h-.27v-1.006c0-.043-.002-.089-.007-.135a.429.429 0 0 0-.03-.126.222.222 0 0 0-.067-.091.19.19 0 0 0-.12-.035.225.225 0 0 0-.123.036.321.321 0 0 0-.097.101c-.03.048-.05.1-.063.154a.826.826 0 0 0-.022.197v.905zm-10.175 0h-.276v-2.226h.575c.078 0 .156.01.231.033a.493.493 0 0 1 .319.294.74.74 0 0 1 .047.28c.002.08-.01.16-.035.236a.592.592 0 0 1-.09.171.462.462 0 0 1-.12.112.391.391 0 0 1-.13.053l.416 1.047h-.302l-.377-.994h-.258v.994zm0-1.987v.774h.261a.342.342 0 0 0 .258-.103.407.407 0 0 0 .097-.29.478.478 0 0 0-.03-.186.327.327 0 0 0-.083-.116.286.286 0 0 0-.116-.061.527.527 0 0 0-.132-.018h-.255zm-1.836 1.987h-.267v-2.376h.267v1.483h.006l.462-.685h.315l-.541.73.569.848h-.317l-.488-.78h-.006v.78zm-3.196 0h-.277v-2.226h.575c.079 0 .157.01.231.033a.494.494 0 0 1 .319.294c.034.09.05.185.048.28 0 .08-.011.16-.035.236a.598.598 0 0 1-.09.171.462.462 0 0 1-.12.112.391.391 0 0 1-.13.053l.415 1.047h-.301l-.378-.993h-.257v.993zm0-1.987v.774h.26a.342.342 0 0 0 .258-.103.407.407 0 0 0 .098-.29.472.472 0 0 0-.032-.186.322.322 0 0 0-.082-.116.284.284 0 0 0-.116-.061.525.525 0 0 0-.132-.018h-.255zm-7.071 1.987h-.265v-1.006c0-.045-.001-.09-.006-.135a.486.486 0 0 0-.03-.126.215.215 0 0 0-.067-.091.203.203 0 0 0-.12-.035.217.217 0 0 0-.12.036.312.312 0 0 0-.095.101.53.53 0 0 0-.06.154.939.939 0 0 0-.02.197v.905h-.264v-1.179l-.003-.203a6.96 6.96 0 0 0-.01-.196h.255a2.65 2.65 0 0 1 .018.274h.007a.473.473 0 0 1 .133-.233.358.358 0 0 1 .256-.094.326.326 0 0 1 .318.206c.017.04.03.08.04.121h.007a.85.85 0 0 1 .057-.115.458.458 0 0 1 .206-.182.354.354 0 0 1 .152-.03.365.365 0 0 1 .206.054.357.357 0 0 1 .123.141.68.68 0 0 1 .058.201c.01.076.016.153.016.23v1.005h-.27v-1.006c0-.045-.002-.09-.006-.135a.486.486 0 0 0-.03-.126.222.222 0 0 0-.069-.091.203.203 0 0 0-.12-.035.218.218 0 0 0-.12.036.314.314 0 0 0-.094.101.591.591 0 0 0-.062.154.833.833 0 0 0-.022.197v.905zm-5.191 0h-.268v-1.179a10.128 10.128 0 0 0-.013-.399h.255a2.521 2.521 0 0 1 .018.274h.008a.533.533 0 0 1 .146-.233.356.356 0 0 1 .25-.094.365.365 0 0 1 .206.053.359.359 0 0 1 .123.142.68.68 0 0 1 .058.201c.01.076.015.153.016.23v1.005h-.271v-1.006c0-.045-.002-.09-.007-.135a.464.464 0 0 0-.03-.126.222.222 0 0 0-.068-.091.225.225 0 0 0-.242.002.323.323 0 0 0-.098.1c-.029.048-.05.1-.063.154a.785.785 0 0 0-.022.197v.905h.002zm-4.18 0h-.267v-1.179l-.003-.203a9.974 9.974 0 0 0-.01-.196h.255a2.843 2.843 0 0 1 .018.274h.006a.53.53 0 0 1 .147-.233.356.356 0 0 1 .25-.094.365.365 0 0 1 .206.053.352.352 0 0 1 .123.142.68.68 0 0 1 .058.201c.01.076.016.153.016.23v1.005h-.27v-1.006c0-.045-.002-.09-.007-.135a.504.504 0 0 0-.03-.126.214.214 0 0 0-.067-.091.225.225 0 0 0-.242.002.32.32 0 0 0-.098.1c-.03.048-.05.1-.063.154a.773.773 0 0 0-.022.197v.905zm29.592 0h-.267v-1.578h.267v1.578zm-2.91 0h-.27v-2.376h.27v2.376zm-8.773 0h-.267v-1.578h.267v1.578zm-3.765 0h-.266v-1.578h.265v1.578h.001zm-6.39 0h-.271v-1.179a6.681 6.681 0 0 0-.013-.4h.255a2.472 2.472 0 0 1 .019.329h.006a.567.567 0 0 1 .132-.29.29.29 0 0 1 .248-.087l-.012.28a.31.31 0 0 0-.026-.005c-.011-.002-.02-.002-.028-.002a.203.203 0 0 0-.133.049.377.377 0 0 0-.098.127.632.632 0 0 0-.06.178.953.953 0 0 0-.02.202v.798zm-2.101 0h-.264v-1.361h-.205v-.217h.204v-.29c0-.075.008-.151.025-.225a.52.52 0 0 1 .079-.18.375.375 0 0 1 .136-.117.437.437 0 0 1 .2-.043c.015 0 .04.002.073.005a.285.285 0 0 1 .07.017l-.02.22a.227.227 0 0 0-.091-.016.173.173 0 0 0-.104.03.212.212 0 0 0-.064.077.325.325 0 0 0-.033.109.924.924 0 0 0-.01.127v.286h.258v.217h-.255v1.36zm-2.167 0h-.283v-2.226h.283v2.226zm-4.166 0h-.268v-1.578h.268v1.578zm-2.494 0H.74v-2.226h.534a.86.86 0 0 1 .2.024c.07.016.135.045.193.087.062.044.111.102.145.17a.707.707 0 0 1 .031.462.487.487 0 0 1-.165.244.422.422 0 0 1-.114.063v.006a.46.46 0 0 1 .251.156c.04.05.072.106.093.167a.686.686 0 0 1 .036.234.663.663 0 0 1-.056.29.55.55 0 0 1-.34.292.73.73 0 0 1-.208.03h.001zm-.334-1.047v.808h.274c.05 0 .1-.008.149-.023a.322.322 0 0 0 .205-.192.44.44 0 0 0 .03-.178.47.47 0 0 0-.037-.193.37.37 0 0 0-.092-.129.424.424 0 0 0-.267-.093h-.262zm0-.94v.717h.242a.378.378 0 0 0 .243-.083.326.326 0 0 0 .082-.112.4.4 0 0 0 .031-.166.4.4 0 0 0-.031-.169.296.296 0 0 0-.197-.17.518.518 0 0 0-.134-.016h-.236zm32.968.12a.157.157 0 0 1-.12-.05.181.181 0 0 1-.047-.13.183.183 0 0 1 .047-.127.164.164 0 0 1 .24 0c.03.035.048.08.047.128a.178.178 0 0 1-.05.129.159.159 0 0 1-.117.05zm-11.684 0a.157.157 0 0 1-.12-.05.182.182 0 0 1-.047-.13.183.183 0 0 1 .047-.126.164.164 0 0 1 .239 0c.031.035.048.08.047.127a.178.178 0 0 1-.048.129.159.159 0 0 1-.118.05zm-3.764 0a.157.157 0 0 1-.12-.05.182.182 0 0 1-.047-.13.183.183 0 0 1 .047-.127.164.164 0 0 1 .24 0c.03.035.048.08.046.128a.178.178 0 0 1-.048.129.159.159 0 0 1-.118.05zm-14.825 0a.157.157 0 0 1-.12-.05.182.182 0 0 1-.047-.13.183.183 0 0 1 .048-.126.164.164 0 0 1 .239 0c.031.035.048.08.047.127a.178.178 0 0 1-.049.129.159.159 0 0 1-.118.05z" fill="#1B2535" fill-rule="nonzero"/></svg>
