<svg viewBox="0 0 84 50" xmlns="http://www.w3.org/2000/svg" fill-rule="evenodd" clip-rule="evenodd" stroke-linejoin="round" stroke-miterlimit="2"><path fill="none" d="M.02.006h83.333v50H.02z"/><path d="M42.549 7.828V5.096c.007-.028.066-.063.178-.105.114-.043.248-.064.401-.064.155 0 .303.035.444.106.142.07.256.196.348.38.098.175.148.425.148.749v5.612c0 .267-.063.453-.19.559a.706.706 0 0 1-.484.169h-.17c-.212 0-.38-.053-.506-.159-.126-.105-.191-.292-.191-.559v-.169c-.17.31-.397.553-.684.728-.297.176-.64.264-1.035.264-.478 0-.9-.112-1.266-.337a2.279 2.279 0 0 1-.855-.96c-.21-.415-.316-.9-.316-1.456 0-.563.102-1.052.306-1.467.21-.408.5-.724.865-.95.366-.224.796-.337 1.287-.337.393 0 .735.074 1.024.222.289.14.509.33.664.57l.032-.064zm-.022 2.342V9.157a1.367 1.367 0 0 0-.495-.622c-.224-.148-.5-.222-.824-.222-.42 0-.752.141-.99.423-.246.28-.37.66-.37 1.139.006.464.138.837.39 1.118.247.281.568.425.96.433.246 0 .468-.053.665-.159.196-.105.355-.25.475-.432.12-.19.18-.412.18-.665h.009zm7.363 1.561v.074c0 .268-.063.454-.189.56a.706.706 0 0 1-.485.168h-.169c-.212 0-.38-.052-.507-.158-.126-.105-.189-.292-.189-.56V5.16c.006-.028.067-.063.18-.105.111-.042.245-.063.4-.063.155 0 .303.035.442.105.142.07.258.197.348.38.1.176.15.425.15.749v1.761a2.022 2.022 0 0 1 1.708-.865c.478 0 .899.113 1.266.338.366.225.653.542.865.95.21.407.316.893.316 1.455 0 .549-.102 1.034-.306 1.456-.21.415-.5.738-.865.97-.365.233-.794.349-1.287.349-.409-.007-.752-.095-1.033-.264a1.782 1.782 0 0 1-.645-.644zm0-1.571c0 .253.057.474.169.664.114.19.267.338.466.443.196.113.42.17.674.17.414-.008.743-.152.98-.433.248-.282.37-.655.37-1.119 0-.478-.12-.858-.358-1.139-.24-.281-.564-.425-.97-.433-.325 0-.598.078-.824.233a1.433 1.433 0 0 0-.507.632v.982zM29.284 8.03l-.004.006-.001-.007v.01l.001-.003.008.024-.004-.03c.181-.29.37-.513.564-.666.197-.155.401-.25.612-.285.275-.049.499-.039.675.032.175.07.3.183.37.337a.804.804 0 0 1 .041.517c-.027.134-.07.215-.126.243-.049.028-.13.039-.243.032a2.715 2.715 0 0 0-.486.031c-.45.085-.793.296-1.033.633-.238.338-.358.777-.358 1.319v1.582c0 .268-.065.454-.19.56a.702.702 0 0 1-.486.168h-.169c-.21 0-.38-.052-.505-.158-.128-.105-.19-.295-.19-.57V7.333c.005-.029.066-.064.178-.106.112-.042.246-.063.401-.063a.962.962 0 0 1 .592.179c.177.123.294.352.353.687zm27.342 6.133l.022-.005v-.01l-.022.015c-.163.038-.357.05-.58.037a2.87 2.87 0 0 1-.695-.127 1.56 1.56 0 0 1-.56-.295.578.578 0 0 1-.232-.464c0-.183.106-.398.316-.644.126.057.25.106.37.148.12.042.236.074.348.095.204.042.406.05.61.021a.983.983 0 0 0 .53-.253c.076-.099.137-.183.178-.253a.845.845 0 0 0 .106-.243v-.053a.797.797 0 0 1-.316-.095.505.505 0 0 1-.19-.242l-1.814-4.22c-.016-.028.013-.077.084-.148a.963.963 0 0 1 .295-.19c.126-.056.267-.084.422-.084a.711.711 0 0 1 .486.158c.14.106.26.306.357.602l1.14 3.017 1.012-3.007c.092-.295.214-.5.37-.612a.719.719 0 0 1 .475-.158c.147 0 .285.028.41.084.128.057.229.12.307.19.071.07.106.12.106.148l-1.921 5.032c-.07.197-.17.401-.295.612-.126.21-.299.4-.517.57-.21.175-.485.305-.823.39l.021-.016zm-55.06-2.484v2.205c0 .267-.063.457-.19.57a.704.704 0 0 1-.485.168H.722c-.21 0-.38-.056-.506-.169-.127-.112-.19-.306-.19-.58v-6.52c.007-.028.067-.063.18-.105.112-.042.245-.067.4-.074a.926.926 0 0 1 .59.19c.184.127.303.366.36.717.168-.31.397-.548.685-.717.281-.169.626-.253 1.034-.253.478 0 .9.112 1.266.337.365.225.654.542.864.95.212.408.318.893.318 1.456 0 .548-.102 1.033-.306 1.456-.212.414-.5.738-.865.97-.366.232-.795.348-1.288.348-.407-.007-.752-.102-1.033-.285a1.902 1.902 0 0 1-.644-.675l-.02.01zm.021-2.5v.98c0 .254.056.475.169.665.112.19.267.338.464.443.197.113.422.17.675.17.415-.008.742-.152.981-.433.247-.282.37-.655.37-1.119 0-.478-.12-.858-.359-1.139-.24-.281-.563-.425-.97-.433-.324 0-.598.078-.824.233a1.416 1.416 0 0 0-.506.632zm7.77 3.47c-.562 0-1.056-.112-1.478-.337a2.396 2.396 0 0 1-.98-.96c-.24-.415-.358-.897-.358-1.445 0-.55.118-1.03.357-1.446.24-.415.57-.738.993-.97.42-.232.914-.349 1.476-.349.556 0 1.045.117 1.467.349.421.232.751.555.99.97.233.422.349.908.349 1.456 0 .549-.12 1.027-.358 1.435-.232.408-.56.724-.98.95-.423.224-.916.337-1.478.337v.01zm.021-1.244v.01c.281 0 .535-.067.759-.2.226-.134.4-.317.528-.549.126-.24.19-.506.19-.802 0-.31-.064-.584-.19-.823a1.524 1.524 0 0 0-.516-.57 1.486 1.486 0 0 0-.77-.2c-.29 0-.547.067-.771.2-.226.141-.4.331-.529.57-.125.24-.188.514-.188.823.006.464.147.84.42 1.129.268.288.62.436 1.056.443l.011-.031zm5.638 1.15v.01c-.19 0-.36-.032-.507-.095-.14-.056-.242-.172-.304-.348l-1.372-4.505c-.008-.035.037-.088.136-.158.1-.07.218-.134.36-.19.146-.056.29-.084.431-.084.156 0 .303.049.445.148.14.098.233.274.284.527l.653 3.144.845-2.733a.627.627 0 0 1 .285-.38c.14-.084.316-.126.526-.126.226 0 .41.042.549.127a.607.607 0 0 1 .265.38l.802 2.679.652-3.091c.05-.253.142-.429.275-.527a.712.712 0 0 1 .433-.148 1.266 1.266 0 0 1 .78.274c.084.07.12.12.106.148L19.33 12.11a.515.515 0 0 1-.306.348c-.148.064-.32.095-.517.095-.267 0-.464-.035-.591-.105-.126-.07-.223-.208-.285-.412l-.853-2.668-.877 2.668c-.057.204-.147.342-.275.412-.133.07-.326.105-.58.105h-.03zm11.303-2.3v.01h-3.63c.066.394.23.7.498.918.267.218.607.327 1.024.327.399 0 .719-.05.959-.148a1.56 1.56 0 0 0 .591-.443c.028-.028.098-.028.21 0a.654.654 0 0 1 .317.2c.098.106.151.26.159.465 0 .295-.19.541-.57.738-.381.197-.943.3-1.688.306-.578 0-1.077-.112-1.5-.337a2.476 2.476 0 0 1-.99-.95c-.24-.408-.36-.893-.36-1.456a3.024 3.024 0 0 1 .36-1.434c.238-.422.566-.753.98-.992.41-.24.88-.359 1.414-.359.52 0 .978.113 1.371.338.395.225.704.534.93.928.218.394.326.851.326 1.372v.105c0 .14-.024.246-.073.317-.049.07-.145.105-.285.105l-.043-.01zm-3.574-.886h-.012l.01.01.002-.01zm0 0h2.562c-.021-.373-.137-.669-.348-.887-.212-.218-.499-.327-.866-.327-.366 0-.668.113-.906.338a1.475 1.475 0 0 0-.442.876zm14.43.886v.01h-3.63c.063.394.23.7.497.918.267.218.607.327 1.022.327.4 0 .72-.05.96-.148a1.56 1.56 0 0 0 .592-.443c.028-.028.098-.028.21 0a.654.654 0 0 1 .317.2c.098.106.151.26.157.465 0 .295-.189.541-.568.738-.381.197-.943.3-1.688.306-.578 0-1.077-.112-1.5-.337a2.476 2.476 0 0 1-.99-.95c-.24-.408-.36-.893-.36-1.456a3.024 3.024 0 0 1 .36-1.434c.238-.422.566-.753.98-.992.41-.24.88-.359 1.414-.359.52 0 .978.113 1.371.338.395.225.704.534.93.928.218.394.326.851.326 1.372v.105c0 .14-.024.246-.073.317-.05.07-.145.105-.285.105l-.043-.01zM33.6 9.369h-.012l.01.01.002-.01zm0 0h2.562c-.022-.373-.137-.669-.35-.887-.21-.218-.499-.327-.864-.327-.366 0-.668.113-.906.338a1.475 1.475 0 0 0-.442.876z" fill="#0E1730"/><path fill="#0D4689" d="M.02 23.88h25.926v25.926H.02z"/><path d="M100 17.5C100 7.841 77.596 0 50 0S0 7.841 0 17.5v65C0 92.159 22.404 100 50 100h30.805c5.091 0 9.973-.708 13.573-1.968 3.6-1.26 5.622-2.969 5.622-4.75V17.5z" fill="url(#a)" transform="matrix(.05718 0 0 .16336 5.74 28.675)"/><path d="M100 12.215c0-3.24-2.022-6.347-5.622-8.637C90.778 1.287 85.896 0 80.805 0h-61.61C14.104 0 9.222 1.287 5.622 3.578 2.022 5.868 0 8.975 0 12.215v35.351c0 17.561 22.404 31.818 50 31.818s50-14.257 50-31.818V12.215z" fill="url(#b)" transform="matrix(0 .05718 .08985 0 13.092 39.293)"/><g fill="#0D4689"><path d="M32.666 35.076h4.645v-1.135H34.02v-6.339h-1.354v7.474zM41.996 32.719c0 .853-.61 1.277-1.194 1.277-.633 0-1.057-.449-1.057-1.16V29.47h-1.321v3.569c0 1.346.766 2.11 1.87 2.11.838 0 1.428-.443 1.686-1.07h.058v.996h1.28v-5.605h-1.322v3.248zM45.996 31.792c0-.81.489-1.278 1.187-1.278.682 0 1.09.45 1.09 1.197v3.365h1.32v-3.569c.004-1.343-.76-2.11-1.917-2.11-.839 0-1.416.402-1.67 1.026h-.07v-.952h-1.262v5.605h1.322v-3.284zM50.941 35.076h1.321v-5.605h-1.32v5.605zm.666-6.4c.417 0 .763-.322.763-.716 0-.398-.346-.719-.763-.719-.424 0-.767.321-.767.719 0 .394.343.715.767.715zM55.234 35.19c.878 0 1.403-.413 1.645-.884h.045v.77h1.27v-3.752c0-1.481-1.208-1.926-2.278-1.926-1.18 0-2.084.525-2.375 1.547l1.233.175c.13-.383.503-.711 1.149-.711.613 0 .95.314.95.865v.021c0 .38-.399.398-1.387.504-1.09.117-2.127.441-2.127 1.704 0 1.102.805 1.686 1.875 1.686zm.343-.972c-.551 0-.946-.251-.946-.737 0-.507.44-.719 1.034-.803.346-.047 1.037-.134 1.21-.273v.66c0 .624-.502 1.153-1.298 1.153z"/></g><g fill="#0D4689"><path d="M36.773 40.911h1.302c-.026-1.262-1.1-2.157-2.692-2.157-1.569 0-2.75.884-2.743 2.205 0 1.072.76 1.69 1.99 2.007l.851.219c.806.204 1.338.456 1.344 1.036-.006.639-.61 1.066-1.494 1.066-.845 0-1.504-.38-1.556-1.164h-1.334c.055 1.485 1.161 2.32 2.903 2.32 1.791 0 2.832-.893 2.835-2.21-.003-1.296-1.073-1.888-2.199-2.154l-.698-.175c-.613-.146-1.278-.405-1.272-1.03.003-.561.509-.973 1.354-.973.806 0 1.34.375 1.41 1.01zM42.123 40.725h-1.106v-1.343h-1.32v1.343H38.9v1.022h.796v3.116c-.006 1.055.76 1.573 1.752 1.544.375-.01.636-.084.776-.131l-.221-1.033a1.631 1.631 0 0 1-.389.051c-.33 0-.597-.117-.597-.65v-2.897h1.106v-1.022zM46.801 43.973c0 .854-.61 1.277-1.194 1.277-.632 0-1.057-.449-1.057-1.16v-3.365h-1.32v3.57c0 1.346.766 2.109 1.869 2.109.838 0 1.428-.442 1.683-1.07h.059v.996h1.282v-5.605H46.8v3.248zM51.561 46.429c.963 0 1.396-.573 1.605-.982h.078v.883h1.302v-7.473h-1.324v2.795h-.056c-.202-.405-.613-1-1.602-1-1.295 0-2.313 1.015-2.313 2.883 0 1.846.989 2.894 2.31 2.894zm.369-1.084c-.875 0-1.335-.766-1.335-1.817 0-1.044.454-1.792 1.335-1.792.848 0 1.314.704 1.314 1.792 0 1.087-.473 1.817-1.314 1.817zM55.959 46.33h1.32v-5.605h-1.32v5.605zm.662-6.4c.42 0 .763-.321.763-.716 0-.398-.342-.719-.763-.719-.42 0-.767.321-.767.72 0 .394.346.715.767.715zM61.08 46.44c1.645 0 2.685-1.157 2.685-2.89 0-1.737-1.04-2.898-2.685-2.898-1.64 0-2.684 1.16-2.684 2.898 0 1.733 1.044 2.89 2.684 2.89zm.007-1.059c-.907 0-1.35-.81-1.35-1.835 0-1.026.443-1.847 1.35-1.847.897 0 1.34.821 1.34 1.847 0 1.025-.443 1.835-1.34 1.835z"/></g><defs><linearGradient id="a" x2="1" gradientUnits="userSpaceOnUse" gradientTransform="matrix(0 100 -285.714 0 49.133 0)"><stop offset="0" stop-color="#fff"/><stop offset="1" stop-color="#fff"/></linearGradient><linearGradient id="b" x2="1" gradientUnits="userSpaceOnUse" gradientTransform="matrix(285.714 0 0 -181.818 -185.714 -50.552)"><stop offset="0" stop-color="#fff"/><stop offset="1" stop-color="#fff"/></linearGradient></defs></svg>
