<svg viewBox="0 0 100 24" xmlns="http://www.w3.org/2000/svg" fill-rule="evenodd" clip-rule="evenodd" stroke-linejoin="round" stroke-miterlimit="2"><path d="M2.15 22.828h-.988l-1.11-3.31h.749l.841 2.66h.055l.83-2.66h.732l-1.109 3.31zm1.765 0v-3.31H6.35v.595H4.608v.76h1.448v.59H4.608v.775h1.754v.59H3.915zm3.01-3.31h2.873v.617H8.705v2.693h-.688v-2.693H6.924v-.618zm3.435 0h2.874v.617H12.14v2.693h-.688v-2.693H10.36v-.618zm3.562 0h.693v3.31h-.693v-3.31zm1.65 0h.895l1.038 1.682c.11.17.213.36.311.584h.033v-2.267h.634v3.31h-.776l-1.464-2.446h-.038v2.447h-.634v-3.31zm6.374 3.31l-.05-.508c-.207.377-.562.568-1.07.568-.978 0-1.568-.606-1.568-1.672 0-1.114.623-1.759 1.716-1.759.53 0 .956.11 1.272.476.159.18.246.415.263.693l-.71.055c-.06-.432-.345-.65-.858-.65-.596 0-.967.432-.967 1.158 0 .727.355 1.125.961 1.125.377 0 .645-.142.803-.426a.77.77 0 0 0 .099-.278h-.929v-.541h1.639v1.759h-.601zm3.408-3.54v4.086h-.475v-4.086h.475zm2.35 3.54v-3.31h1.343c1.027 0 1.655.53 1.655 1.573 0 .524-.164.945-.486 1.262-.328.316-.781.475-1.366.475h-1.147zm.693-2.699v2.087h.486c.683 0 1.104-.426 1.104-1.098 0-.628-.372-.989-1.011-.989h-.58zm5.299 2.699l-.268-.798H32.11l-.267.798h-.738l1.213-3.31h.95l1.197 3.31h-.77zm-.951-2.66l-.432 1.267h.913l-.426-1.267h-.055zm1.775-.65h2.874v.617H36.3v2.693h-.688v-2.693H34.52v-.618zm5.512 3.31l-.268-.798h-1.316l-.268.798h-.737l1.212-3.31h.95l1.197 3.31h-.77zm-.95-2.66l-.432 1.267h.912l-.426-1.267h-.055zm4.599.655c-.05-.524-.328-.787-.836-.787-.584 0-.929.432-.929 1.137 0 .72.356 1.125.93 1.125.453 0 .747-.251.83-.688l.699.032c-.082.803-.656 1.246-1.546 1.246-1.027 0-1.628-.634-1.628-1.688 0-.546.153-.972.453-1.284.3-.306.7-.459 1.207-.459.443 0 .809.115 1.088.339.278.224.42.563.426 1.005l-.694.022zm1.497 2.005v-3.31h.693v2.692h1.492v.618h-2.185zm2.95 0v-3.31h2.436v.595H48.82v.76h1.447v.59h-1.447v.775h1.753v.59h-2.447zm5.57 0l-.267-.798h-1.316l-.268.798h-.737l1.212-3.31h.95l1.197 3.31h-.77zm-.95-2.66l-.431 1.267h.912l-.426-1.267h-.055zm2.371-.65h.896l1.038 1.682c.109.17.213.36.311.584h.033v-2.267h.634v3.31h-.776l-1.464-2.446h-.038v2.447h-.634v-3.31zm6.67 0v2.02c0 .87-.52 1.35-1.41 1.35-.923 0-1.442-.459-1.442-1.35v-2.02h.694v1.922c0 .563.251.847.754.847.453 0 .715-.295.715-.825v-1.945h.689zm1.622 2.113v1.197h-.694v-3.31H64.1c.738 0 1.202.322 1.202.983 0 .726-.48 1.13-1.245 1.13h-.645zm0-1.524v.93h.568c.393 0 .606-.192.606-.493 0-.267-.169-.437-.513-.437h-.661zm4.474-.819v4.086h-.476v-4.086h.476zm4.222 3.01l-.027-.344c-.022-.257-.186-.388-.497-.388h-.656v1.262h-.693v-3.31h1.66c.672 0 1.104.333 1.104.895 0 .52-.29.798-.815.836v.016c.372.039.564.18.59.536l.022.278c.017.17.094.257.224.257h.06l.017.497a1.123 1.123 0 0 1-.333.044c-.393 0-.618-.158-.656-.58zm-1.18-2.229v.912h.688c.438 0 .667-.196.667-.464 0-.3-.191-.448-.579-.448h-.776zm3.004 2.759v-3.31h2.437v.595h-1.743v.76h1.448v.59h-1.448v.775h1.753v.59h-2.447zm3.982-1.197v1.197h-.693v-3.31h1.382c.737 0 1.201.322 1.201.983 0 .726-.48 1.13-1.245 1.13h-.645zm0-1.524v.93h.57c.392 0 .605-.192.605-.493 0-.267-.17-.437-.513-.437h-.662zm2.923-.19c.312-.307.732-.46 1.262-.46.519 0 .934.153 1.234.454.3.306.454.72.454 1.24 0 .53-.153.956-.464 1.267-.312.311-.738.47-1.279.47-.519 0-.928-.153-1.229-.459-.3-.306-.448-.726-.448-1.267 0-.52.159-.934.47-1.246zm.246 1.25c0 .355.087.634.267.836.175.208.41.311.71.311.64 0 1.011-.437 1.011-1.152 0-.7-.366-1.131-.972-1.131-.312 0-.563.098-.743.3-.18.203-.273.481-.273.836zm5.375 1.13l-.027-.343c-.022-.257-.186-.388-.497-.388h-.656v1.262h-.694v-3.31h1.66c.673 0 1.104.333 1.104.895 0 .52-.29.798-.814.836v.016c.372.039.563.18.59.536l.022.278c.017.17.093.257.224.257h.06l.017.497a1.123 1.123 0 0 1-.334.044c-.393 0-.617-.158-.655-.58zm-1.18-2.228v.912h.688c.437 0 .666-.196.666-.464 0-.3-.19-.448-.578-.448h-.776zm2.59-.552h2.872v.618h-1.092v2.693h-.688v-2.693h-1.093v-.618zm3.56 0h.694v3.31h-.693v-3.31zm1.65 0h.896L95.01 21.2c.109.17.213.36.311.584h.033v-2.267h.634v3.31h-.776l-1.464-2.446h-.038v2.447h-.634v-3.31zm6.375 3.31l-.05-.507c-.207.377-.562.568-1.07.568-.978 0-1.568-.606-1.568-1.672 0-1.114.623-1.759 1.715-1.759.53 0 .957.11 1.274.476.158.18.245.415.261.693l-.71.055c-.06-.432-.344-.65-.857-.65-.596 0-.968.432-.968 1.158 0 .727.356 1.125.962 1.125.377 0 .644-.142.803-.426a.78.78 0 0 0 .099-.278h-.93v-.541h1.64v1.759h-.601z" fill="#0F162E"/><path d="M2.887 10.18v3.276c0 .393-.138.727-.415 1.003-.276.276-.61.414-1.002.414-.393 0-.727-.138-1.003-.414a1.366 1.366 0 0 1-.414-1.003V3.206c0-.38.122-.693.368-.939.245-.245.558-.368.938-.368h3.552c.552 0 1.08.081 1.582.244.503.162.962.405 1.376.727.414.322.745.756.994 1.302.248.546.373 1.168.373 1.868 0 1.687-.675 2.883-2.025 3.588l2.061 2.926c.209.295.313.595.313.902 0 .393-.138.727-.414 1.003-.276.276-.61.414-1.003.414-.515 0-.926-.233-1.233-.7L4.34 10.18H2.887zm3.027-2.903c.325-.266.487-.679.487-1.237s-.162-.971-.487-1.238c-.325-.267-.764-.4-1.316-.4H2.887v3.276h1.711c.552 0 .99-.134 1.316-.4zm13.682 7.504H13.69c-.38 0-.693-.123-.939-.368-.245-.245-.368-.558-.368-.939V3.206c0-.38.123-.693.368-.939.246-.245.558-.368.939-.368h5.907c.35 0 .646.121.888.364.242.242.364.538.364.887 0 .35-.122.646-.364.888a1.208 1.208 0 0 1-.888.364h-4.38v2.521h3.626c.35 0 .645.121.888.364.242.242.363.538.363.887 0 .35-.121.646-.363.888a1.207 1.207 0 0 1-.888.364h-3.626v2.852h4.38c.35 0 .646.121.888.364.242.242.364.538.364.888s-.122.645-.364.888a1.208 1.208 0 0 1-.888.363zm8.705-12.974c.907 0 1.533.479 1.877 1.436l3.44 9.698c.062.184.093.356.093.515 0 .393-.138.727-.414 1.003-.276.276-.61.414-1.003.414-.307 0-.583-.089-.828-.267a1.404 1.404 0 0 1-.515-.69l-.534-1.527h-4.251l-.515 1.527a1.343 1.343 0 0 1-.511.69 1.397 1.397 0 0 1-.833.267c-.392 0-.727-.138-1.003-.414a1.366 1.366 0 0 1-.414-1.003c0-.16.03-.331.092-.515l3.441-9.698c.344-.957.97-1.436 1.878-1.436zm0 4.362l-1.344 3.9h2.669L28.3 6.17z" fill="#E21C3C"/><path d="M50.876 14.491c-.316.255-.707.382-1.173.382-.466 0-.857-.127-1.173-.382-.316-.254-.55-.606-.704-1.053l-3.441-9.699a1.632 1.632 0 0 1-.092-.515c0-.392.138-.727.414-1.003.276-.276.61-.414 1.003-.414.306 0 .584.089.832.267.249.178.419.408.51.69l2.651 7.748 2.65-7.748c.092-.282.262-.512.51-.69.25-.178.527-.267.833-.267.393 0 .727.138 1.003.414.276.276.414.61.414 1.003 0 .16-.03.331-.092.515l-3.441 9.699c-.153.447-.388.799-.704 1.053zm14.01.29h-5.908c-.38 0-.693-.123-.939-.368-.245-.245-.368-.558-.368-.939V3.206c0-.38.123-.694.368-.939.246-.245.559-.368.939-.368h5.907c.35 0 .646.121.888.363.242.243.364.539.364.888 0 .35-.122.646-.364.888a1.208 1.208 0 0 1-.888.364h-4.38v2.52h3.626c.35 0 .645.122.888.364.242.243.363.539.363.888 0 .35-.121.646-.363.888a1.207 1.207 0 0 1-.888.364h-3.626v2.852h4.38c.35 0 .646.121.888.364.242.242.364.538.364.888s-.122.645-.364.887a1.208 1.208 0 0 1-.888.364zm6.55-10.38h-2.153c-.35 0-.645-.12-.888-.363a1.207 1.207 0 0 1-.363-.888c0-.35.121-.645.363-.888.243-.242.539-.363.888-.363h7.14c.35 0 .646.121.889.363.242.243.363.539.363.888 0 .35-.121.646-.363.888a1.208 1.208 0 0 1-.888.364H74.27v9.054c0 .393-.138.727-.415 1.003-.276.276-.61.414-1.002.414-.393 0-.727-.138-1.003-.414a1.366 1.366 0 0 1-.414-1.003V4.402zm10.987 0H80.27c-.35 0-.646-.12-.888-.363a1.207 1.207 0 0 1-.364-.888c0-.35.121-.645.364-.888.242-.242.538-.363.888-.363h7.14c.35 0 .646.121.888.363.242.243.363.539.363.888 0 .35-.12.646-.363.888a1.208 1.208 0 0 1-.888.364h-2.153v9.054c0 .393-.138.727-.414 1.003-.276.276-.61.414-1.003.414-.393 0-.727-.138-1.003-.414a1.366 1.366 0 0 1-.414-1.003V4.402zm12.22-2.594c.907 0 1.533.478 1.877 1.435l3.44 9.699c.062.184.093.356.093.515 0 .393-.138.727-.414 1.003-.276.276-.61.414-1.003.414-.307 0-.583-.089-.828-.267a1.404 1.404 0 0 1-.516-.69l-.533-1.527h-4.251l-.516 1.527a1.343 1.343 0 0 1-.51.69 1.397 1.397 0 0 1-.833.267c-.393 0-.727-.138-1.003-.414a1.366 1.366 0 0 1-.414-1.003c0-.16.03-.331.092-.515l3.441-9.699c.344-.957.97-1.435 1.877-1.435zm0 4.361l-1.344 3.902h2.668l-1.325-3.902z" fill="#0F162E"/><path d="M39.106 16.52a.67.67 0 0 1-.67-.669V.668a.67.67 0 0 1 1.34 0V15.85c0 .37-.3.67-.67.67" fill="#0F162E" fill-rule="nonzero"/></svg>
