<svg viewBox="0 0 100 90" xmlns="http://www.w3.org/2000/svg" fill-rule="evenodd" clip-rule="evenodd" stroke-linejoin="round" stroke-miterlimit="2"><g fill="hsl(224, 55%, 22%)"><path fill-rule="nonzero" d="M39.165 71.137h2.633v18.81h-2.633zm11.03 5.69v-3.106h2.659v3.106h3.628v2.53h-3.628v6.212c0 .746.137 1.259.411 1.541.274.281.725.422 1.354.422h1.814v2.415h-2.362a5.983 5.983 0 0 1-1.75-.225 2.6 2.6 0 0 1-1.205-.745 3.228 3.228 0 0 1-.696-1.391 8.886 8.886 0 0 1-.225-2.162v-6.062h-1.79v-2.53l1.79-.005zm-.474-61.332v15.498H41.94c-3.984.002-7.351 3.075-7.714 7.043a7.448 7.448 0 0 0 0 1.412v22.535H18.728V37.452a23.006 23.006 0 0 1 1.277-6.463c3.275-9.273 12.098-15.508 21.932-15.499l7.784.005z"/><path d="M49.721 0h15.462v15.495H49.721z"/><path d="M80.678 46.484v15.498h-7.749c-12.291.011-22.571-9.739-23.208-22.014v-8.979h15.462v7.749c0 4.251 3.498 7.749 7.749 7.749l7.746-.003zM32.671 76.827a6.046 6.046 0 0 1 2.088.316 3.773 3.773 0 0 1 1.423.908c.372.391.649.863.807 1.379.169.556.253 1.134.248 1.714v6.168a5.66 5.66 0 0 1-.111 1.218 1.66 1.66 0 0 1-.411.808c-.23.225-.518.384-.832.458a5.146 5.146 0 0 1-1.354.159h-6.131c-1.558 0-2.68-.357-3.367-1.069-.686-.713-1.03-1.69-1.031-2.932a4.963 4.963 0 0 1 .236-1.582c.15-.451.411-.857.759-1.181a3.486 3.486 0 0 1 1.366-.745 7.038 7.038 0 0 1 2.056-.261h6.236v-.993a1.892 1.892 0 0 0-.459-1.292c-.307-.348-.824-.522-1.553-.522h-7.845v-2.53l7.875-.021zm1.265 10.559c.48 0 .72-.223.72-.67v-2.459h-6.177c-.696 0-1.185.136-1.466.409a1.5 1.5 0 0 0-.422 1.131c-.02.426.132.843.422 1.156.281.29.756.434 1.423.433h5.5zM60.77 71.883v3.056h-2.658v-3.056h2.658zm-.03 4.944v13.126h-2.628V76.827h2.628zm17.555 0c2.236 0 3.9.501 4.994 1.504 1.093 1.003 1.642 2.413 1.648 4.23v7.386H82.27v-7.386c0-1.041-.31-1.836-.931-2.385-.621-.548-1.627-.821-3.019-.819h-3.082v10.59h-2.659V79.362h-6.658c-.215 0-.316.123-.316.372v10.213h-2.641V78.864c0-.778.141-1.312.422-1.602.282-.29.756-.435 1.424-.435h13.485z" fill-rule="nonzero"/><path d="M65.183 15.495h15.495V30.99H65.183z"/><path d="M8.943 76.827v2.53H4.322c-1.126 0-1.689.563-1.689 1.689v8.901H0v-9.293c0-1.325.269-2.294.807-2.907.537-.612 1.452-.919 2.745-.92h5.391zm9.704 0c1.556 0 2.682.352 3.378 1.056.696.705 1.044 1.694 1.044 2.969 0 1.209-.34 2.141-1.019 2.796-.679.655-1.822.981-3.428.98h-6.238v.949c-.019.477.146.944.461 1.303.306.341.824.511 1.553.509h8.025v2.558h-8.019a5.973 5.973 0 0 1-2.1-.324 3.777 3.777 0 0 1-1.416-.907 3.463 3.463 0 0 1-.808-1.366 5.674 5.674 0 0 1-.248-1.727v-4.472a5.727 5.727 0 0 1 .248-1.715c.158-.516.435-.989.808-1.379a3.79 3.79 0 0 1 1.416-.907 5.993 5.993 0 0 1 2.1-.317l4.243-.006zm-6.263 5.734h6.168c.712 0 1.213-.139 1.502-.422.299-.303.457-.717.435-1.142a1.602 1.602 0 0 0-.447-1.192c-.298-.299-.77-.448-1.416-.448h-4.222c-.729 0-1.246.174-1.553.522-.31.358-.475.819-.46 1.292l-.007 1.39zm83.194-5.734c1.556 0 2.682.352 3.378 1.056.696.705 1.044 1.694 1.044 2.969 0 1.209-.339 2.141-1.018 2.796-.679.655-1.822.981-3.429.98h-6.237v.949c-.019.477.145.944.46 1.303.307.341.824.511 1.553.509h8.026v2.558h-8.026a5.973 5.973 0 0 1-2.1-.324 3.777 3.777 0 0 1-1.416-.907 3.463 3.463 0 0 1-.808-1.366 5.741 5.741 0 0 1-.248-1.727v-4.472a5.759 5.759 0 0 1 .248-1.715c.158-.516.435-.989.808-1.379a3.79 3.79 0 0 1 1.416-.907 5.993 5.993 0 0 1 2.1-.317l4.249-.006zm-6.262 5.734h6.167c.712 0 1.213-.139 1.503-.422.298-.303.456-.717.435-1.142a1.607 1.607 0 0 0-.448-1.192c-.297-.299-.77-.448-1.423-.448h-4.221c-.73 0-1.247.174-1.553.522-.31.358-.475.819-.46 1.292v1.39z" fill-rule="nonzero"/></g></svg>
