<svg viewBox="0 0 100 30" xmlns="http://www.w3.org/2000/svg" fill-rule="evenodd" clip-rule="evenodd" stroke-linejoin="round" stroke-miterlimit="2"><path d="M0 0l41.052 2.772L94.968 0l-.341 29.048-53.575-5.142L.72 26.701 0 0zm32.44 10.444a1.163 1.163 0 0 0-.103.006.76.76 0 0 0-.164.035.618.618 0 0 0-.246.151.686.686 0 0 0-.136.182l-.029.061a1.161 1.161 0 0 0-.074.485 1.855 1.855 0 0 0 .018.181l.011.057a.65.65 0 0 0 .011.042.439.439 0 0 0 .117.21c.01.009.021.018.033.026a.456.456 0 0 0 .175.064.932.932 0 0 0 .163.01 1.205 1.205 0 0 0 .181-.025l.076-.024c.057-.018.114-.036.171-.051a.865.865 0 0 1 .133-.025c.017-.001.034-.002.051-.001a.508.508 0 0 1 .265.079.567.567 0 0 1 .116.096c.102.109.16.252.197.396l.016.069c.007.032.012.064.018.097l.019.141a4.508 4.508 0 0 1 .023.481 501.67 501.67 0 0 1 0 3.005 5.234 5.234 0 0 1-.025.476 2.628 2.628 0 0 1-.037.225 1.78 1.78 0 0 1-.017.07.926.926 0 0 1-.187.378c-.015.016-.03.032-.046.046a.618.618 0 0 1-.178.111.545.545 0 0 1-.154.034.827.827 0 0 1-.243-.024l-.009-.002-.426-.099-.03.002a.61.61 0 0 0-.164.031.322.322 0 0 0-.097.051.424.424 0 0 0-.138.226l-.012.043a1.627 1.627 0 0 0-.013.068 1.275 1.275 0 0 0-.018.225c-.001.063.001.125.009.187a.876.876 0 0 0 .089.295.736.736 0 0 0 .274.293c.085.048.18.075.276.084.057.006.114.006.17.004.061-.001.122-.004.182-.008.178-.012.356-.029.533-.048l.233-.026.15-.016c.204-.02.408-.038.613-.044.068-.002.136-.002.203-.002l.243.004a10.91 10.91 0 0 1 .84.049l.231.025c.111.011.221.023.332.033a6.354 6.354 0 0 0 .319.028l.112.006a.938.938 0 0 0 .164-.008.643.643 0 0 0 .347-.142.645.645 0 0 0 .165-.303 1.78 1.78 0 0 0 .017-.07l.014-.077.011-.099a2.21 2.21 0 0 0 0-.362c-.003-.025-.006-.051-.011-.076a.597.597 0 0 0-.012-.058l-.012-.043-.011-.032a.304.304 0 0 0-.107-.149.36.36 0 0 0-.157-.051.597.597 0 0 0-.112-.003c-.086.005-.171.027-.255.046l-.047.01c-.049.01-.097.019-.146.026a.728.728 0 0 1-.182.002.556.556 0 0 1-.262-.103.756.756 0 0 1-.112-.104.995.995 0 0 1-.197-.442 2.686 2.686 0 0 1-.034-.207 4.263 4.263 0 0 1-.014-.159 6.102 6.102 0 0 1-.007-.233c-.006-1.836.016-3.671 0-5.506a1.439 1.439 0 0 0-.008-.132c-.004-.027-.008-.055-.015-.081a.35.35 0 0 0-.025-.071l-.008-.014c-.004-.006-.009-.014-.016-.018-.005-.004-.012-.006-.018-.008l-.014-.003a.164.164 0 0 0-.022-.002l-.015-.001a.164.164 0 0 1-.022.002l-.07.009a8.414 8.414 0 0 1-.923.119 3.94 3.94 0 0 1-.744-.003c-.154-.013-.306-.03-.459-.049-.095-.013-.19-.027-.286-.039l-.102-.013a3.097 3.097 0 0 0-.318-.026h-.032zm-12.346-.435a8.139 8.139 0 0 0-.414.013 5.899 5.899 0 0 0-.828.108 4.562 4.562 0 0 0-.787.233 3.905 3.905 0 0 0-.774.411 3.866 3.866 0 0 0-1.177 1.3 4.471 4.471 0 0 0-.232.486 5.654 5.654 0 0 0-.374 1.653 8.897 8.897 0 0 0 0 1.366c.05.586.169 1.17.399 1.713a4.104 4.104 0 0 0 .547.934 3.753 3.753 0 0 0 1.48 1.135c.529.23 1.101.348 1.675.394.08.007.161.011.241.015.119.006.239.008.358.008.605 0 1.215-.074 1.79-.271a3.969 3.969 0 0 0 .934-.462 3.802 3.802 0 0 0 .952-.928 4.188 4.188 0 0 0 .481-.862 5.762 5.762 0 0 0 .399-1.697 9.316 9.316 0 0 0 .03-1.011c-.02-.639-.121-1.281-.352-1.88a4.514 4.514 0 0 0-.122-.288 3.936 3.936 0 0 0-.51-.816 3.922 3.922 0 0 0-1.308-1.055 4.318 4.318 0 0 0-.879-.325 5.577 5.577 0 0 0-.986-.156 6.773 6.773 0 0 0-.473-.018h-.07zm.052 1.696c.087.001.174.005.261.015.141.015.281.043.416.085a1.866 1.866 0 0 1 .651.361 1.78 1.78 0 0 1 .264.28c.232.301.376.659.467 1.025a4.727 4.727 0 0 1 .123.767 7.706 7.706 0 0 1-.053 1.746 4.17 4.17 0 0 1-.123.536 2.567 2.567 0 0 1-.429.855c-.032.04-.065.078-.1.116a1.676 1.676 0 0 1-.411.33 1.803 1.803 0 0 1-.404.173 2.232 2.232 0 0 1-.64.088c-.212 0-.425-.027-.628-.088a1.855 1.855 0 0 1-.651-.346 2.342 2.342 0 0 1-.62-.819 3.854 3.854 0 0 1-.199-.54 4.298 4.298 0 0 1-.112-.551 6.681 6.681 0 0 1-.015-1.565 4.157 4.157 0 0 1 .277-1.094 2.852 2.852 0 0 1 .3-.537 2.186 2.186 0 0 1 .494-.498 1.795 1.795 0 0 1 .531-.257 1.967 1.967 0 0 1 .568-.082h.033zm22.238 5.764l.081.14.029.173c0 .242-.003.483 0 .725l.001.042.007.077.007.043.008.027a.155.155 0 0 0 .008.023l.008.013a.047.047 0 0 0 .016.01.058.058 0 0 0 .014.005.222.222 0 0 0 .057.008l.043-.005.331-.051a4.521 4.521 0 0 1 .635-.038c.082 0 .164.001.245.006.098.006.195.016.292.037l.475.108h.067l.021-.001a.338.338 0 0 0 .124-.031.263.263 0 0 0 .061-.039.487.487 0 0 0 .114-.138.85.85 0 0 0 .062-.133c.01-.024.018-.05.026-.075a1.48 1.48 0 0 0 .058-.354 1.981 1.981 0 0 0-.005-.342 1.04 1.04 0 0 0-.026-.148.349.349 0 0 0-.067-.144.185.185 0 0 0-.055-.039.257.257 0 0 0-.076-.023.548.548 0 0 0-.19.007.858.858 0 0 0-.052.021l-.03.011a.666.666 0 0 1-.255.05.408.408 0 0 1-.253-.103.532.532 0 0 1-.105-.121 1.232 1.232 0 0 1-.168-.486l-.013-.088a4.64 4.64 0 0 1-.031-.546c-.006-2.896.016-5.792 0-8.688a3.825 3.825 0 0 0-.008-.214 1.625 1.625 0 0 0-.026-.199l-.009-.039-.008-.025-.005-.015c-.003-.007-.005-.014-.009-.02-.005-.008-.012-.013-.019-.018l-.012-.008-.023-.011-.037-.013a.637.637 0 0 0-.173-.019 4.11 4.11 0 0 0-.192.009c-.131.01-.261.024-.391.037l-.084.008a7.11 7.11 0 0 1-.252.018 2.423 2.423 0 0 1-.209.003 5.123 5.123 0 0 1-.276-.021 11.388 11.388 0 0 1-.323-.038l-.068-.008-.094-.012-.026-.003a3.447 3.447 0 0 0-.203-.01l-.137-.002c-.034 0-.067 0-.1.002a.732.732 0 0 0-.093.009c-.02.003-.041.006-.062.011a.42.42 0 0 0-.048.012.48.48 0 0 0-.268.179.69.69 0 0 0-.104.276 1.586 1.586 0 0 0-.025.283c-.001.054 0 .108.005.161a.907.907 0 0 0 .104.358.39.39 0 0 0 .112.131.19.19 0 0 0 .083.03.434.434 0 0 0 .072.001.782.782 0 0 0 .239-.057l.056-.015c.082-.012.164-.024.245-.032.05-.005.1-.01.151-.008a.532.532 0 0 1 .394.187.756.756 0 0 1 .125.19 1.3 1.3 0 0 1 .036.086c.058.156.083.33.091.502l.002.126v1.365c-.019.134-.011.183-.087.286a.284.284 0 0 1-.213.125.253.253 0 0 1-.117-.026c-.037-.018-.068-.054-.102-.082a.11.11 0 0 1-.013-.017l-.027-.032a3.718 3.718 0 0 0-.416-.424 2.407 2.407 0 0 0-.609-.387 1.844 1.844 0 0 0-.88-.146 2.042 2.042 0 0 0-1.077.388 2.284 2.284 0 0 0-.281.244c-.16.162-.304.351-.432.557a4.353 4.353 0 0 0-.437.941c-.027.079-.052.16-.075.241a7.577 7.577 0 0 0-.262 1.836c-.005.14-.006.281-.005.421.006.609.065 1.219.205 1.8a5.295 5.295 0 0 0 .168.573 5.03 5.03 0 0 0 .399.867c.118.201.25.389.395.555.155.176.325.328.509.444a1.877 1.877 0 0 0 1.136.293c.187-.008.374-.04.555-.103a1.826 1.826 0 0 0 .577-.333c.176-.15.332-.338.466-.55a3.444 3.444 0 0 0 .261-.496l.091-.13.124-.066.134.008.118.083zm-1.981-6.01a1.24 1.24 0 0 1 .739.242c.044.032.087.066.128.104.149.135.278.306.386.498.123.218.22.461.29.716.118.425.165.88.17 1.331.001.092 0 .184-.002.276a5.217 5.217 0 0 1-.188 1.313 2.969 2.969 0 0 1-.424.902c-.07.098-.146.188-.229.266a1.385 1.385 0 0 1-.281.209 1.178 1.178 0 0 1-.518.154 1.137 1.137 0 0 1-.846-.296c-.218-.195-.386-.475-.507-.782a2.809 2.809 0 0 1-.105-.312 4.021 4.021 0 0 1-.11-.517 6.135 6.135 0 0 1-.069-.983v-.258l.01-.196a7.137 7.137 0 0 1 .093-.795 4.68 4.68 0 0 1 .135-.548 2.982 2.982 0 0 1 .122-.327c.11-.253.252-.485.428-.662a1.389 1.389 0 0 1 .194-.16c.065-.043.132-.078.202-.106a.959.959 0 0 1 .359-.069h.023zM26.188 9.01a.59.59 0 0 1 .159.033.541.541 0 0 1 .218.154c.1.112.157.256.194.4a1.858 1.858 0 0 1 .035.173 3.539 3.539 0 0 1 .036.352c.005.099.007.197.008.295.005 2.154.005 4.308 0 6.462a7.26 7.26 0 0 1-.008.295 3.539 3.539 0 0 1-.055.453l-.016.072a.932.932 0 0 1-.203.41.434.434 0 0 1-.049.047.483.483 0 0 1-.174.102.538.538 0 0 1-.159.029.926.926 0 0 1-.149-.011 1.706 1.706 0 0 1-.222-.053l-.105-.035-.042-.013c-.021-.005-.041-.011-.062-.015a.35.35 0 0 0-.045-.007h-.03a.664.664 0 0 0-.232.036.395.395 0 0 0-.145.087.512.512 0 0 0-.121.233.83.83 0 0 0-.023.121 1.605 1.605 0 0 0-.015.215 1.168 1.168 0 0 0 .118.547.84.84 0 0 0 .155.199.675.675 0 0 0 .441.183 1.015 1.015 0 0 0 .165-.002l.137-.01a15.503 15.503 0 0 0 .622-.068l.186-.022.09-.01c.173-.017.347-.03.521-.036a10.727 10.727 0 0 1 1.17.036l.614.051.711.057.079.006c.087 0 .175-.008.259-.029a.646.646 0 0 0 .185-.074.575.575 0 0 0 .074-.056.676.676 0 0 0 .18-.32.854.854 0 0 0 .013-.048l.013-.064a1.603 1.603 0 0 0 .026-.226 2.13 2.13 0 0 0 .001-.25l-.008-.089-.011-.068c-.004-.017-.007-.035-.012-.052l-.011-.039a.379.379 0 0 0-.119-.193.41.41 0 0 0-.16-.065.746.746 0 0 0-.141-.012 1.179 1.179 0 0 0-.163.013l-.045.014-.034.01a1.332 1.332 0 0 1-.321.04.618.618 0 0 1-.318-.09.756.756 0 0 1-.14-.119 1.033 1.033 0 0 1-.218-.473l-.017-.087c-.007-.039-.012-.078-.017-.117a4.926 4.926 0 0 1-.015-.167 4.93 4.93 0 0 1-.008-.243c-.01-3.043.027-6.085 0-9.128a1.353 1.353 0 0 0-.008-.127.633.633 0 0 0-.028-.122l-.009-.022-.009-.015c-.004-.006-.008-.013-.014-.017a.082.082 0 0 0-.037-.016l-.028-.004-.045-.001-.071.002a4.014 4.014 0 0 0-.157.009c-.121.01-.241.024-.361.04l-.009.001-.028.007-.047.01c-.049.009-.097.018-.146.025a4.802 4.802 0 0 1-1.018.02 11.596 11.596 0 0 1-.414-.041l-.271-.031-.104-.012a16.17 16.17 0 0 0-.229-.022l-.086-.006-.062-.002a.908.908 0 0 0-.408.084c-.02.01-.038.021-.057.032a.75.75 0 0 0-.109.086.756.756 0 0 0-.109.136c-.088.141-.125.31-.135.475a1.5 1.5 0 0 0 .026.41c.003.015.006.03.011.045a.465.465 0 0 0 .128.231.44.44 0 0 0 .236.096l.045.006.059.003c.041.001.082 0 .123-.003.03-.003.061-.006.091-.015l.024-.009a1.474 1.474 0 0 1 .33-.082.872.872 0 0 1 .129-.005zm34.915 1.317l-.003-.019-.004-.033a3.41 3.41 0 0 1-.026-.482l.001-.121a6.957 6.957 0 0 1 .023-.417c.022-.276.05-.55.078-.825l.016-.164.02-.22.011-.149.005-.116-.002-.107a1.793 1.793 0 0 0-.018-.194.792.792 0 0 0-.101-.297.492.492 0 0 0-.288-.206l-.048-.012a1.144 1.144 0 0 0-.262-.019.545.545 0 0 0-.257.075.56.56 0 0 0-.112.099.81.81 0 0 0-.136.251 2.103 2.103 0 0 0-.092.428l-.045.146-.09.108-.117.049-.123-.02-.103-.085a5.208 5.208 0 0 1-.032-.041l-.032-.04a4.663 4.663 0 0 0-.129-.151 3.444 3.444 0 0 0-.268-.272 3.085 3.085 0 0 0-.695-.482 2.835 2.835 0 0 0-.808-.26 3.135 3.135 0 0 0-.603-.042 3.58 3.58 0 0 0-.911.131 3.1 3.1 0 0 0-.891.412c-.23.154-.446.341-.643.557a4.828 4.828 0 0 0-.63.876 6.41 6.41 0 0 0-.402.85 9.1 9.1 0 0 0-.516 2.138 13.6 13.6 0 0 0-.108 1.726c-.002.361.008.722.035 1.082.048.663.151 1.322.324 1.951a7.977 7.977 0 0 0 .339.973 4.166 4.166 0 0 0 1.241 1.601c.29.229.601.417.927.55a3.217 3.217 0 0 0 1.132.241c.215.005.431-.01.643-.051a2.85 2.85 0 0 0 .717-.238 3.526 3.526 0 0 0 .84-.59c.043-.04.084-.081.126-.123l.092-.062c.035-.005.069-.018.104-.014a.258.258 0 0 1 .185.114.385.385 0 0 1 .056.113c.026.085.019.172.019.26l.001.032a.748.748 0 0 0 .037.217.503.503 0 0 0 .027.062.448.448 0 0 0 .183.174l.039.019a.583.583 0 0 0 .053.021l.058.019.076.019a1.37 1.37 0 0 0 .246.028c.061.002.121.001.181-.003.079-.005.157-.016.234-.038a.675.675 0 0 0 .279-.148.662.662 0 0 0 .163-.253c.027-.074.045-.153.056-.233a2.129 2.129 0 0 0 .018-.329l-.001-.146-.003-.2a21.74 21.74 0 0 0-.009-.361l-.035-.949a27.906 27.906 0 0 1-.013-.827 3.61 3.61 0 0 1 .015-.26c.02-.186.059-.374.139-.534l.035-.064a.718.718 0 0 1 .144-.174.544.544 0 0 1 .361-.135l.026.001.355.038.019-.001a.268.268 0 0 0 .094-.028.404.404 0 0 0 .143-.134 1.12 1.12 0 0 0 .116-.229c.062-.168.086-.355.09-.539a1.597 1.597 0 0 0-.08-.57.954.954 0 0 0-.093-.19.841.841 0 0 0-.216-.223.727.727 0 0 0-.384-.116.97.97 0 0 0-.132.004l-.102.009a6.95 6.95 0 0 0-.247.032l-.276.042-.077.012a7.825 7.825 0 0 1-.935.077c-.055 0-.11 0-.164-.002a4.928 4.928 0 0 1-.344-.026 10.355 10.355 0 0 1-.426-.057l-.279-.045-.111-.017a9.308 9.308 0 0 0-.519-.061c-.045-.003-.09-.006-.135-.007a1.18 1.18 0 0 0-.168.005.833.833 0 0 0-.195.044.705.705 0 0 0-.318.227.757.757 0 0 0-.099.153.963.963 0 0 0-.084.268c-.015.091-.02.184-.018.277.003.128.019.257.056.377a.885.885 0 0 0 .121.251.48.48 0 0 0 .124.126.275.275 0 0 0 .112.043l.026.003h.012l.03-.003.065-.01a6.92 6.92 0 0 0 .152-.023l.032-.003.009-.001c.012-.001.023-.005.035-.008l.067-.011.114.001a.81.81 0 0 1 .098.008.664.664 0 0 1 .354.159.79.79 0 0 1 .173.212c.017.029.032.061.047.093.082.184.116.397.124.607l.001.09a2.249 2.249 0 0 1-.038.454 1.874 1.874 0 0 1-.442.932 1.659 1.659 0 0 1-.303.274 1.47 1.47 0 0 1-.336.174 1.604 1.604 0 0 1-.612.091 1.658 1.658 0 0 1-1.089-.448 2.226 2.226 0 0 1-.285-.317 3.095 3.095 0 0 1-.273-.445 4.556 4.556 0 0 1-.352-.981 6.965 6.965 0 0 1-.155-.902 9.834 9.834 0 0 1-.057-.909c-.004-.18-.004-.361-.001-.541.007-.425.03-.85.077-1.271.041-.361.1-.719.186-1.067.069-.28.155-.553.264-.812.078-.184.167-.361.269-.525.138-.221.301-.418.487-.572a1.625 1.625 0 0 1 .982-.391 2.185 2.185 0 0 1 .434.018 1.487 1.487 0 0 1 .852.379c.04.038.077.078.113.122.138.168.243.376.326.594.05.13.093.265.13.402a6.217 6.217 0 0 1 .137.623l.024.138a1.218 1.218 0 0 0 .175.499.58.58 0 0 0 .1.124.705.705 0 0 0 .43.178l.067.004c.042.001.084-.001.126-.004a1.031 1.031 0 0 0 .546-.191.76.76 0 0 0 .096-.084.842.842 0 0 0 .111-.133.695.695 0 0 0 .123-.394l.001-.034-.002-.056-.006-.139c-.006-.154-.014-.307-.021-.461zm7.053-.318a8.175 8.175 0 0 0-.414.013 5.918 5.918 0 0 0-.828.108 4.615 4.615 0 0 0-.787.233 3.897 3.897 0 0 0-.773.411 3.672 3.672 0 0 0-.518.43 4.02 4.02 0 0 0-.8 1.146c-.273.584-.411 1.223-.466 1.863a8.897 8.897 0 0 0 .004 1.401 5.57 5.57 0 0 0 .396 1.678c.033.079.069.157.106.234a3.9 3.9 0 0 0 .887 1.176 3.753 3.753 0 0 0 1.034.659c.529.23 1.101.348 1.675.394.08.007.161.011.241.015.119.006.238.008.357.008.606 0 1.216-.074 1.79-.271a3.999 3.999 0 0 0 .935-.462 3.858 3.858 0 0 0 1.193-1.302 4.046 4.046 0 0 0 .24-.488 5.794 5.794 0 0 0 .399-1.697c.009-.095.015-.189.021-.283a8.15 8.15 0 0 0 .009-.728c-.02-.639-.121-1.281-.352-1.88a4.527 4.527 0 0 0-.305-.632 3.928 3.928 0 0 0-.884-1.038 3.92 3.92 0 0 0-.751-.489 4.304 4.304 0 0 0-.88-.325 5.552 5.552 0 0 0-.985-.156 6.796 6.796 0 0 0-.473-.018h-.071zm.053 1.696c.087.001.174.005.261.015.141.015.281.043.416.085a1.859 1.859 0 0 1 .815.522 1.6 1.6 0 0 1 .099.119c.203.262.339.57.43.886.014.046.026.093.038.139a4.727 4.727 0 0 1 .123.767 7.706 7.706 0 0 1-.054 1.746 4.17 4.17 0 0 1-.084.4 2.69 2.69 0 0 1-.467.991 1.88 1.88 0 0 1-.511.446 1.803 1.803 0 0 1-.404.173 2.232 2.232 0 0 1-.64.088c-.212 0-.425-.027-.629-.088a1.868 1.868 0 0 1-.651-.346 2.373 2.373 0 0 1-.627-.834 2.992 2.992 0 0 1-.128-.32 3.724 3.724 0 0 1-.123-.455 5.312 5.312 0 0 1-.093-.699 6.68 6.68 0 0 1 .026-1.167c.036-.305.099-.609.201-.9a3.525 3.525 0 0 1 .154-.363 2.587 2.587 0 0 1 .392-.579c.097-.106.205-.203.323-.287a1.768 1.768 0 0 1 .532-.257 1.967 1.967 0 0 1 .568-.082h.033zM9.843 8.315l.175.005c.317.017.635.067.935.178.162.06.318.138.463.237a1.862 1.862 0 0 1 .607.696 2.149 2.149 0 0 1 .188.531l.109.494a1.1 1.1 0 0 0 .114.3.694.694 0 0 0 .14.173.85.85 0 0 0 .415.188.95.95 0 0 0 .074.012l.092.01a1.859 1.859 0 0 0 .302 0 1.76 1.76 0 0 0 .291-.047.714.714 0 0 0 .353-.201.534.534 0 0 0 .041-.053.826.826 0 0 0 .126-.39l.005-.071.003-.093-.001-.134-.003-.099a5.09 5.09 0 0 0-.017-.213 21.675 21.675 0 0 0-.026-.253l-.008-.085a4.948 4.948 0 0 1-.024-.404 5.463 5.463 0 0 1 .014-.402c.008-.143.02-.287.033-.43l.027-.297.012-.136.02-.271a10.24 10.24 0 0 0 .011-.281 1.568 1.568 0 0 0-.004-.176.76.76 0 0 0-.101-.344l-.03-.042a.604.604 0 0 0-.287-.183l-.056-.017-.073-.017a1.417 1.417 0 0 0-.213-.026 1.815 1.815 0 0 0-.357.009.8.8 0 0 0-.256.064.428.428 0 0 0-.075.043.255.255 0 0 0-.045.042.346.346 0 0 0-.05.085.954.954 0 0 0-.05.148c-.018.071-.03.143-.038.216-.013.1-.019.201-.022.302l-.032.15-.085.124-.123.079-.142.021-.138-.04c-.038-.032-.077-.062-.113-.095-.007-.006-.012-.015-.018-.022l-.017-.021-.034-.042a3.592 3.592 0 0 0-.65-.615 3.332 3.332 0 0 0-1.08-.516 4.046 4.046 0 0 0-.715-.128 5.003 5.003 0 0 0-.574-.017 4.419 4.419 0 0 0-1.438.261 3.646 3.646 0 0 0-2.22 2.381c-.121.405-.176.83-.182 1.255a4.145 4.145 0 0 0 .074.889c.036.182.086.361.151.533.066.176.147.346.243.506.135.227.299.435.482.62a4.323 4.323 0 0 0 1.018.752 3.619 3.619 0 0 0 .745.294l1.395.364c.325.086.65.176.971.279a8.692 8.692 0 0 1 .704.259c.073.033.146.067.217.105.072.039.143.082.21.132.101.076.191.167.267.271.08.111.144.236.19.368a2.286 2.286 0 0 1 .079 1.063c-.031.18-.088.354-.171.514a1.76 1.76 0 0 1-.3.414 1.92 1.92 0 0 1-.53.385 2.26 2.26 0 0 1-.515.178c-.149.032-.301.05-.452.058a4.63 4.63 0 0 1-.804-.038 3.4 3.4 0 0 1-.176-.03 2.498 2.498 0 0 1-.904-.351 1.904 1.904 0 0 1-.474-.445 1.907 1.907 0 0 1-.216-.365 2.307 2.307 0 0 1-.179-.61 5.225 5.225 0 0 1-.019-.123l-.013-.08a4.394 4.394 0 0 0-.085-.398 2.2 2.2 0 0 0-.083-.253 1.197 1.197 0 0 0-.088-.184.622.622 0 0 0-.095-.126.618.618 0 0 0-.208-.132 1.197 1.197 0 0 0-.183-.054 2.252 2.252 0 0 0-.519-.035 1.375 1.375 0 0 0-.619.165.98.98 0 0 0-.329.307.661.661 0 0 0-.094.292c-.005.043-.005.085-.005.128l.004.103c.003.077.009.155.015.233.011.14.026.281.039.421l.01.106.021.279c.007.103.01.206.009.309a7.036 7.036 0 0 1-.018.385c-.012.16-.027.32-.044.479l-.029.258-.009.089a8.453 8.453 0 0 0-.035.564c-.002.053-.002.106-.002.158a2.483 2.483 0 0 0 .011.217.933.933 0 0 0 .009.074.887.887 0 0 0 .152.401.597.597 0 0 0 .084.089.77.77 0 0 0 .358.157.742.742 0 0 0 .068.012 1.89 1.89 0 0 0 .472-.003.697.697 0 0 0 .344-.148.426.426 0 0 0 .043-.042.749.749 0 0 0 .165-.361l.012-.063.01-.081c.004-.035.006-.07.008-.105l.042-.16.101-.127.142-.069.155.002.14.071.073.06.072.059a6.028 6.028 0 0 0 .627.442c.361.223.745.404 1.146.526a4.215 4.215 0 0 0 1.119.182 6.045 6.045 0 0 0 .527-.014 4.805 4.805 0 0 0 1.086-.203 4.112 4.112 0 0 0 1.68-1.02 4.083 4.083 0 0 0 1.12-1.983c.084-.347.127-.705.138-1.063.01-.334-.007-.67-.065-.998a3.612 3.612 0 0 0-.147-.563 3.06 3.06 0 0 0-.618-1.038 3.499 3.499 0 0 0-.571-.497 5.195 5.195 0 0 0-.717-.418 7.664 7.664 0 0 0-.774-.323 10.838 10.838 0 0 0-.946-.287 13.03 13.03 0 0 0-.434-.104l-.332-.073-.174-.039a16.444 16.444 0 0 1-.61-.151 8.236 8.236 0 0 1-.48-.143 3.632 3.632 0 0 1-.3-.115 1.454 1.454 0 0 1-.247-.136 1.063 1.063 0 0 1-.204-.193 1.228 1.228 0 0 1-.201-.374 1.678 1.678 0 0 1-.076-.344 2.185 2.185 0 0 1-.015-.256 2.108 2.108 0 0 1 .018-.307 1.63 1.63 0 0 1 .105-.396 1.364 1.364 0 0 1 .516-.633 1.66 1.66 0 0 1 .262-.142c.204-.089.422-.14.64-.169a3.587 3.587 0 0 1 .479-.03h.088zm24.414-1.59a1.499 1.499 0 0 0-.241.021c-.105.018-.209.05-.306.096a1.313 1.313 0 0 0-.53.465c-.05.074-.091.153-.123.236a1.31 1.31 0 0 0-.081.42c-.002.082.001.165.013.246a1.208 1.208 0 0 0 .371.712 1.23 1.23 0 0 0 .897.384 1.335 1.335 0 0 0 .543-.108 1.25 1.25 0 0 0 .362-.249 1.321 1.321 0 0 0 .301-.433c.031-.076.054-.155.069-.235a1.46 1.46 0 0 0-.001-.537 1.233 1.233 0 0 0-.344-.637 1.325 1.325 0 0 0-.366-.264 1.171 1.171 0 0 0-.306-.096 1.516 1.516 0 0 0-.223-.021h-.035zm39.31 2.195a.495.495 0 0 1 .165.038.528.528 0 0 1 .178.119.508.508 0 0 1 .05.054c.108.131.169.299.209.468l.021.1a3.497 3.497 0 0 1 .042.316 6.803 6.803 0 0 1 .024.572c.006 2.629.006 5.258 0 7.887a7.128 7.128 0 0 1-.027.605 3.29 3.29 0 0 1-.064.397 1.109 1.109 0 0 1-.214.465.653.653 0 0 1-.123.111.548.548 0 0 1-.276.09.911.911 0 0 1-.156-.012 1.686 1.686 0 0 1-.26-.068l-.097-.035a.884.884 0 0 0-.131-.039c-.019-.004-.037-.008-.056-.009l-.039-.001a1.736 1.736 0 0 0-.072.004.738.738 0 0 0-.212.046.447.447 0 0 0-.174.115.704.704 0 0 0-.151.32c-.004.021-.009.041-.012.062l-.013.08a2.507 2.507 0 0 0-.017.269c-.001.203.023.41.097.598a1.066 1.066 0 0 0 .218.342.802.802 0 0 0 .548.247l.079.002c.048-.001.097-.005.146-.008.092-.008.185-.017.277-.027.145-.016.289-.034.434-.052l.278-.036.102-.012a8.019 8.019 0 0 1 1.145-.05c.232.006.464.018.695.037l.093.009.372.032.999.088.204.018.014.001h.022l.048-.002c.058-.003.115-.01.172-.021a.826.826 0 0 0 .223-.075.631.631 0 0 0 .176-.135.92.92 0 0 0 .189-.374.935.935 0 0 0 .018-.076 2.719 2.719 0 0 0 .046-.69 2.006 2.006 0 0 0-.023-.194l-.012-.056-.013-.049a.551.551 0 0 0-.125-.238l-.038-.034a.425.425 0 0 0-.126-.063.754.754 0 0 0-.24-.031 1.207 1.207 0 0 0-.178.016.268.268 0 0 0-.027.007l-.021.008-.025.008-.024.008-.075.019c-.091.02-.183.028-.275.028a.628.628 0 0 1-.322-.095.627.627 0 0 1-.152-.133 1.165 1.165 0 0 1-.225-.479l-.019-.085-.019-.104a3.467 3.467 0 0 1-.036-.36 5.02 5.02 0 0 1-.008-.275c-.011-3.715.029-7.429-.001-11.143a1.364 1.364 0 0 0-.032-.284c-.002-.011-.006-.021-.009-.032a.277.277 0 0 0-.01-.026.192.192 0 0 0-.041-.067l-.019-.014a.183.183 0 0 0-.06-.019.42.42 0 0 0-.062-.005 3.074 3.074 0 0 0-.275.014 9.54 9.54 0 0 0-.41.049l-.012.002-.033.008-.053.012a3.784 3.784 0 0 1-.602.074c-.1.005-.2.007-.299.004a6.653 6.653 0 0 1-.4-.023 14.79 14.79 0 0 1-.467-.05l-.306-.038-.117-.014a7.576 7.576 0 0 0-.259-.027l-.099-.008-.073-.003a1.03 1.03 0 0 0-.471.103.88.88 0 0 0-.208.158.91.91 0 0 0-.137.187 1.392 1.392 0 0 0-.154.611l-.003.093a2.197 2.197 0 0 0 .031.391l.013.059a.689.689 0 0 0 .126.279.344.344 0 0 0 .041.044c.08.074.183.109.285.125a.961.961 0 0 0 .123.011c.05.002.101.001.152-.004a.494.494 0 0 0 .107-.021l.01-.004.033-.013c.108-.04.218-.073.33-.089a1.05 1.05 0 0 1 .154-.008zm11.739-1.608a.812.812 0 0 1 .264.053.78.78 0 0 1 .37.317c.017.027.033.056.048.085.097.19.141.411.158.631a2.733 2.733 0 0 1 .009.237v1.815c-.009.053-.009.108-.026.157a.422.422 0 0 1-.072.134.367.367 0 0 1-.11.091.296.296 0 0 1-.261.009c-.042-.019-.077-.054-.114-.084-.007-.006-.013-.015-.02-.022l-.04-.043-.06-.064a4.973 4.973 0 0 0-.586-.528 3.668 3.668 0 0 0-.921-.521 3.008 3.008 0 0 0-1.311-.192 3.261 3.261 0 0 0-1.099.247 3.198 3.198 0 0 0-.936.6 4.375 4.375 0 0 0-.656.754 5.757 5.757 0 0 0-.664 1.275 6.332 6.332 0 0 0-.124.359 9.08 9.08 0 0 0-.382 2.227c-.006.113-.01.227-.014.341a15.99 15.99 0 0 0-.004.438c.006.798.086 1.6.279 2.367a8.01 8.01 0 0 0 .23.753c.072.196.152.388.24.574.121.256.258.501.409.733.183.283.388.547.616.779.229.232.481.432.751.588.275.158.567.269.867.333.24.052.484.074.728.072.324-.002.65-.046.964-.144a2.837 2.837 0 0 0 .913-.486c.25-.199.473-.443.667-.717a4.52 4.52 0 0 0 .281-.453 5.73 5.73 0 0 0 .115-.22l.008-.017.102-.132.139-.068.15.009.133.084.091.142.032.176c0 .318-.003.637 0 .955a1.315 1.315 0 0 0 .015.197.648.648 0 0 0 .022.097c.012.041.03.082.058.111.022.023.05.036.078.045a.416.416 0 0 0 .111.018h.013l.046-.005c.171-.022.342-.047.513-.071l.075-.009c.281-.032.563-.041.845-.041.127 0 .255.003.382.01.13.008.261.021.39.046l.708.146.109-.001h.023a.593.593 0 0 0 .318-.101.77.77 0 0 0 .212-.227 1.356 1.356 0 0 0 .179-.429 2.188 2.188 0 0 0 .056-.367 2.749 2.749 0 0 0-.019-.592 1.686 1.686 0 0 0-.027-.121.583.583 0 0 0-.124-.247.388.388 0 0 0-.042-.039.4.4 0 0 0-.114-.059.66.66 0 0 0-.211-.033 1.153 1.153 0 0 0-.118.004.521.521 0 0 0-.133.03l-.042.016c-.12.043-.244.076-.37.076a.521.521 0 0 1-.307-.099.812.812 0 0 1-.138-.132 1.247 1.247 0 0 1-.215-.491 4.103 4.103 0 0 1-.041-.217c-.008-.055-.014-.111-.02-.167a6.755 6.755 0 0 1-.026-.554c-.009-3.843.008-7.687 0-11.53a4.126 4.126 0 0 0-.015-.352 1.452 1.452 0 0 0-.074-.369.213.213 0 0 0-.096-.122.475.475 0 0 0-.138-.053 1.202 1.202 0 0 0-.299-.026 5.46 5.46 0 0 0-.257.012c-.108.007-.215.016-.323.025l-.255.024-.121.01c-.123.01-.245.019-.368.024a3.63 3.63 0 0 1-.276.005 6.349 6.349 0 0 1-.389-.026c-.17-.015-.34-.033-.509-.052l-.151-.018-.076-.009-.053-.005a5.566 5.566 0 0 0-.258-.012c-.101-.003-.202-.003-.304-.003h-.039a1.834 1.834 0 0 0-.266.024c-.026.004-.052.01-.078.016a.832.832 0 0 0-.458.258.662.662 0 0 0-.066.089 1.167 1.167 0 0 0-.144.408 2.16 2.16 0 0 0-.027.255c-.006.116-.006.233.006.348a1.09 1.09 0 0 0 .192.552.611.611 0 0 0 .196.19.4.4 0 0 0 .148.047 1.236 1.236 0 0 0 .498-.08l.063-.015a9.95 9.95 0 0 1 .29-.035c.077-.008.153-.016.229-.018h.048zm-1.689 4.41a1.903 1.903 0 0 1 1.022.297c.066.043.13.089.192.14.205.168.383.38.533.617.176.278.314.589.416.916.171.549.239 1.138.248 1.722a8.28 8.28 0 0 1-.014.638c-.036.581-.137 1.162-.343 1.692a3.919 3.919 0 0 1-.276.569 3.29 3.29 0 0 1-.239.348 2.426 2.426 0 0 1-.348.36 1.852 1.852 0 0 1-1.646.384 1.691 1.691 0 0 1-.743-.425 2.447 2.447 0 0 1-.406-.523 3.107 3.107 0 0 1-.185-.364 3.85 3.85 0 0 1-.161-.439 5.358 5.358 0 0 1-.169-.78 8.068 8.068 0 0 1-.075-1.131v-.339l.011-.206a7.803 7.803 0 0 1 .116-.979 5.706 5.706 0 0 1 .188-.74 4.575 4.575 0 0 1 .184-.462c.026-.056.054-.111.083-.165.164-.308.372-.588.628-.79a1.516 1.516 0 0 1 .923-.339l.061-.001zM97.962.95c1.145 0 2.038.922 2.038 2.044a2.053 2.053 0 0 1-2.05 2.056 2.032 2.032 0 0 1-2.033-2.044c0-1.116.893-2.056 2.045-2.056zm-.012 3.6c.88 0 1.562-.706 1.562-1.556 0-.85-.676-1.544-1.55-1.544-.881 0-1.55.706-1.55 1.556 0 .85.663 1.544 1.538 1.544zm.868-1.906c0 .29-.121.507-.344.615l.404.628h-.56l-.284-.531h-.362v.531h-.488V1.975h.832c.513 0 .802.241.802.669zm-1.146-.283v.609h.344c.211 0 .332-.115.332-.308 0-.199-.121-.301-.332-.301h-.344z" fill="hsl(224, 55%, 22%)"/></svg>
