<svg viewBox="0 0 100 17" xmlns="http://www.w3.org/2000/svg" fill-rule="evenodd" clip-rule="evenodd" stroke-linejoin="round" stroke-miterlimit="2"><path d="M31.364 2.634c1.007 1.323 1.57 3.482 1.57 6.007 0 2.87-.908 5.224-2.527 6.522-1.226.98-3.088 1.522-5.296 1.522-3.139 0-5.616-1.031-6.892-2.87-.957-1.347-1.422-3.14-1.422-5.322 0-3.137.86-5.516 2.476-6.792C20.547.67 22.56.107 24.865.107c2.917 0 5.248.908 6.499 2.527zM21.38 4.522c-.514.809-.76 2.108-.76 3.85 0 3.823 1.326 5.565 4.268 5.565 2.893 0 4.22-1.742 4.22-5.516 0-3.827-1.301-5.544-4.22-5.544-1.594 0-2.845.589-3.508 1.645zM38.5 16.682h-3.486V.33h8.17c2.866 0 3.874.292 4.951 1.494.959 1.031 1.471 2.38 1.471 3.825 0 1.717-.684 3.31-1.814 4.27-.957.808-1.841 1.052-3.702 1.052H38.5v5.712zm4.73-8.63c.932 0 1.474-.122 1.84-.465.442-.368.71-1.154.71-2.06 0-1.077-.439-1.864-1.199-2.133-.27-.1-.711-.148-1.276-.148h-4.805v4.807h4.73zm21.675 8.633h-3.482V9.94h-6.3v6.744h-3.483V.329h3.482v6.695h6.301V.329h3.482v16.356zM81.586 2.634c1.005 1.323 1.568 3.482 1.568 6.007 0 2.87-.908 5.224-2.525 6.522-1.228.98-3.09 1.522-5.3 1.522-3.137 0-5.611-1.031-6.89-2.87-.954-1.347-1.42-3.14-1.42-5.322 0-3.137.855-5.516 2.476-6.792C70.77.67 72.781.107 75.088.107c2.916 0 5.245.908 6.498 2.527zm-9.982 1.888c-.515.809-.76 2.108-.76 3.85 0 3.823 1.325 5.565 4.267 5.565 2.893 0 4.219-1.742 4.219-5.516 0-3.827-1.298-5.544-4.219-5.544-1.594 0-2.845.589-3.507 1.645zM.354 13.711h8.529c1.324 0 2.049-.127 2.473-.4.526-.326.825-.877.825-1.524 0-.775-.4-1.45-1.073-1.776-.35-.201-1-.299-1.801-.299H5.749c-1.998 0-3.298-.351-4.173-1.098C.576 7.737 0 6.387 0 4.937 0 2.812 1.175.962 2.9.365 3.65.088 4.523.014 6.474.014h8.693v2.974H7.274c-1.575.025-2.184.025-2.71.15-.698.173-1.124.823-1.124 1.7 0 .749.351 1.35.95 1.623.5.224 1.384.277 2.585.277h2.673c2.448 0 3.774.375 4.749 1.374.75.75 1.248 2.225 1.248 3.675 0 1.773-.823 3.424-2.123 4.222-.825.525-1.875.676-4.348.676H.354V13.71zm84.356 0h8.526c1.325 0 2.051-.127 2.477-.4.524-.326.823-.877.823-1.524 0-.775-.4-1.45-1.075-1.776-.35-.201-1-.299-1.802-.299h-3.558c-1.998 0-3.298-.351-4.172-1.098-.999-.877-1.577-2.227-1.577-3.677 0-2.125 1.177-3.975 2.9-4.572.752-.277 1.624-.351 3.575-.351h8.693v2.974h-7.893c-1.574.025-2.184.025-2.707.15-.703.173-1.126.823-1.126 1.7 0 .749.35 1.35.948 1.623.502.224 1.385.277 2.587.277H94c2.453 0 3.776.375 4.752 1.374.75.75 1.249 2.225 1.249 3.675 0 1.773-.826 3.424-2.125 4.222-.824.525-1.873.676-4.35.676H84.71V13.71z" fill="#255AC1"/></svg>
