<svg viewBox="0 0 100 64" xmlns="http://www.w3.org/2000/svg" fill-rule="evenodd" clip-rule="evenodd" stroke-linejoin="round" stroke-miterlimit="2"><path d="M100 16.302v30.555a5.559 5.559 0 0 1-5.556 5.556H5.556A5.559 5.559 0 0 1 0 46.857V16.302a5.558 5.558 0 0 1 5.556-5.556h88.888A5.558 5.558 0 0 1 100 16.302zM75.41 35.401h6.86l1.372 3.116h2.469l-6.036-13.699h-2.47l-6.036 13.699h2.469l1.372-3.116zm5.919-2.136h-4.978l2.489-5.645 2.489 5.645zm-20.646-6.232c.431-.275.983-.412 1.656-.412.673 0 1.356.118 2.048.353.693.235 1.242.535 1.647.901l1.234-1.744c-.627-.523-1.372-.928-2.234-1.215a8.179 8.179 0 0 0-2.607-.431c-1.358 0-2.498.343-3.42 1.029-.921.686-1.381 1.662-1.381 2.93 0 1.267.405 2.208 1.215 2.822.405.326.869.591 1.391.794.523.202 1.287.424 2.293.666 1.007.242 1.715.51 2.127.803.412.294.617.706.617 1.235 0 .529-.219.954-.656 1.274-.438.32-1.029.48-1.774.48-1.489 0-2.927-.601-4.312-1.803l-1.45 1.745c1.659 1.476 3.56 2.214 5.703 2.214 1.464 0 2.646-.372 3.548-1.117.901-.745 1.352-1.715 1.352-2.91 0-1.196-.356-2.101-1.068-2.715-.712-.614-1.771-1.091-3.175-1.431-1.405-.339-2.323-.656-2.754-.95-.431-.294-.647-.719-.647-1.274s.216-.97.647-1.244zm-38.7 11.484l5.507-13.699h-2.587l-4.213 10.23-4.214-10.23h-2.587l5.507 13.699h2.587zm13.653-11.543h6.801l.02-2.156h-9.133v13.699h2.312v-5.644h6.076v-2.136h-6.076v-3.763zm13.208-2.156v13.699h2.312V24.818h-2.312zm37.267-16.85H13.889L46.877.356a13.867 13.867 0 0 1 6.246 0l32.988 7.612zm0 47.223l-32.988 7.612a13.895 13.895 0 0 1-6.246 0l-32.988-7.612h72.222z" fill="hsl(224, 55%, 22%)"/></svg>
